AnekKannada-ExtraBold.ufo
<glyph name="quotesingle" format="2">
  <advance width="441"/>
  <unicode hex="0027"/>
  <outline>
    <contour>
      <point x="388" y="1319" type="line"/>
      <point x="53" y="1319" type="line"/>
      <point x="87" y="791" type="line"/>
      <point x="352" y="791" type="line"/>
    </contour>
  </outline>
</glyph>
<glyph name="one" format="2">
  <advance width="757"/>
  <unicode hex="0031"/>
  <outline>
    <contour>
      <point x="654" y="0" type="line"/>
      <point x="654" y="1278" type="line"/>
      <point x="344" y="1278" type="line"/>
      <point x="40" y="1151" type="line"/>
      <point x="30" y="814" type="line"/>
      <point x="282" y="916" type="line"/>
      <point x="295" y="916" type="line"/>
      <point x="295" y="0" type="line"/>
    </contour>
  </outline>
</glyph>
<glyph name="nine" format="2">
  <advance width="1187"/>
  <unicode hex="0039"/>
  <outline>
    <contour>
      <point x="578" y="1304" type="curve" smooth="yes"/>
      <point x="240" y="1304"/>
      <point x="61" y="1148"/>
      <point x="61" y="865" type="curve" smooth="yes"/>
      <point x="61" y="820" type="line" smooth="yes"/>
      <point x="61" y="580"/>
      <point x="187" y="438"/>
      <point x="426" y="438" type="curve" smooth="yes"/>
      <point x="619" y="438"/>
      <point x="718" y="521"/>
      <point x="751" y="655" type="curve"/>
      <point x="846" y="655" type="line"/>
      <point x="765" y="807" type="line"/>
      <point x="727" y="742"/>
      <point x="660" y="704"/>
      <point x="576" y="704" type="curve" smooth="yes"/>
      <point x="462" y="704"/>
      <point x="411" y="752"/>
      <point x="411" y="848" type="curve" smooth="yes"/>
      <point x="411" y="857" type="line"/>
      <point x="411" y="950"/>
      <point x="461" y="1007"/>
      <point x="575" y="1007" type="curve" smooth="yes"/>
      <point x="703" y="1007"/>
      <point x="761" y="936"/>
      <point x="761" y="781" type="curve" smooth="yes"/>
      <point x="761" y="553" type="line" smooth="yes"/>
      <point x="761" y="358"/>
      <point x="658" y="270"/>
      <point x="429" y="270" type="curve" smooth="yes"/>
      <point x="303" y="270"/>
      <point x="202" y="301"/>
      <point x="124" y="336" type="curve"/>
      <point x="159" y="28" type="line"/>
      <point x="230" y="-3"/>
      <point x="344" y="-29"/>
      <point x="499" y="-29" type="curve" smooth="yes"/>
      <point x="911" y="-29"/>
      <point x="1119" y="174"/>
      <point x="1119" y="537" type="curve" smooth="yes"/>
      <point x="1119" y="747" type="line" smooth="yes"/>
      <point x="1119" y="1114"/>
      <point x="933" y="1304"/>
    </contour>
  </outline>
</glyph>
<glyph name="I" format="2">
  <advance width="571"/>
  <unicode hex="0049"/>
  <anchor x="286" y="0" name="bottom"/>
  <anchor x="493" y="0" name="ogonek"/>
  <anchor x="287" y="1278" name="top"/>
  <anchor x="20" y="1278" name="topleft"/>
  <outline>
    <contour>
      <point x="467" y="1278" type="line"/>
      <point x="104" y="1278" type="line"/>
      <point x="104" y="0" type="line"/>
      <point x="467" y="0" type="line"/>
    </contour>
  </outline>
</glyph>
<glyph name="O" format="2">
  <advance width="1294"/>
  <unicode hex="004F"/>
  <anchor x="647" y="0" name="bottom"/>
  <anchor x="647" y="639" name="center"/>
  <anchor x="992" y="5" name="ogonek"/>
  <anchor x="647" y="1278" name="top"/>
  <anchor x="5" y="1278" name="topleft"/>
  <anchor x="1235" y="1278" name="topright"/>
  <outline>
    <contour>
      <point x="647" y="-33" type="curve" smooth="yes"/>
      <point x="1035" y="-33"/>
      <point x="1226" y="161"/>
      <point x="1226" y="518" type="curve" smooth="yes"/>
      <point x="1226" y="744" type="line" smooth="yes"/>
      <point x="1226" y="1103"/>
      <point x="1032" y="1307"/>
      <point x="647" y="1307" type="curve" smooth="yes"/>
      <point x="262" y="1307"/>
      <point x="68" y="1103"/>
      <point x="68" y="744" type="curve" smooth="yes"/>
      <point x="68" y="518" type="line" smooth="yes"/>
      <point x="68" y="161"/>
      <point x="259" y="-33"/>
    </contour>
    <contour>
      <point x="647" y="265" type="curve" smooth="yes"/>
      <point x="504" y="265"/>
      <point x="437" y="350"/>
      <point x="437" y="500" type="curve" smooth="yes"/>
      <point x="437" y="763" type="line" smooth="yes"/>
      <point x="437" y="923"/>
      <point x="504" y="1011"/>
      <point x="647" y="1011" type="curve" smooth="yes"/>
      <point x="789" y="1011"/>
      <point x="857" y="923"/>
      <point x="857" y="763" type="curve" smooth="yes"/>
      <point x="857" y="500" type="line" smooth="yes"/>
      <point x="857" y="350"/>
      <point x="789" y="265"/>
    </contour>
  </outline>
</glyph>
<glyph name="Q" format="2">
  <advance width="1294"/>
  <unicode hex="0051"/>
  <anchor x="648" y="0" name="bottom"/>
  <anchor x="648" y="1278" name="top"/>
  <outline>
    <contour>
      <point x="1284" y="249" type="line"/>
      <point x="946" y="236" type="line"/>
      <point x="946" y="249" type="line"/>
      <point x="1120" y="278"/>
      <point x="1225" y="395"/>
      <point x="1225" y="607" type="curve" smooth="yes"/>
      <point x="1225" y="747" type="line" smooth="yes"/>
      <point x="1225" y="1104"/>
      <point x="1031" y="1307"/>
      <point x="647" y="1307" type="curve" smooth="yes"/>
      <point x="262" y="1307"/>
      <point x="68" y="1104"/>
      <point x="68" y="745" type="curve" smooth="yes"/>
      <point x="68" y="535" type="line" smooth="yes"/>
      <point x="68" y="167"/>
      <point x="255" y="-13"/>
      <point x="725" y="-34" type="curve" smooth="yes"/>
      <point x="1284" y="-59" type="line"/>
    </contour>
    <contour>
      <point x="674" y="268" type="line" smooth="yes"/>
      <point x="531" y="272"/>
      <point x="437" y="359"/>
      <point x="437" y="520" type="curve" smooth="yes"/>
      <point x="437" y="761" type="line" smooth="yes"/>
      <point x="437" y="921"/>
      <point x="504" y="1009"/>
      <point x="647" y="1009" type="curve" smooth="yes"/>
      <point x="789" y="1009"/>
      <point x="857" y="921"/>
      <point x="857" y="761" type="curve" smooth="yes"/>
      <point x="857" y="540" type="line" smooth="yes"/>
      <point x="857" y="387"/>
      <point x="798" y="300"/>
      <point x="711" y="267" type="curve"/>
    </contour>
  </outline>
</glyph>
<glyph name="X" format="2">
  <advance width="1227"/>
  <unicode hex="0058"/>
  <anchor x="614" y="0" name="bottom"/>
  <anchor x="614" y="1278" name="top"/>
  <outline>
    <contour>
      <point x="404" y="0" type="line"/>
      <point x="604" y="460" type="line"/>
      <point x="622" y="460" type="line"/>
      <point x="823" y="0" type="line"/>
      <point x="1213" y="0" type="line"/>
      <point x="876" y="703" type="line"/>
      <point x="876" y="628" type="line"/>
      <point x="1199" y="1278" type="line"/>
      <point x="817" y="1278" type="line"/>
      <point x="622" y="849" type="line"/>
      <point x="604" y="849" type="line"/>
      <point x="410" y="1278" type="line"/>
      <point x="28" y="1278" type="line"/>
      <point x="350" y="628" type="line"/>
      <point x="350" y="703" type="line"/>
      <point x="14" y="0" type="line"/>
    </contour>
  </outline>
</glyph>
<glyph name="bracketleft" format="2">
  <advance width="650"/>
  <unicode hex="005B"/>
  <outline>
    <contour>
      <point x="602" y="-252" type="line"/>
      <point x="602" y="1" type="line"/>
      <point x="432" y="1" type="line"/>
      <point x="432" y="1098" type="line"/>
      <point x="602" y="1098" type="line"/>
      <point x="602" y="1351" type="line"/>
      <point x="106" y="1351" type="line"/>
      <point x="106" y="-252" type="line"/>
    </contour>
  </outline>
</glyph>
<glyph name="d" format="2">
  <advance width="1152"/>
  <unicode hex="0064"/>
  <anchor x="564" y="0" name="bottom"/>
  <anchor x="564" y="493" name="center"/>
  <anchor x="564" y="1319" name="top"/>
  <anchor x="1145" y="1319" name="topright"/>
  <outline>
    <contour>
      <point x="407" y="-24" type="curve" smooth="yes"/>
      <point x="599" y="-24"/>
      <point x="679" y="82"/>
      <point x="707" y="218" type="curve"/>
      <point x="805" y="218" type="line"/>
      <point x="718" y="370" type="line"/>
      <point x="694" y="309"/>
      <point x="642" y="268"/>
      <point x="568" y="268" type="curve" smooth="yes"/>
      <point x="468" y="268"/>
      <point x="418" y="324"/>
      <point x="418" y="438" type="curve" smooth="yes"/>
      <point x="418" y="559" type="line" smooth="yes"/>
      <point x="418" y="671"/>
      <point x="468" y="727"/>
      <point x="563" y="727" type="curve" smooth="yes"/>
      <point x="658" y="727"/>
      <point x="710" y="665"/>
      <point x="712" y="562" type="curve"/>
      <point x="792" y="767" type="line"/>
      <point x="701" y="767" type="line"/>
      <point x="674" y="914"/>
      <point x="592" y="1009"/>
      <point x="417" y="1009" type="curve" smooth="yes"/>
      <point x="177" y="1009"/>
      <point x="62" y="850"/>
      <point x="62" y="539" type="curve" smooth="yes"/>
      <point x="62" y="434" type="line" smooth="yes"/>
      <point x="62" y="128"/>
      <point x="180" y="-24"/>
    </contour>
    <contour>
      <point x="1060" y="0" type="line"/>
      <point x="1060" y="1319" type="line"/>
      <point x="708" y="1319" type="line"/>
      <point x="708" y="1034" type="line"/>
      <point x="712" y="745" type="line"/>
      <point x="712" y="700" type="line"/>
      <point x="712" y="306" type="line"/>
      <point x="718" y="257" type="line"/>
      <point x="708" y="0" type="line"/>
    </contour>
  </outline>
</glyph>
<glyph name="j" format="2">
  <advance width="550"/>
  <unicode hex="006A"/>
  <outline>
    <component base="jbottom"/>
    <contour>
      <point x="459" y="162" type="line"/>
      <point x="459" y="985" type="line"/>
      <point x="105" y="985" type="line"/>
      <point x="105" y="162" type="line"/>
    </contour>
    <contour>
      <point x="282" y="1056" type="curve" smooth="yes"/>
      <point x="410" y="1056"/>
      <point x="467" y="1117"/>
      <point x="467" y="1217" type="curve" smooth="yes"/>
      <point x="467" y="1225" type="line" smooth="yes"/>
      <point x="467" y="1323"/>
      <point x="410" y="1386"/>
      <point x="282" y="1386" type="curve" smooth="yes"/>
      <point x="152" y="1386"/>
      <point x="97" y="1323"/>
      <point x="97" y="1225" type="curve" smooth="yes"/>
      <point x="97" y="1217" type="line" smooth="yes"/>
      <point x="97" y="1118"/>
      <point x="152" y="1056"/>
    </contour>
  </outline>
</glyph>
<glyph name="l" format="2">
  <advance width="538"/>
  <unicode hex="006C"/>
  <anchor x="270" y="0" name="bottom"/>
  <anchor x="270" y="657" name="center"/>
  <anchor x="270" y="1319" name="top"/>
  <anchor x="531" y="1319" name="topright"/>
  <outline>
    <contour>
      <point x="446" y="0" type="line"/>
      <point x="446" y="1319" type="line"/>
      <point x="92" y="1319" type="line"/>
      <point x="92" y="0" type="line"/>
    </contour>
  </outline>
</glyph>
<glyph name="n" format="2">
  <advance width="1156"/>
  <unicode hex="006E"/>
  <anchor x="579" y="0" name="bottom"/>
  <anchor x="579" y="985" name="top"/>
  <outline>
    <contour>
      <point x="1071" y="0" type="line"/>
      <point x="1071" y="627" type="line" smooth="yes"/>
      <point x="1071" y="884"/>
      <point x="972" y="1009"/>
      <point x="757" y="1009" type="curve" smooth="yes"/>
      <point x="558" y="1009"/>
      <point x="475" y="904"/>
      <point x="445" y="767" type="curve"/>
      <point x="388" y="767" type="line"/>
      <point x="442" y="621" type="line"/>
      <point x="466" y="674"/>
      <point x="515" y="717"/>
      <point x="590" y="717" type="curve" smooth="yes"/>
      <point x="686" y="717"/>
      <point x="717" y="660"/>
      <point x="717" y="566" type="curve" smooth="yes"/>
      <point x="717" y="0" type="line"/>
    </contour>
    <contour>
      <point x="446" y="0" type="line"/>
      <point x="446" y="696" type="line"/>
      <point x="433" y="732" type="line"/>
      <point x="444" y="985" type="line"/>
      <point x="92" y="985" type="line"/>
      <point x="92" y="0" type="line"/>
    </contour>
  </outline>
</glyph>
<glyph name="bar" format="2">
  <advance width="537"/>
  <unicode hex="007C"/>
  <outline>
    <contour>
      <point x="415" y="1421" type="line"/>
      <point x="122" y="1421" type="line"/>
      <point x="122" y="-413" type="line"/>
      <point x="415" y="-413" type="line"/>
    </contour>
  </outline>
</glyph>
<glyph name="exclamdown" format="2">
  <advance width="536"/>
  <unicode hex="00A1"/>
  <outline>
    <contour>
      <point x="458" y="-293" type="line"/>
      <point x="78" y="-293" type="line"/>
      <point x="120" y="553" type="line"/>
      <point x="417" y="553" type="line"/>
    </contour>
    <contour>
      <point x="270" y="1015" type="curve" smooth="yes"/>
      <point x="396" y="1015"/>
      <point x="456" y="946"/>
      <point x="456" y="831" type="curve" smooth="yes"/>
      <point x="456" y="820" type="line" smooth="yes"/>
      <point x="456" y="706"/>
      <point x="396" y="636"/>
      <point x="270" y="636" type="curve" smooth="yes"/>
      <point x="143" y="636"/>
      <point x="85" y="706"/>
      <point x="85" y="820" type="curve" smooth="yes"/>
      <point x="85" y="831" type="line" smooth="yes"/>
      <point x="85" y="946"/>
      <point x="143" y="1015"/>
    </contour>
  </outline>
</glyph>
<glyph name="cent" format="2">
  <advance width="903"/>
  <unicode hex="00A2"/>
  <outline>
    <component base="c"/>
    <contour>
      <point x="685" y="1181" type="line"/>
      <point x="389" y="1181" type="line"/>
      <point x="389" y="830" type="line"/>
      <point x="685" y="830" type="line"/>
    </contour>
    <contour>
      <point x="685" y="162" type="line"/>
      <point x="389" y="162" type="line"/>
      <point x="389" y="-200" type="line"/>
      <point x="685" y="-200" type="line"/>
    </contour>
  </outline>
</glyph>
<glyph name="questiondown" format="2">
  <advance width="934"/>
  <unicode hex="00BF"/>
  <outline>
    <contour>
      <point x="556" y="547" type="line" smooth="yes"/>
      <point x="222" y="494"/>
      <point x="50" y="371"/>
      <point x="50" y="92" type="curve" smooth="yes"/>
      <point x="50" y="68" type="line" smooth="yes"/>
      <point x="50" y="-185"/>
      <point x="204" y="-322"/>
      <point x="514" y="-322" type="curve" smooth="yes"/>
      <point x="661" y="-322"/>
      <point x="793" y="-289"/>
      <point x="871" y="-257" type="curve"/>
      <point x="909" y="39" type="line"/>
      <point x="802" y="2"/>
      <point x="696" y="-22"/>
      <point x="589" y="-22" type="curve" smooth="yes"/>
      <point x="461" y="-22"/>
      <point x="413" y="17"/>
      <point x="413" y="96" type="curve" smooth="yes"/>
      <point x="413" y="104" type="line" smooth="yes"/>
      <point x="413" y="177"/>
      <point x="453" y="226"/>
      <point x="606" y="253" type="curve" smooth="yes"/>
      <point x="707" y="271" type="line"/>
      <point x="707" y="571" type="line"/>
    </contour>
    <contour>
      <point x="574" y="1014" type="curve" smooth="yes"/>
      <point x="448" y="1014"/>
      <point x="388" y="945"/>
      <point x="388" y="830" type="curve" smooth="yes"/>
      <point x="388" y="819" type="line" smooth="yes"/>
      <point x="388" y="705"/>
      <point x="448" y="635"/>
      <point x="574" y="635" type="curve" smooth="yes"/>
      <point x="701" y="635"/>
      <point x="759" y="705"/>
      <point x="759" y="819" type="curve" smooth="yes"/>
      <point x="759" y="830" type="line" smooth="yes"/>
      <point x="759" y="945"/>
      <point x="701" y="1014"/>
    </contour>
  </outline>
</glyph>
<glyph name="divide" format="2">
  <advance width="1028"/>
  <unicode hex="00F7"/>
  <outline>
    <component base="period" xScale="0.8" yScale="0.8" xOffset="307" yOffset="141"/>
    <component base="period" xScale="0.8" yScale="0.8" xOffset="307" yOffset="834"/>
    <contour>
      <point x="944" y="478" type="line"/>
      <point x="944" y="758" type="line"/>
      <point x="84" y="758" type="line"/>
      <point x="84" y="478" type="line"/>
    </contour>
  </outline>
</glyph>
<glyph name="Candrabindu" format="2">
  <unicode hex="0C81"/>
  <unicode hex="0D01"/>
  <outline>
    <contour>
      <point x="-856" y="1501" type="curve" smooth="yes"/>
      <point x="-1024" y="1501"/>
      <point x="-1084" y="1595"/>
      <point x="-1084" y="1717" type="curve" smooth="yes"/>
      <point x="-1084" y="1746" type="line"/>
      <point x="-1328" y="1746" type="line"/>
      <point x="-1328" y="1712" type="line" smooth="yes"/>
      <point x="-1328" y="1453"/>
      <point x="-1182" y="1290"/>
      <point x="-857" y="1290" type="curve" smooth="yes"/>
      <point x="-532" y="1290"/>
      <point x="-385" y="1452"/>
      <point x="-385" y="1712" type="curve" smooth="yes"/>
      <point x="-385" y="1746" type="line"/>
      <point x="-628" y="1746" type="line"/>
      <point x="-628" y="1717" type="line" smooth="yes"/>
      <point x="-628" y="1595"/>
      <point x="-688" y="1501"/>
    </contour>
    <contour>
      <point x="-998" y="1745" type="line" smooth="yes"/>
      <point x="-998" y="1645"/>
      <point x="-948" y="1590"/>
      <point x="-856" y="1590" type="curve" smooth="yes"/>
      <point x="-766" y="1590"/>
      <point x="-715" y="1645"/>
      <point x="-715" y="1745" type="curve" smooth="yes"/>
      <point x="-715" y="1754" type="line" smooth="yes"/>
      <point x="-715" y="1857"/>
      <point x="-766" y="1910"/>
      <point x="-856" y="1910" type="curve" smooth="yes"/>
      <point x="-948" y="1910"/>
      <point x="-998" y="1857"/>
      <point x="-998" y="1754" type="curve" smooth="yes"/>
    </contour>
  </outline>
</glyph>
<glyph name="swastisri" format="2">
  <advance width="1638"/>
  <unicode hex="0C84"/>
  <outline>
    <contour>
      <point x="1588" y="561" type="line" smooth="yes"/>
      <point x="1588" y="156"/>
      <point x="1323" y="-57"/>
      <point x="844" y="-57" type="curve" smooth="yes"/>
      <point x="335" y="-57"/>
      <point x="50" y="178"/>
      <point x="50" y="618" type="curve" smooth="yes"/>
      <point x="50" y="641" type="line" smooth="yes"/>
      <point x="50" y="1121"/>
      <point x="370" y="1387"/>
      <point x="926" y="1387" type="curve"/>
      <point x="953" y="1194" type="line"/>
      <point x="543" y="1194"/>
      <point x="300" y="997"/>
      <point x="300" y="642" type="curve" smooth="yes"/>
      <point x="300" y="621" type="line" smooth="yes"/>
      <point x="300" y="310"/>
      <point x="502" y="137"/>
      <point x="840" y="137" type="curve" smooth="yes"/>
      <point x="1152" y="137"/>
      <point x="1338" y="292"/>
      <point x="1338" y="572" type="curve" smooth="yes"/>
      <point x="1338" y="593" type="line" smooth="yes"/>
      <point x="1338" y="839"/>
      <point x="1198" y="954"/>
      <point x="958" y="954" type="curve" smooth="yes"/>
      <point x="735" y="954"/>
      <point x="606" y="848"/>
      <point x="606" y="644" type="curve" smooth="yes"/>
      <point x="606" y="624" type="line" smooth="yes"/>
      <point x="606" y="464"/>
      <point x="695" y="378"/>
      <point x="843" y="378" type="curve" smooth="yes"/>
      <point x="974" y="378"/>
      <point x="1033" y="441"/>
      <point x="1033" y="577" type="curve" smooth="yes"/>
      <point x="1033" y="600" type="line" smooth="yes"/>
      <point x="1033" y="680"/>
      <point x="1011" y="707"/>
      <point x="965" y="707" type="curve" smooth="yes"/>
      <point x="924" y="707"/>
      <point x="907" y="684"/>
      <point x="907" y="643" type="curve" smooth="yes"/>
      <point x="907" y="638" type="line" smooth="yes"/>
      <point x="907" y="597"/>
      <point x="931" y="581"/>
      <point x="976" y="579" type="curve"/>
      <point x="976" y="471" type="line"/>
      <point x="949" y="444"/>
      <point x="904" y="428"/>
      <point x="850" y="428" type="curve" smooth="yes"/>
      <point x="729" y="428"/>
      <point x="661" y="501"/>
      <point x="661" y="631" type="curve" smooth="yes"/>
      <point x="661" y="638" type="line" smooth="yes"/>
      <point x="661" y="816"/>
      <point x="770" y="904"/>
      <point x="959" y="904" type="curve" smooth="yes"/>
      <point x="1162" y="904"/>
      <point x="1279" y="797"/>
      <point x="1279" y="593" type="curve" smooth="yes"/>
      <point x="1279" y="572" type="line" smooth="yes"/>
      <point x="1279" y="319"/>
      <point x="1120" y="187"/>
      <point x="843" y="187" type="curve" smooth="yes"/>
      <point x="537" y="187"/>
      <point x="360" y="338"/>
      <point x="360" y="621" type="curve" smooth="yes"/>
      <point x="360" y="642" type="line" smooth="yes"/>
      <point x="360" y="965"/>
      <point x="582" y="1145"/>
      <point x="960" y="1145" type="curve" smooth="yes"/>
      <point x="1361" y="1145"/>
      <point x="1588" y="957"/>
      <point x="1588" y="583" type="curve" smooth="yes"/>
    </contour>
  </outline>
</glyph>
<glyph name="vowelA.kn" format="2">
  <advance width="1853"/>
  <unicode hex="0C85"/>
  <outline>
    <contour>
      <point x="1366" y="447" type="line"/>
      <point x="1366" y="704" type="line"/>
      <point x="845" y="704" type="line"/>
      <point x="845" y="447" type="line"/>
    </contour>
    <contour>
      <point x="1350" y="1228" type="curve" smooth="yes"/>
      <point x="1096" y="1228"/>
      <point x="968" y="1119"/>
      <point x="968" y="921" type="curve" smooth="yes"/>
      <point x="968" y="908" type="line" smooth="yes"/>
      <point x="968" y="789"/>
      <point x="1018" y="727"/>
      <point x="1128" y="713" type="curve"/>
      <point x="1128" y="679" type="line"/>
      <point x="1358" y="679" type="line"/>
      <point x="1358" y="704" type="line"/>
      <point x="1302" y="704"/>
      <point x="1278" y="735"/>
      <point x="1278" y="807" type="curve" smooth="yes"/>
      <point x="1278" y="823" type="line" smooth="yes"/>
      <point x="1278" y="899"/>
      <point x="1303" y="935"/>
      <point x="1360" y="935" type="curve" smooth="yes"/>
      <point x="1429" y="935"/>
      <point x="1451" y="883"/>
      <point x="1451" y="756" type="curve" smooth="yes"/>
      <point x="1451" y="660" type="line" smooth="yes"/>
      <point x="1451" y="398"/>
      <point x="1281" y="275"/>
      <point x="931" y="275" type="curve" smooth="yes"/>
      <point x="568" y="275"/>
      <point x="390" y="395"/>
      <point x="390" y="633" type="curve" smooth="yes"/>
      <point x="390" y="661" type="line"/>
      <point x="54" y="679" type="line"/>
      <point x="54" y="662" type="line" smooth="yes"/>
      <point x="54" y="200"/>
      <point x="347" y="-32"/>
      <point x="934" y="-32" type="curve" smooth="yes"/>
      <point x="1510" y="-32"/>
      <point x="1795" y="193"/>
      <point x="1795" y="655" type="curve" smooth="yes"/>
      <point x="1795" y="749" type="line" smooth="yes"/>
      <point x="1795" y="1067"/>
      <point x="1651" y="1228"/>
    </contour>
    <contour>
      <point x="477" y="1228" type="curve" smooth="yes"/>
      <point x="190" y="1228"/>
      <point x="54" y="1067"/>
      <point x="54" y="756" type="curve" smooth="yes"/>
      <point x="54" y="668" type="line"/>
      <point x="386" y="656" type="line"/>
      <point x="386" y="784" type="line" smooth="yes"/>
      <point x="386" y="889"/>
      <point x="403" y="943"/>
      <point x="477" y="943" type="curve" smooth="yes"/>
      <point x="535" y="943"/>
      <point x="558" y="906"/>
      <point x="558" y="832" type="curve" smooth="yes"/>
      <point x="558" y="812" type="line" smooth="yes"/>
      <point x="558" y="742"/>
      <point x="536" y="709"/>
      <point x="478" y="709" type="curve" smooth="yes"/>
      <point x="424" y="709"/>
      <point x="382" y="739"/>
      <point x="354" y="798" type="curve"/>
      <point x="344" y="626" type="line"/>
      <point x="399" y="626" type="line"/>
      <point x="423" y="525"/>
      <point x="499" y="472"/>
      <point x="615" y="472" type="curve" smooth="yes"/>
      <point x="786" y="472"/>
      <point x="875" y="589"/>
      <point x="875" y="810" type="curve" smooth="yes"/>
      <point x="875" y="833" type="line" smooth="yes"/>
      <point x="875" y="1093"/>
      <point x="743" y="1228"/>
    </contour>
  </outline>
</glyph>
<glyph name="vowelAa.kn" format="2">
  <advance width="1828"/>
  <unicode hex="0C86"/>
  <outline>
    <contour>
      <point x="1311" y="437" type="line" smooth="yes"/>
      <point x="1361" y="437"/>
      <point x="1382" y="416"/>
      <point x="1382" y="384" type="curve" smooth="yes"/>
      <point x="1382" y="382" type="line" smooth="yes"/>
      <point x="1382" y="310"/>
      <point x="1240" y="275"/>
      <point x="978" y="275" type="curve" smooth="yes"/>
      <point x="591" y="275"/>
      <point x="403" y="392"/>
      <point x="403" y="623" type="curve" smooth="yes"/>
      <point x="403" y="661" type="line"/>
      <point x="66" y="679" type="line"/>
      <point x="66" y="652" type="line" smooth="yes"/>
      <point x="66" y="196"/>
      <point x="371" y="-32"/>
      <point x="981" y="-32" type="curve" smooth="yes"/>
      <point x="1475" y="-32"/>
      <point x="1734" y="95"/>
      <point x="1734" y="333" type="curve" smooth="yes"/>
      <point x="1734" y="340" type="line" smooth="yes"/>
      <point x="1734" y="465"/>
      <point x="1670" y="538"/>
      <point x="1543" y="553" type="curve"/>
      <point x="1543" y="562" type="line"/>
      <point x="1696" y="578"/>
      <point x="1784" y="677"/>
      <point x="1784" y="852" type="curve" smooth="yes"/>
      <point x="1784" y="865" type="line" smooth="yes"/>
      <point x="1784" y="1105"/>
      <point x="1640" y="1227"/>
      <point x="1372" y="1227" type="curve" smooth="yes"/>
      <point x="1113" y="1227"/>
      <point x="976" y="1124"/>
      <point x="976" y="920" type="curve" smooth="yes"/>
      <point x="976" y="909" type="line" smooth="yes"/>
      <point x="976" y="790"/>
      <point x="1034" y="723"/>
      <point x="1146" y="707" type="curve"/>
      <point x="1146" y="698" type="line"/>
      <point x="852" y="698" type="line"/>
      <point x="852" y="437" type="line"/>
    </contour>
    <contour>
      <point x="1456" y="802" type="line" smooth="yes"/>
      <point x="1456" y="733"/>
      <point x="1427" y="699"/>
      <point x="1373" y="699" type="curve" smooth="yes"/>
      <point x="1316" y="699"/>
      <point x="1287" y="733"/>
      <point x="1287" y="802" type="curve" smooth="yes"/>
      <point x="1287" y="836" type="line" smooth="yes"/>
      <point x="1287" y="906"/>
      <point x="1316" y="939"/>
      <point x="1371" y="939" type="curve" smooth="yes"/>
      <point x="1427" y="939"/>
      <point x="1456" y="906"/>
      <point x="1456" y="836" type="curve" smooth="yes"/>
    </contour>
    <contour>
      <point x="489" y="1228" type="curve" smooth="yes"/>
      <point x="202" y="1228"/>
      <point x="66" y="1067"/>
      <point x="66" y="756" type="curve" smooth="yes"/>
      <point x="66" y="668" type="line"/>
      <point x="398" y="656" type="line"/>
      <point x="398" y="784" type="line" smooth="yes"/>
      <point x="398" y="889"/>
      <point x="415" y="943"/>
      <point x="489" y="943" type="curve" smooth="yes"/>
      <point x="547" y="943"/>
      <point x="570" y="906"/>
      <point x="570" y="832" type="curve" smooth="yes"/>
      <point x="570" y="812" type="line" smooth="yes"/>
      <point x="570" y="742"/>
      <point x="548" y="709"/>
      <point x="490" y="709" type="curve" smooth="yes"/>
      <point x="436" y="709"/>
      <point x="394" y="739"/>
      <point x="366" y="798" type="curve"/>
      <point x="356" y="626" type="line"/>
      <point x="411" y="626" type="line"/>
      <point x="435" y="525"/>
      <point x="511" y="472"/>
      <point x="627" y="472" type="curve" smooth="yes"/>
      <point x="798" y="472"/>
      <point x="887" y="589"/>
      <point x="887" y="810" type="curve" smooth="yes"/>
      <point x="887" y="833" type="line" smooth="yes"/>
      <point x="887" y="1093"/>
      <point x="755" y="1228"/>
    </contour>
  </outline>
</glyph>
<glyph name="vowelI.kn" format="2">
  <advance width="1546"/>
  <unicode hex="0C87"/>
  <outline>
    <contour>
      <point x="1516" y="-174" type="line"/>
      <point x="1460" y="31"/>
      <point x="1379" y="223"/>
      <point x="1269" y="360" type="curve"/>
      <point x="1096" y="135" type="line"/>
      <point x="1114" y="30"/>
      <point x="1126" y="-70"/>
      <point x="1126" y="-174" type="curve"/>
    </contour>
    <contour>
      <point x="1469" y="729" type="curve" smooth="yes"/>
      <point x="1469" y="789" type="line" smooth="yes"/>
      <point x="1469" y="1082"/>
      <point x="1339" y="1228"/>
      <point x="1072" y="1228" type="curve" smooth="yes"/>
      <point x="872" y="1228"/>
      <point x="762" y="1141"/>
      <point x="743" y="986" type="curve"/>
      <point x="734" y="986" type="line"/>
      <point x="715" y="1141"/>
      <point x="603" y="1228"/>
      <point x="398" y="1228" type="curve" smooth="yes"/>
      <point x="150" y="1228"/>
      <point x="21" y="1108"/>
      <point x="21" y="869" type="curve" smooth="yes"/>
      <point x="21" y="861" type="line" smooth="yes"/>
      <point x="21" y="801"/>
      <point x="29" y="742"/>
      <point x="47" y="699" type="curve"/>
      <point x="374" y="699" type="line"/>
      <point x="367" y="722"/>
      <point x="360" y="758"/>
      <point x="360" y="799" type="curve" smooth="yes"/>
      <point x="360" y="805" type="line" smooth="yes"/>
      <point x="360" y="879"/>
      <point x="394" y="916"/>
      <point x="462" y="916" type="curve" smooth="yes"/>
      <point x="527" y="916"/>
      <point x="559" y="876"/>
      <point x="564" y="796" type="curve" smooth="yes"/>
      <point x="569" y="714" type="line"/>
      <point x="910" y="714" type="line"/>
      <point x="915" y="796" type="line" smooth="yes"/>
      <point x="920" y="875"/>
      <point x="949" y="916"/>
      <point x="1014" y="916" type="curve" smooth="yes"/>
      <point x="1086" y="916"/>
      <point x="1119" y="869"/>
      <point x="1119" y="769" type="curve" smooth="yes"/>
      <point x="1119" y="719" type="line" smooth="yes"/>
      <point x="1119" y="618"/>
      <point x="1107" y="538"/>
      <point x="1070" y="446" type="curve"/>
      <point x="1040" y="394" type="line"/>
      <point x="985" y="292"/>
      <point x="855" y="241"/>
      <point x="698" y="241" type="curve" smooth="yes"/>
      <point x="584" y="241"/>
      <point x="532" y="267"/>
      <point x="532" y="319" type="curve" smooth="yes"/>
      <point x="532" y="322" type="line" smooth="yes"/>
      <point x="532" y="374"/>
      <point x="584" y="400"/>
      <point x="698" y="400" type="curve" smooth="yes"/>
      <point x="846" y="400"/>
      <point x="942" y="353"/>
      <point x="1025" y="255" type="curve"/>
      <point x="1169" y="427" type="line"/>
      <point x="1071" y="583"/>
      <point x="918" y="663"/>
      <point x="658" y="663" type="curve" smooth="yes"/>
      <point x="357" y="663"/>
      <point x="195" y="555"/>
      <point x="195" y="321" type="curve" smooth="yes"/>
      <point x="195" y="316" type="line" smooth="yes"/>
      <point x="195" y="79"/>
      <point x="361" y="-31"/>
      <point x="682" y="-31" type="curve" smooth="yes"/>
      <point x="888" y="-31"/>
      <point x="1082" y="21"/>
      <point x="1189" y="122" type="curve"/>
      <point x="1291" y="194" type="line"/>
      <point x="1412" y="328"/>
      <point x="1469" y="512"/>
    </contour>
  </outline>
</glyph>
<glyph name="vowelUu.kn" format="2">
  <advance width="3380"/>
  <unicode hex="0C8A"/>
  <outline>
    <contour>
      <point x="2369" y="553" type="line"/>
      <point x="2369" y="398" type="line" smooth="yes"/>
      <point x="2369" y="115"/>
      <point x="2226" y="-32"/>
      <point x="1939" y="-32" type="curve" smooth="yes"/>
      <point x="1660" y="-32"/>
      <point x="1519" y="115"/>
      <point x="1519" y="398" type="curve" smooth="yes"/>
      <point x="1519" y="652" type="line"/>
      <point x="1857" y="642" type="line"/>
      <point x="1857" y="396" type="line" smooth="yes"/>
      <point x="1857" y="304"/>
      <point x="1880" y="263"/>
      <point x="1942" y="263" type="curve" smooth="yes"/>
      <point x="2006" y="263"/>
      <point x="2030" y="304"/>
      <point x="2030" y="396" type="curve" smooth="yes"/>
      <point x="2030" y="553" type="line"/>
    </contour>
    <contour>
      <point x="498" y="1228" type="curve" smooth="yes"/>
      <point x="770" y="1228"/>
      <point x="905" y="1090"/>
      <point x="905" y="829" type="curve" smooth="yes"/>
      <point x="905" y="802" type="line" smooth="yes"/>
      <point x="905" y="579"/>
      <point x="813" y="461"/>
      <point x="636" y="461" type="curve" smooth="yes"/>
      <point x="515" y="461"/>
      <point x="437" y="515"/>
      <point x="412" y="616" type="curve"/>
      <point x="358" y="616" type="line"/>
      <point x="368" y="788" type="line"/>
      <point x="397" y="729"/>
      <point x="442" y="698"/>
      <point x="499" y="698" type="curve" smooth="yes"/>
      <point x="562" y="698"/>
      <point x="586" y="732"/>
      <point x="586" y="805" type="curve" smooth="yes"/>
      <point x="586" y="829" type="line" smooth="yes"/>
      <point x="586" y="905"/>
      <point x="561" y="942"/>
      <point x="498" y="942" type="curve" smooth="yes"/>
      <point x="418" y="942"/>
      <point x="400" y="887"/>
      <point x="400" y="779" type="curve" smooth="yes"/>
      <point x="400" y="676" type="line"/>
      <point x="68" y="643" type="line"/>
      <point x="68" y="754" type="line" smooth="yes"/>
      <point x="68" y="1067"/>
      <point x="208" y="1228"/>
    </contour>
    <contour>
      <point x="403" y="604" type="line" smooth="yes"/>
      <point x="403" y="386"/>
      <point x="499" y="276"/>
      <point x="700" y="276" type="curve" smooth="yes"/>
      <point x="899" y="276"/>
      <point x="992" y="383"/>
      <point x="992" y="592" type="curve" smooth="yes"/>
      <point x="992" y="774" type="line" smooth="yes"/>
      <point x="992" y="1072"/>
      <point x="1136" y="1225"/>
      <point x="1425" y="1225" type="curve" smooth="yes"/>
      <point x="1715" y="1225"/>
      <point x="1857" y="1072"/>
      <point x="1857" y="774" type="curve" smooth="yes"/>
      <point x="1857" y="632" type="line"/>
      <point x="1519" y="632" type="line"/>
      <point x="1519" y="776" type="line" smooth="yes"/>
      <point x="1519" y="881"/>
      <point x="1495" y="929"/>
      <point x="1425" y="929" type="curve" smooth="yes"/>
      <point x="1355" y="929"/>
      <point x="1330" y="883"/>
      <point x="1330" y="776" type="curve" smooth="yes"/>
      <point x="1330" y="582" type="line" smooth="yes"/>
      <point x="1330" y="175"/>
      <point x="1124" y="-32"/>
      <point x="702" y="-32" type="curve" smooth="yes"/>
      <point x="275" y="-32"/>
      <point x="68" y="182"/>
      <point x="68" y="602" type="curve" smooth="yes"/>
      <point x="68" y="651" type="line"/>
      <point x="403" y="684" type="line"/>
    </contour>
    <contour>
      <point x="2666" y="1228" type="curve" smooth="yes"/>
      <point x="3090" y="1228"/>
      <point x="3303" y="1011"/>
      <point x="3303" y="595" type="curve" smooth="yes"/>
      <point x="3303" y="524" type="line"/>
      <point x="2963" y="502" type="line"/>
      <point x="2963" y="599" type="line" smooth="yes"/>
      <point x="2963" y="817"/>
      <point x="2876" y="933"/>
      <point x="2667" y="933" type="curve" smooth="yes"/>
      <point x="2457" y="933"/>
      <point x="2369" y="821"/>
      <point x="2369" y="599" type="curve" smooth="yes"/>
      <point x="2369" y="533" type="line"/>
      <point x="2031" y="533" type="line"/>
      <point x="2031" y="604" type="line" smooth="yes"/>
      <point x="2031" y="1015"/>
      <point x="2242" y="1228"/>
    </contour>
    <contour>
      <point x="3303" y="431" type="line" smooth="yes"/>
      <point x="3303" y="126"/>
      <point x="3169" y="-32"/>
      <point x="2878" y="-32" type="curve" smooth="yes"/>
      <point x="2599" y="-32"/>
      <point x="2469" y="100"/>
      <point x="2469" y="352" type="curve" smooth="yes"/>
      <point x="2469" y="382" type="line" smooth="yes"/>
      <point x="2469" y="615"/>
      <point x="2551" y="742"/>
      <point x="2739" y="742" type="curve" smooth="yes"/>
      <point x="2858" y="742"/>
      <point x="2930" y="682"/>
      <point x="2954" y="566" type="curve"/>
      <point x="3009" y="566" type="line"/>
      <point x="2996" y="393" type="line"/>
      <point x="2970" y="456"/>
      <point x="2930" y="487"/>
      <point x="2879" y="487" type="curve" smooth="yes"/>
      <point x="2815" y="487"/>
      <point x="2793" y="450"/>
      <point x="2793" y="375" type="curve" smooth="yes"/>
      <point x="2793" y="353" type="line" smooth="yes"/>
      <point x="2793" y="280"/>
      <point x="2819" y="246"/>
      <point x="2879" y="246" type="curve" smooth="yes"/>
      <point x="2948" y="246"/>
      <point x="2966" y="294"/>
      <point x="2966" y="393" type="curve" smooth="yes"/>
      <point x="2966" y="509" type="line"/>
      <point x="3303" y="529" type="line"/>
    </contour>
  </outline>
</glyph>
<glyph name="vowelLru.kn" format="2">
  <advance width="1652"/>
  <unicode hex="0C8C"/>
  <outline>
    <contour>
      <point x="482" y="0" type="line"/>
      <point x="432" y="112"/>
      <point x="411" y="248"/>
      <point x="411" y="331" type="curve" smooth="yes"/>
      <point x="411" y="386" type="line" smooth="yes"/>
      <point x="411" y="499"/>
      <point x="452" y="549"/>
      <point x="539" y="549" type="curve" smooth="yes"/>
      <point x="619" y="549"/>
      <point x="655" y="497"/>
      <point x="658" y="393" type="curve" smooth="yes"/>
      <point x="668" y="2" type="line"/>
      <point x="984" y="2" type="line"/>
      <point x="994" y="393" type="line" smooth="yes"/>
      <point x="997" y="497"/>
      <point x="1034" y="549"/>
      <point x="1114" y="549" type="curve" smooth="yes"/>
      <point x="1201" y="549"/>
      <point x="1242" y="499"/>
      <point x="1242" y="386" type="curve" smooth="yes"/>
      <point x="1242" y="331" type="line" smooth="yes"/>
      <point x="1242" y="248"/>
      <point x="1221" y="112"/>
      <point x="1171" y="0" type="curve"/>
      <point x="1509" y="0" type="line"/>
      <point x="1565" y="97"/>
      <point x="1585" y="239"/>
      <point x="1585" y="353" type="curve" smooth="yes"/>
      <point x="1585" y="417" type="line" smooth="yes"/>
      <point x="1585" y="700"/>
      <point x="1466" y="846"/>
      <point x="1230" y="846" type="curve" smooth="yes"/>
      <point x="1088" y="846"/>
      <point x="1012" y="789"/>
      <point x="975" y="700" type="curve"/>
      <point x="966" y="702" type="line"/>
      <point x="984" y="796"/>
      <point x="997" y="891"/>
      <point x="997" y="1012" type="curve" smooth="yes"/>
      <point x="997" y="1191" type="line"/>
      <point x="656" y="1191" type="line"/>
      <point x="656" y="1011" type="line" smooth="yes"/>
      <point x="656" y="890"/>
      <point x="669" y="796"/>
      <point x="687" y="702" type="curve"/>
      <point x="678" y="700" type="line"/>
      <point x="642" y="789"/>
      <point x="564" y="846"/>
      <point x="423" y="846" type="curve" smooth="yes"/>
      <point x="188" y="846"/>
      <point x="68" y="700"/>
      <point x="68" y="417" type="curve" smooth="yes"/>
      <point x="68" y="353" type="line" smooth="yes"/>
      <point x="68" y="239"/>
      <point x="88" y="97"/>
      <point x="144" y="0" type="curve"/>
    </contour>
  </outline>
  <guideline angle="90" x="1352" y="0"/>
</glyph>
<glyph name="vowelE.kn" format="2">
  <advance width="1645"/>
  <unicode hex="0C8E"/>
  <outline>
    <contour>
      <point x="1179" y="-32" type="curve" smooth="yes"/>
      <point x="1435" y="-32"/>
      <point x="1569" y="120"/>
      <point x="1569" y="419" type="curve" smooth="yes"/>
      <point x="1569" y="476" type="line" smooth="yes"/>
      <point x="1569" y="991"/>
      <point x="1260" y="1248"/>
      <point x="598" y="1248" type="curve" smooth="yes"/>
      <point x="563" y="1248"/>
      <point x="495" y="1249"/>
      <point x="469" y="1249" type="curve"/>
      <point x="369" y="958" type="line"/>
      <point x="411" y="958"/>
      <point x="497" y="958"/>
      <point x="538" y="958" type="curve" smooth="yes"/>
      <point x="1018" y="958"/>
      <point x="1219" y="807"/>
      <point x="1219" y="477" type="curve" smooth="yes"/>
      <point x="1219" y="431" type="line" smooth="yes"/>
      <point x="1219" y="331"/>
      <point x="1186" y="281"/>
      <point x="1114" y="281" type="curve" smooth="yes"/>
      <point x="1045" y="281"/>
      <point x="1010" y="323"/>
      <point x="1005" y="408" type="curve" smooth="yes"/>
      <point x="1000" y="499" type="line"/>
      <point x="660" y="499" type="line"/>
      <point x="655" y="414" type="line" smooth="yes"/>
      <point x="650" y="321"/>
      <point x="602" y="274"/>
      <point x="513" y="274" type="curve" smooth="yes"/>
      <point x="438" y="274"/>
      <point x="404" y="307"/>
      <point x="404" y="372" type="curve" smooth="yes"/>
      <point x="404" y="375" type="line" smooth="yes"/>
      <point x="404" y="438"/>
      <point x="434" y="467"/>
      <point x="499" y="467" type="curve" smooth="yes"/>
      <point x="528" y="467"/>
      <point x="557" y="462"/>
      <point x="580" y="453" type="curve"/>
      <point x="563" y="739" type="line"/>
      <point x="520" y="755"/>
      <point x="475" y="763"/>
      <point x="412" y="763" type="curve" smooth="yes"/>
      <point x="185" y="763"/>
      <point x="63" y="629"/>
      <point x="63" y="385" type="curve" smooth="yes"/>
      <point x="63" y="361" type="line" smooth="yes"/>
      <point x="63" y="103"/>
      <point x="201" y="-32"/>
      <point x="466" y="-32" type="curve" smooth="yes"/>
      <point x="688" y="-32"/>
      <point x="806" y="61"/>
      <point x="825" y="233" type="curve"/>
      <point x="834" y="233" type="line"/>
      <point x="852" y="61"/>
      <point x="968" y="-32"/>
    </contour>
  </outline>
</glyph>
<glyph name="vowelEe.kn" format="2">
  <advance width="1645"/>
  <unicode hex="0C8F"/>
  <outline>
    <contour>
      <point x="1219" y="477" type="curve" smooth="yes"/>
      <point x="1219" y="431" type="line" smooth="yes"/>
      <point x="1219" y="331"/>
      <point x="1186" y="281"/>
      <point x="1114" y="281" type="curve" smooth="yes"/>
      <point x="1045" y="281"/>
      <point x="1010" y="323"/>
      <point x="1005" y="408" type="curve" smooth="yes"/>
      <point x="1000" y="499" type="line"/>
      <point x="660" y="499" type="line"/>
      <point x="655" y="414" type="line" smooth="yes"/>
      <point x="650" y="321"/>
      <point x="602" y="274"/>
      <point x="513" y="274" type="curve" smooth="yes"/>
      <point x="438" y="274"/>
      <point x="404" y="307"/>
      <point x="404" y="372" type="curve" smooth="yes"/>
      <point x="404" y="375" type="line" smooth="yes"/>
      <point x="404" y="438"/>
      <point x="434" y="467"/>
      <point x="499" y="467" type="curve" smooth="yes"/>
      <point x="528" y="467"/>
      <point x="557" y="462"/>
      <point x="580" y="453" type="curve"/>
      <point x="563" y="739" type="line"/>
      <point x="520" y="755"/>
      <point x="475" y="763"/>
      <point x="412" y="763" type="curve" smooth="yes"/>
      <point x="185" y="763"/>
      <point x="63" y="629"/>
      <point x="63" y="385" type="curve" smooth="yes"/>
      <point x="63" y="361" type="line" smooth="yes"/>
      <point x="63" y="103"/>
      <point x="201" y="-32"/>
      <point x="466" y="-32" type="curve" smooth="yes"/>
      <point x="688" y="-32"/>
      <point x="806" y="61"/>
      <point x="825" y="233" type="curve"/>
      <point x="834" y="233" type="line"/>
      <point x="852" y="61"/>
      <point x="968" y="-32"/>
      <point x="1179" y="-32" type="curve" smooth="yes"/>
      <point x="1435" y="-32"/>
      <point x="1569" y="120"/>
      <point x="1569" y="419" type="curve" smooth="yes"/>
      <point x="1569" y="472" type="line" smooth="yes"/>
      <point x="1569" y="990"/>
      <point x="1326" y="1238"/>
      <point x="809" y="1254" type="curve"/>
      <point x="860" y="937" type="line"/>
      <point x="1107" y="918"/>
      <point x="1219" y="780"/>
    </contour>
    <contour>
      <point x="645" y="806" type="curve" smooth="yes"/>
      <point x="874" y="806"/>
      <point x="1032" y="910"/>
      <point x="1032" y="1170" type="curve"/>
      <point x="809" y="1254" type="line"/>
      <point x="809" y="1244" type="line" smooth="yes"/>
      <point x="809" y="1145"/>
      <point x="756" y="1094"/>
      <point x="667" y="1094" type="curve" smooth="yes"/>
      <point x="573" y="1094"/>
      <point x="524" y="1144"/>
      <point x="524" y="1244" type="curve" smooth="yes"/>
      <point x="524" y="1255" type="line"/>
      <point x="190" y="1222" type="line"/>
      <point x="190" y="1204" type="line" smooth="yes"/>
      <point x="190" y="937"/>
      <point x="356" y="806"/>
    </contour>
  </outline>
</glyph>
<glyph name="vowelAi.kn" format="2">
  <advance width="1676"/>
  <unicode hex="0C90"/>
  <outline>
    <contour>
      <point x="1179" y="1229" type="curve" smooth="yes"/>
      <point x="975" y="1229"/>
      <point x="864" y="1141"/>
      <point x="843" y="984" type="curve"/>
      <point x="834" y="984" type="line"/>
      <point x="813" y="1141"/>
      <point x="701" y="1228"/>
      <point x="495" y="1228" type="curve" smooth="yes"/>
      <point x="239" y="1228"/>
      <point x="106" y="1090"/>
      <point x="106" y="815" type="curve" smooth="yes"/>
      <point x="106" y="782" type="line"/>
      <point x="447" y="782" type="line"/>
      <point x="447" y="798" type="line" smooth="yes"/>
      <point x="447" y="878"/>
      <point x="485" y="915"/>
      <point x="554" y="915" type="curve" smooth="yes"/>
      <point x="626" y="915"/>
      <point x="659" y="872"/>
      <point x="664" y="785" type="curve" smooth="yes"/>
      <point x="669" y="709" type="line"/>
      <point x="1009" y="709" type="line"/>
      <point x="1014" y="783" type="line" smooth="yes"/>
      <point x="1020" y="872"/>
      <point x="1054" y="916"/>
      <point x="1129" y="916" type="curve" smooth="yes"/>
      <point x="1212" y="916"/>
      <point x="1248" y="857"/>
      <point x="1248" y="733" type="curve" smooth="yes"/>
      <point x="1248" y="443" type="line" smooth="yes"/>
      <point x="1248" y="335"/>
      <point x="1214" y="281"/>
      <point x="1128" y="281" type="curve" smooth="yes"/>
      <point x="1056" y="281"/>
      <point x="1019" y="323"/>
      <point x="1014" y="408" type="curve" smooth="yes"/>
      <point x="1009" y="499" type="line"/>
      <point x="669" y="499" type="line"/>
      <point x="664" y="414" type="line" smooth="yes"/>
      <point x="659" y="321"/>
      <point x="610" y="274"/>
      <point x="519" y="274" type="curve" smooth="yes"/>
      <point x="442" y="274"/>
      <point x="407" y="304"/>
      <point x="407" y="362" type="curve" smooth="yes"/>
      <point x="407" y="365" type="line" smooth="yes"/>
      <point x="407" y="421"/>
      <point x="438" y="447"/>
      <point x="506" y="447" type="curve" smooth="yes"/>
      <point x="535" y="447"/>
      <point x="564" y="442"/>
      <point x="587" y="433" type="curve"/>
      <point x="570" y="719" type="line"/>
      <point x="527" y="735"/>
      <point x="482" y="743"/>
      <point x="419" y="743" type="curve" smooth="yes"/>
      <point x="189" y="743"/>
      <point x="66" y="611"/>
      <point x="66" y="371" type="curve" smooth="yes"/>
      <point x="66" y="355" type="line" smooth="yes"/>
      <point x="66" y="101"/>
      <point x="205" y="-32"/>
      <point x="472" y="-32" type="curve" smooth="yes"/>
      <point x="696" y="-32"/>
      <point x="815" y="61"/>
      <point x="834" y="233" type="curve"/>
      <point x="843" y="233" type="line"/>
      <point x="861" y="61"/>
      <point x="979" y="-32"/>
      <point x="1193" y="-32" type="curve" smooth="yes"/>
      <point x="1461" y="-32"/>
      <point x="1598" y="124"/>
      <point x="1598" y="431" type="curve" smooth="yes"/>
      <point x="1598" y="730" type="line" smooth="yes"/>
      <point x="1598" y="1063"/>
      <point x="1466" y="1229"/>
    </contour>
  </outline>
  <guideline angle="90" x="996" y="0"/>
  <guideline angle="90" x="1034" y="0"/>
</glyph>
<glyph name="vowelOo.kn" format="2">
  <advance width="1633"/>
  <unicode hex="0C93"/>
  <outline>
    <component base="vowelO.kn"/>
    <contour>
      <point x="621" y="1674" type="curve" smooth="yes"/>
      <point x="356" y="1674"/>
      <point x="214" y="1564"/>
      <point x="214" y="1378" type="curve" smooth="yes"/>
      <point x="214" y="1372" type="line" smooth="yes"/>
      <point x="214" y="1238"/>
      <point x="290" y="1150"/>
      <point x="447" y="1132" type="curve"/>
      <point x="606" y="1213" type="line"/>
      <point x="545" y="1232"/>
      <point x="525" y="1265"/>
      <point x="525" y="1305" type="curve" smooth="yes"/>
      <point x="525" y="1308" type="line" smooth="yes"/>
      <point x="525" y="1370"/>
      <point x="557" y="1400"/>
      <point x="625" y="1400" type="curve" smooth="yes"/>
      <point x="693" y="1400"/>
      <point x="728" y="1371"/>
      <point x="728" y="1311" type="curve" smooth="yes"/>
      <point x="728" y="1308" type="line" smooth="yes"/>
      <point x="728" y="1286"/>
      <point x="724" y="1268"/>
      <point x="719" y="1253" type="curve"/>
      <point x="1009" y="1253" type="line"/>
      <point x="1019" y="1277"/>
      <point x="1026" y="1314"/>
      <point x="1026" y="1356" type="curve" smooth="yes"/>
      <point x="1026" y="1362" type="line" smooth="yes"/>
      <point x="1026" y="1563"/>
      <point x="885" y="1674"/>
    </contour>
  </outline>
  <guideline angle="90" x="869" y="0"/>
</glyph>
<glyph name="vowelAu.kn" format="2">
  <advance width="1825"/>
  <unicode hex="0C94"/>
  <outline>
    <contour>
      <point x="1235" y="410" type="curve" smooth="yes"/>
      <point x="1235" y="405" type="line" smooth="yes"/>
      <point x="1235" y="323"/>
      <point x="1199" y="281"/>
      <point x="1124" y="281" type="curve" smooth="yes"/>
      <point x="1045" y="281"/>
      <point x="1010" y="326"/>
      <point x="1005" y="414" type="curve" smooth="yes"/>
      <point x="1002" y="470" type="line"/>
      <point x="820" y="470" type="line"/>
      <point x="834" y="247" type="line" smooth="yes"/>
      <point x="848" y="65"/>
      <point x="966" y="-32"/>
      <point x="1190" y="-32" type="curve" smooth="yes"/>
      <point x="1447" y="-32"/>
      <point x="1583" y="98"/>
      <point x="1583" y="341" type="curve" smooth="yes"/>
      <point x="1583" y="348" type="line" smooth="yes"/>
      <point x="1583" y="400"/>
      <point x="1575" y="449"/>
      <point x="1558" y="494" type="curve"/>
      <point x="1225" y="494" type="line"/>
      <point x="1232" y="468"/>
      <point x="1235" y="435"/>
    </contour>
    <contour>
      <point x="493" y="1228" type="curve" smooth="yes"/>
      <point x="223" y="1228"/>
      <point x="78" y="1112"/>
      <point x="78" y="879" type="curve" smooth="yes"/>
      <point x="78" y="868" type="line" smooth="yes"/>
      <point x="78" y="801"/>
      <point x="94" y="738"/>
      <point x="114" y="701" type="curve"/>
      <point x="412" y="701" type="line"/>
      <point x="392" y="737"/>
      <point x="382" y="778"/>
      <point x="382" y="833" type="curve" smooth="yes"/>
      <point x="382" y="838" type="line" smooth="yes"/>
      <point x="382" y="914"/>
      <point x="418" y="948"/>
      <point x="488" y="948" type="curve" smooth="yes"/>
      <point x="557" y="948"/>
      <point x="589" y="918"/>
      <point x="589" y="856" type="curve" smooth="yes"/>
      <point x="589" y="850" type="line" smooth="yes"/>
      <point x="589" y="790"/>
      <point x="559" y="761"/>
      <point x="452" y="721" type="curve" smooth="yes"/>
      <point x="366" y="689" type="line" smooth="yes"/>
      <point x="152" y="609"/>
      <point x="58" y="509"/>
      <point x="58" y="332" type="curve" smooth="yes"/>
      <point x="58" y="321" type="line" smooth="yes"/>
      <point x="58" y="90"/>
      <point x="201" y="-32"/>
      <point x="463" y="-32" type="curve" smooth="yes"/>
      <point x="686" y="-32"/>
      <point x="807" y="61"/>
      <point x="826" y="233" type="curve"/>
      <point x="843" y="233" type="line"/>
      <point x="843" y="470" type="line"/>
      <point x="658" y="470" type="line"/>
      <point x="655" y="414" type="line" smooth="yes"/>
      <point x="650" y="318"/>
      <point x="602" y="270"/>
      <point x="502" y="270" type="curve" smooth="yes"/>
      <point x="426" y="270"/>
      <point x="390" y="299"/>
      <point x="390" y="348" type="curve" smooth="yes"/>
      <point x="390" y="353" type="line" smooth="yes"/>
      <point x="390" y="407"/>
      <point x="427" y="430"/>
      <point x="534" y="475" type="curve" smooth="yes"/>
      <point x="625" y="513" type="line" smooth="yes"/>
      <point x="820" y="595"/>
      <point x="904" y="685"/>
      <point x="904" y="858" type="curve" smooth="yes"/>
      <point x="904" y="868" type="line" smooth="yes"/>
      <point x="904" y="1103"/>
      <point x="761" y="1228"/>
    </contour>
    <contour>
      <point x="690" y="999" type="line" smooth="yes"/>
      <point x="860" y="999"/>
      <point x="952" y="1066"/>
      <point x="952" y="1192" type="curve" smooth="yes"/>
      <point x="952" y="1196" type="line" smooth="yes"/>
      <point x="952" y="1288"/>
      <point x="902" y="1344"/>
      <point x="805" y="1359" type="curve"/>
      <point x="805" y="1401" type="line"/>
      <point x="527" y="1401" type="line"/>
      <point x="525" y="1369" type="line"/>
      <point x="589" y="1369"/>
      <point x="618" y="1346"/>
      <point x="618" y="1300" type="curve" smooth="yes"/>
      <point x="618" y="1297" type="line" smooth="yes"/>
      <point x="618" y="1250"/>
      <point x="589" y="1228"/>
      <point x="525" y="1228" type="curve" smooth="yes"/>
      <point x="493" y="1228" type="line"/>
      <point x="493" y="999" type="line"/>
    </contour>
    <contour>
      <point x="1793" y="1048" type="line"/>
      <point x="1793" y="1064" type="line" smooth="yes"/>
      <point x="1793" y="1441"/>
      <point x="1582" y="1632"/>
      <point x="1141" y="1632" type="curve" smooth="yes"/>
      <point x="157" y="1632" type="line"/>
      <point x="157" y="1369" type="line"/>
      <point x="1124" y="1369" type="line" smooth="yes"/>
      <point x="1356" y="1369"/>
      <point x="1469" y="1277"/>
      <point x="1469" y="1076" type="curve" smooth="yes"/>
      <point x="1469" y="1048" type="line"/>
    </contour>
    <contour>
      <point x="1473" y="1057" type="line"/>
      <point x="1473" y="932" type="line" smooth="yes"/>
      <point x="1473" y="848"/>
      <point x="1454" y="809"/>
      <point x="1391" y="809" type="curve" smooth="yes"/>
      <point x="1334" y="809"/>
      <point x="1307" y="838"/>
      <point x="1307" y="899" type="curve" smooth="yes"/>
      <point x="1307" y="908" type="line" smooth="yes"/>
      <point x="1307" y="963"/>
      <point x="1331" y="996"/>
      <point x="1386" y="996" type="curve" smooth="yes"/>
      <point x="1438" y="996"/>
      <point x="1471" y="971"/>
      <point x="1495" y="923" type="curve"/>
      <point x="1514" y="1078" type="line"/>
      <point x="1460" y="1078" type="line"/>
      <point x="1438" y="1183"/>
      <point x="1366" y="1235"/>
      <point x="1254" y="1235" type="curve" smooth="yes"/>
      <point x="1084" y="1235"/>
      <point x="999" y="1125"/>
      <point x="999" y="918" type="curve" smooth="yes"/>
      <point x="999" y="899" type="line" smooth="yes"/>
      <point x="999" y="669"/>
      <point x="1132" y="551"/>
      <point x="1390" y="551" type="curve" smooth="yes"/>
      <point x="1660" y="551"/>
      <point x="1793" y="693"/>
      <point x="1793" y="966" type="curve" smooth="yes"/>
      <point x="1793" y="1057" type="line"/>
    </contour>
  </outline>
  <guideline angle="90" x="1569" y="0"/>
  <guideline angle="90" x="184" y="0"/>
  <guideline angle="0" x="0" y="798"/>
</glyph>
<glyph name="Kha.kn" format="2">
  <advance width="1739"/>
  <unicode hex="0C96"/>
  <outline>
    <contour>
      <point x="481" y="-32" type="curve" smooth="yes"/>
      <point x="775" y="-32"/>
      <point x="952" y="101"/>
      <point x="952" y="338" type="curve"/>
      <point x="847" y="293" type="line"/>
      <point x="993" y="293" type="line"/>
      <point x="1010" y="360"/>
      <point x="1018" y="461"/>
      <point x="1018" y="524" type="curve" smooth="yes"/>
      <point x="1018" y="723" type="line" smooth="yes"/>
      <point x="1018" y="1055"/>
      <point x="858" y="1228"/>
      <point x="529" y="1228" type="curve" smooth="yes"/>
      <point x="232" y="1228"/>
      <point x="80" y="1094"/>
      <point x="80" y="846" type="curve" smooth="yes"/>
      <point x="80" y="835" type="line" smooth="yes"/>
      <point x="80" y="785"/>
      <point x="88" y="734"/>
      <point x="106" y="699" type="curve"/>
      <point x="429" y="699" type="line"/>
      <point x="422" y="721"/>
      <point x="415" y="754"/>
      <point x="415" y="793" type="curve" smooth="yes"/>
      <point x="415" y="797" type="line" smooth="yes"/>
      <point x="415" y="885"/>
      <point x="455" y="928"/>
      <point x="539" y="928" type="curve" smooth="yes"/>
      <point x="639" y="928"/>
      <point x="675" y="862"/>
      <point x="675" y="729" type="curve" smooth="yes"/>
      <point x="675" y="540" type="line"/>
      <point x="676" y="487"/>
      <point x="672" y="467"/>
      <point x="664" y="404" type="curve"/>
      <point x="664" y="400"/>
      <point x="664" y="374"/>
      <point x="664" y="371" type="curve"/>
      <point x="641" y="272"/>
      <point x="592" y="231"/>
      <point x="509" y="231" type="curve" smooth="yes"/>
      <point x="427" y="231"/>
      <point x="392" y="258"/>
      <point x="392" y="318" type="curve" smooth="yes"/>
      <point x="392" y="323" type="line" smooth="yes"/>
      <point x="392" y="384"/>
      <point x="428" y="413"/>
      <point x="501" y="413" type="curve" smooth="yes"/>
      <point x="575" y="413"/>
      <point x="643" y="376"/>
      <point x="676" y="324" type="curve"/>
      <point x="713" y="523" type="line"/>
      <point x="660" y="610"/>
      <point x="573" y="661"/>
      <point x="414" y="661" type="curve" smooth="yes"/>
      <point x="173" y="661"/>
      <point x="58" y="548"/>
      <point x="58" y="332" type="curve" smooth="yes"/>
      <point x="58" y="321" type="line" smooth="yes"/>
      <point x="58" y="90"/>
      <point x="199" y="-32"/>
    </contour>
    <contour>
      <point x="1250" y="-32" type="curve" smooth="yes"/>
      <point x="1528" y="-32"/>
      <point x="1659" y="137"/>
      <point x="1659" y="471" type="curve" smooth="yes"/>
      <point x="1659" y="684" type="line" smooth="yes"/>
      <point x="1659" y="1029"/>
      <point x="1520" y="1203"/>
      <point x="1231" y="1203" type="curve" smooth="yes"/>
      <point x="1189" y="1203"/>
      <point x="1151" y="1201"/>
      <point x="1114" y="1195" type="curve"/>
      <point x="1114" y="885" type="line"/>
      <point x="1126" y="888"/>
      <point x="1143" y="890"/>
      <point x="1162" y="890" type="curve" smooth="yes"/>
      <point x="1265" y="890"/>
      <point x="1309" y="827"/>
      <point x="1309" y="682" type="curve" smooth="yes"/>
      <point x="1309" y="483" type="line" smooth="yes"/>
      <point x="1309" y="345"/>
      <point x="1267" y="275"/>
      <point x="1164" y="275" type="curve" smooth="yes"/>
      <point x="1064" y="275"/>
      <point x="1018" y="335"/>
      <point x="1018" y="452" type="curve" smooth="yes"/>
      <point x="1018" y="537" type="line"/>
      <point x="890" y="512" type="line"/>
      <point x="890" y="343" type="line" smooth="yes"/>
      <point x="890" y="101"/>
      <point x="1014" y="-32"/>
    </contour>
  </outline>
  <guideline angle="90" x="278" y="0"/>
  <guideline angle="90" x="266" y="0"/>
  <guideline angle="0" x="0" y="-14"/>
  <guideline angle="0" x="0" y="471"/>
  <guideline angle="90" x="-1496" y="0"/>
</glyph>
<glyph name="Ga.kn" format="2">
  <advance width="1335"/>
  <unicode hex="0C97"/>
  <outline>
    <contour>
      <point x="329" y="941" type="line"/>
      <point x="329" y="914" type="line"/>
      <point x="173" y="883"/>
      <point x="98" y="767"/>
      <point x="98" y="546" type="curve" smooth="yes"/>
      <point x="98" y="0" type="line"/>
      <point x="450" y="0" type="line"/>
      <point x="450" y="646" type="line" smooth="yes"/>
      <point x="450" y="834"/>
      <point x="519" y="922"/>
      <point x="667" y="922" type="curve" smooth="yes"/>
      <point x="815" y="922"/>
      <point x="883" y="834"/>
      <point x="883" y="646" type="curve" smooth="yes"/>
      <point x="883" y="0" type="line"/>
      <point x="1235" y="0" type="line"/>
      <point x="1235" y="546" type="line" smooth="yes"/>
      <point x="1235" y="767"/>
      <point x="1160" y="883"/>
      <point x="1004" y="914" type="curve"/>
      <point x="1004" y="941" type="line"/>
    </contour>
    <contour>
      <point x="76" y="1191" type="line"/>
      <point x="76" y="922" type="line"/>
      <point x="942" y="922" type="line"/>
      <point x="940" y="1191" type="line"/>
    </contour>
    <contour>
      <point x="931" y="1530" type="line"/>
      <point x="952.111" y="1457"/>
      <point x="969" y="1380"/>
      <point x="969" y="1304" type="curve" smooth="yes"/>
      <point x="969" y="1221"/>
      <point x="944" y="1191"/>
      <point x="870" y="1191" type="curve" smooth="yes"/>
      <point x="846" y="1191" type="line"/>
      <point x="874" y="922" type="line"/>
      <point x="1012" y="922" type="line" smooth="yes"/>
      <point x="1195" y="922"/>
      <point x="1285" y="1023"/>
      <point x="1285" y="1227" type="curve" smooth="yes"/>
      <point x="1285" y="1327"/>
      <point x="1260.39" y="1432"/>
      <point x="1204" y="1530" type="curve"/>
    </contour>
  </outline>
</glyph>
<glyph name="Nga.kn" format="2">
  <advance width="1641"/>
  <unicode hex="0C99"/>
  <outline>
    <contour>
      <point x="1171" y="1227" type="curve" smooth="yes"/>
      <point x="931" y="1227"/>
      <point x="817" y="1124"/>
      <point x="802" y="933" type="curve"/>
      <point x="902" y="819" type="line"/>
      <point x="919" y="906"/>
      <point x="978" y="947"/>
      <point x="1076" y="947" type="curve" smooth="yes"/>
      <point x="1188" y="947"/>
      <point x="1245" y="900"/>
      <point x="1245" y="796" type="curve" smooth="yes"/>
      <point x="1245" y="793" type="line" smooth="yes"/>
      <point x="1245" y="775"/>
      <point x="1245" y="761"/>
      <point x="1243" y="747" type="curve"/>
      <point x="1561" y="747" type="line"/>
      <point x="1565" y="767"/>
      <point x="1568" y="801"/>
      <point x="1568" y="836" type="curve" smooth="yes"/>
      <point x="1568" y="842" type="line" smooth="yes"/>
      <point x="1568" y="1086"/>
      <point x="1430" y="1227"/>
    </contour>
    <contour>
      <point x="1067" y="490" type="curve" smooth="yes"/>
      <point x="1170" y="490"/>
      <point x="1224" y="542"/>
      <point x="1224" y="643" type="curve" smooth="yes"/>
      <point x="1224" y="652" type="line" smooth="yes"/>
      <point x="1224" y="752"/>
      <point x="1170" y="806"/>
      <point x="1067" y="806" type="curve" smooth="yes"/>
      <point x="965" y="806"/>
      <point x="911" y="753"/>
      <point x="911" y="653" type="curve" smooth="yes"/>
      <point x="911" y="644" type="line" smooth="yes"/>
      <point x="911" y="543"/>
      <point x="965" y="490"/>
    </contour>
    <contour>
      <point x="1235" y="410" type="curve" smooth="yes"/>
      <point x="1235" y="405" type="line" smooth="yes"/>
      <point x="1235" y="323"/>
      <point x="1199" y="281"/>
      <point x="1124" y="281" type="curve" smooth="yes"/>
      <point x="1045" y="281"/>
      <point x="1010" y="326"/>
      <point x="1005" y="414" type="curve" smooth="yes"/>
      <point x="1002" y="470" type="line"/>
      <point x="820" y="470" type="line"/>
      <point x="834" y="247" type="line" smooth="yes"/>
      <point x="848" y="65"/>
      <point x="966" y="-32"/>
      <point x="1190" y="-32" type="curve" smooth="yes"/>
      <point x="1447" y="-32"/>
      <point x="1583" y="98"/>
      <point x="1583" y="341" type="curve" smooth="yes"/>
      <point x="1583" y="348" type="line" smooth="yes"/>
      <point x="1583" y="400"/>
      <point x="1575" y="449"/>
      <point x="1558" y="494" type="curve"/>
      <point x="1225" y="494" type="line"/>
      <point x="1232" y="468"/>
      <point x="1235" y="435"/>
    </contour>
    <contour>
      <point x="493" y="1228" type="curve" smooth="yes"/>
      <point x="223" y="1228"/>
      <point x="78" y="1112"/>
      <point x="78" y="879" type="curve" smooth="yes"/>
      <point x="78" y="868" type="line" smooth="yes"/>
      <point x="78" y="801"/>
      <point x="94" y="738"/>
      <point x="114" y="701" type="curve"/>
      <point x="412" y="701" type="line"/>
      <point x="392" y="737"/>
      <point x="382" y="778"/>
      <point x="382" y="833" type="curve" smooth="yes"/>
      <point x="382" y="838" type="line" smooth="yes"/>
      <point x="382" y="914"/>
      <point x="418" y="948"/>
      <point x="488" y="948" type="curve" smooth="yes"/>
      <point x="557" y="948"/>
      <point x="589" y="918"/>
      <point x="589" y="856" type="curve" smooth="yes"/>
      <point x="589" y="850" type="line" smooth="yes"/>
      <point x="589" y="790"/>
      <point x="559" y="761"/>
      <point x="452" y="721" type="curve" smooth="yes"/>
      <point x="366" y="689" type="line" smooth="yes"/>
      <point x="152" y="609"/>
      <point x="58" y="509"/>
      <point x="58" y="332" type="curve" smooth="yes"/>
      <point x="58" y="321" type="line" smooth="yes"/>
      <point x="58" y="90"/>
      <point x="201" y="-32"/>
      <point x="463" y="-32" type="curve" smooth="yes"/>
      <point x="686" y="-32"/>
      <point x="807" y="61"/>
      <point x="826" y="233" type="curve"/>
      <point x="843" y="233" type="line"/>
      <point x="843" y="470" type="line"/>
      <point x="658" y="470" type="line"/>
      <point x="655" y="414" type="line" smooth="yes"/>
      <point x="650" y="318"/>
      <point x="602" y="270"/>
      <point x="502" y="270" type="curve" smooth="yes"/>
      <point x="426" y="270"/>
      <point x="390" y="299"/>
      <point x="390" y="348" type="curve" smooth="yes"/>
      <point x="390" y="353" type="line" smooth="yes"/>
      <point x="390" y="407"/>
      <point x="427" y="430"/>
      <point x="534" y="475" type="curve" smooth="yes"/>
      <point x="625" y="513" type="line" smooth="yes"/>
      <point x="820" y="595"/>
      <point x="904" y="685"/>
      <point x="904" y="858" type="curve" smooth="yes"/>
      <point x="904" y="868" type="line" smooth="yes"/>
      <point x="904" y="1103"/>
      <point x="761" y="1228"/>
    </contour>
  </outline>
</glyph>
<glyph name="Ca.kn" format="2">
  <advance width="1700"/>
  <unicode hex="0C9A"/>
  <outline>
    <contour>
      <point x="1323" y="495" type="line"/>
      <point x="1429" y="489" type="line"/>
      <point x="1429" y="505" type="line"/>
      <point x="1634" y="497" type="line"/>
      <point x="1634" y="753" type="line"/>
      <point x="1449" y="745" type="line"/>
      <point x="1291" y="755" type="line"/>
      <point x="1008" y="755" type="line"/>
      <point x="1008" y="495" type="line"/>
    </contour>
    <contour>
      <point x="1428" y="922" type="line"/>
      <point x="1428" y="1191" type="line"/>
      <point x="996" y="1191" type="line"/>
      <point x="996" y="922" type="line"/>
    </contour>
    <contour>
      <point x="1586" y="288" type="line" smooth="yes"/>
      <point x="1586" y="394"/>
      <point x="1536" y="478"/>
      <point x="1429" y="496" type="curve"/>
      <point x="1132" y="533" type="line"/>
      <point x="1128" y="495" type="line"/>
      <point x="1211" y="495"/>
      <point x="1246" y="461"/>
      <point x="1246" y="388" type="curve" smooth="yes"/>
      <point x="1246" y="383" type="line" smooth="yes"/>
      <point x="1246" y="313"/>
      <point x="1204" y="276"/>
      <point x="1135" y="276" type="curve" smooth="yes"/>
      <point x="1049" y="276"/>
      <point x="1011" y="322"/>
      <point x="1005" y="414" type="curve" smooth="yes"/>
      <point x="1002" y="470" type="line"/>
      <point x="820" y="470" type="line"/>
      <point x="834" y="247" type="line" smooth="yes"/>
      <point x="845" y="65"/>
      <point x="965" y="-32"/>
      <point x="1200" y="-32" type="curve" smooth="yes"/>
      <point x="1452" y="-32"/>
      <point x="1585" y="77"/>
      <point x="1585" y="281" type="curve" smooth="yes"/>
    </contour>
    <contour>
      <point x="1533" y="834" type="line"/>
      <point x="1533" y="883"/>
      <point x="1504" y="910"/>
      <point x="1446" y="917" type="curve"/>
      <point x="1445" y="954" type="line"/>
      <point x="1116" y="960" type="line"/>
      <point x="1122" y="922" type="line"/>
      <point x="1193" y="922"/>
      <point x="1220" y="893"/>
      <point x="1220" y="838" type="curve" smooth="yes"/>
      <point x="1220" y="836" type="line" smooth="yes"/>
      <point x="1220" y="783"/>
      <point x="1193" y="754"/>
      <point x="1122" y="754" type="curve"/>
      <point x="1114" y="700" type="line"/>
      <point x="1449" y="698" type="line"/>
      <point x="1449" y="753" type="line"/>
      <point x="1505" y="760"/>
      <point x="1533" y="787"/>
      <point x="1533" y="833" type="curve"/>
    </contour>
    <contour>
      <point x="493" y="1228" type="curve" smooth="yes"/>
      <point x="223" y="1228"/>
      <point x="78" y="1112"/>
      <point x="78" y="879" type="curve" smooth="yes"/>
      <point x="78" y="868" type="line" smooth="yes"/>
      <point x="78" y="801"/>
      <point x="94" y="738"/>
      <point x="114" y="701" type="curve"/>
      <point x="412" y="701" type="line"/>
      <point x="392" y="737"/>
      <point x="382" y="778"/>
      <point x="382" y="833" type="curve" smooth="yes"/>
      <point x="382" y="838" type="line" smooth="yes"/>
      <point x="382" y="914"/>
      <point x="418" y="948"/>
      <point x="488" y="948" type="curve" smooth="yes"/>
      <point x="557" y="948"/>
      <point x="589" y="918"/>
      <point x="589" y="856" type="curve" smooth="yes"/>
      <point x="589" y="850" type="line" smooth="yes"/>
      <point x="589" y="790"/>
      <point x="559" y="761"/>
      <point x="452" y="721" type="curve" smooth="yes"/>
      <point x="366" y="689" type="line" smooth="yes"/>
      <point x="152" y="609"/>
      <point x="58" y="509"/>
      <point x="58" y="332" type="curve" smooth="yes"/>
      <point x="58" y="321" type="line" smooth="yes"/>
      <point x="58" y="90"/>
      <point x="201" y="-32"/>
      <point x="463" y="-32" type="curve" smooth="yes"/>
      <point x="686" y="-32"/>
      <point x="807" y="61"/>
      <point x="826" y="233" type="curve"/>
      <point x="845" y="233" type="line"/>
      <point x="840" y="470" type="line"/>
      <point x="658" y="470" type="line"/>
      <point x="655" y="414" type="line" smooth="yes"/>
      <point x="650" y="318"/>
      <point x="602" y="270"/>
      <point x="502" y="270" type="curve" smooth="yes"/>
      <point x="426" y="270"/>
      <point x="390" y="299"/>
      <point x="390" y="348" type="curve" smooth="yes"/>
      <point x="390" y="353" type="line" smooth="yes"/>
      <point x="390" y="407"/>
      <point x="427" y="430"/>
      <point x="534" y="475" type="curve" smooth="yes"/>
      <point x="625" y="513" type="line" smooth="yes"/>
      <point x="820" y="595"/>
      <point x="904" y="685"/>
      <point x="904" y="858" type="curve" smooth="yes"/>
      <point x="904" y="868" type="line" smooth="yes"/>
      <point x="904" y="1103"/>
      <point x="761" y="1228"/>
    </contour>
    <contour>
      <point x="1317" y="1530" type="line"/>
      <point x="1338.11" y="1457"/>
      <point x="1355" y="1380"/>
      <point x="1355" y="1304" type="curve" smooth="yes"/>
      <point x="1355" y="1221"/>
      <point x="1330" y="1191"/>
      <point x="1256" y="1191" type="curve" smooth="yes"/>
      <point x="1232" y="1191" type="line"/>
      <point x="1260" y="922" type="line"/>
      <point x="1398" y="922" type="line" smooth="yes"/>
      <point x="1581" y="922"/>
      <point x="1671" y="1023"/>
      <point x="1671" y="1227" type="curve" smooth="yes"/>
      <point x="1671" y="1327"/>
      <point x="1646.39" y="1432"/>
      <point x="1590" y="1530" type="curve"/>
    </contour>
  </outline>
  <guideline angle="90" x="1485" y="0"/>
  <guideline angle="90" x="755" y="0"/>
</glyph>
<glyph name="Nya.kn" format="2">
  <advance width="2036"/>
  <unicode hex="0C9E"/>
  <outline>
    <contour>
      <point x="1670" y="805" type="curve" smooth="yes"/>
      <point x="1670" y="797" type="line" smooth="yes"/>
      <point x="1670" y="755"/>
      <point x="1663" y="717"/>
      <point x="1655" y="694" type="curve"/>
      <point x="1982" y="694" type="line"/>
      <point x="2001" y="737"/>
      <point x="2009" y="797"/>
      <point x="2009" y="859" type="curve" smooth="yes"/>
      <point x="2009" y="869" type="line" smooth="yes"/>
      <point x="2009" y="1109"/>
      <point x="1897" y="1229"/>
      <point x="1680" y="1229" type="curve" smooth="yes"/>
      <point x="1532" y="1229"/>
      <point x="1433" y="1167"/>
      <point x="1404" y="1057" type="curve"/>
      <point x="1366" y="1057" type="line"/>
      <point x="1388" y="715" type="line"/>
      <point x="1469" y="724" type="line"/>
      <point x="1469" y="805" type="line" smooth="yes"/>
      <point x="1469" y="882.006"/>
      <point x="1505" y="916"/>
      <point x="1569" y="916" type="curve" smooth="yes"/>
      <point x="1637" y="916"/>
      <point x="1670" y="879"/>
    </contour>
    <contour>
      <point x="1516" y="-174" type="line"/>
      <point x="1460" y="31"/>
      <point x="1379" y="223"/>
      <point x="1269" y="360" type="curve"/>
      <point x="1096" y="135" type="line"/>
      <point x="1114" y="30"/>
      <point x="1126" y="-70"/>
      <point x="1126" y="-174" type="curve"/>
    </contour>
    <contour>
      <point x="1014" y="916" type="curve" smooth="yes"/>
      <point x="1086" y="916"/>
      <point x="1119" y="869"/>
      <point x="1119" y="769" type="curve" smooth="yes"/>
      <point x="1119" y="719" type="line" smooth="yes"/>
      <point x="1119" y="618"/>
      <point x="1107" y="538"/>
      <point x="1070" y="446" type="curve"/>
      <point x="1040" y="394" type="line"/>
      <point x="985" y="292"/>
      <point x="855" y="241"/>
      <point x="698" y="241" type="curve" smooth="yes"/>
      <point x="584" y="241"/>
      <point x="532" y="267"/>
      <point x="532" y="319" type="curve" smooth="yes"/>
      <point x="532" y="322" type="line" smooth="yes"/>
      <point x="532" y="374"/>
      <point x="584" y="400"/>
      <point x="698" y="400" type="curve" smooth="yes"/>
      <point x="846" y="400"/>
      <point x="942" y="353"/>
      <point x="1025" y="255" type="curve"/>
      <point x="1169" y="427" type="line"/>
      <point x="1071" y="583"/>
      <point x="919" y="663"/>
      <point x="659" y="663" type="curve" smooth="yes"/>
      <point x="358" y="663"/>
      <point x="196" y="555"/>
      <point x="196" y="321" type="curve" smooth="yes"/>
      <point x="196" y="316" type="line" smooth="yes"/>
      <point x="196" y="79"/>
      <point x="362" y="-31"/>
      <point x="682" y="-31" type="curve" smooth="yes"/>
      <point x="888" y="-31"/>
      <point x="1082" y="21"/>
      <point x="1189" y="122" type="curve"/>
      <point x="1291" y="194" type="line"/>
      <point x="1412" y="328"/>
      <point x="1469" y="512"/>
      <point x="1469" y="729" type="curve" smooth="yes"/>
      <point x="1469" y="809" type="line" smooth="yes"/>
      <point x="1469" y="895"/>
      <point x="1425" y="983"/>
      <point x="1397" y="1057" type="curve" smooth="yes"/>
      <point x="1358" y="1163"/>
      <point x="1235" y="1229"/>
      <point x="1072" y="1229" type="curve" smooth="yes"/>
      <point x="872" y="1229"/>
      <point x="763" y="1142"/>
      <point x="744" y="987" type="curve"/>
      <point x="735" y="987" type="line"/>
      <point x="716" y="1142"/>
      <point x="603" y="1229"/>
      <point x="398" y="1229" type="curve" smooth="yes"/>
      <point x="150" y="1229"/>
      <point x="21" y="1109"/>
      <point x="21" y="869" type="curve" smooth="yes"/>
      <point x="21" y="861" type="line" smooth="yes"/>
      <point x="21" y="801"/>
      <point x="29" y="742"/>
      <point x="47" y="699" type="curve"/>
      <point x="374" y="699" type="line"/>
      <point x="367" y="722"/>
      <point x="360" y="758"/>
      <point x="360" y="799" type="curve" smooth="yes"/>
      <point x="360" y="805" type="line" smooth="yes"/>
      <point x="360" y="879"/>
      <point x="394" y="916"/>
      <point x="462" y="916" type="curve" smooth="yes"/>
      <point x="527" y="916"/>
      <point x="559" y="877"/>
      <point x="564" y="797" type="curve" smooth="yes"/>
      <point x="569" y="715" type="line"/>
      <point x="910" y="715" type="line"/>
      <point x="915" y="797" type="line" smooth="yes"/>
      <point x="920" y="876"/>
      <point x="949" y="916"/>
    </contour>
  </outline>
  <guideline angle="90" x="273" y="0"/>
  <guideline angle="0" x="0" y="-161"/>
  <guideline angle="0" x="0" y="1389"/>
</glyph>
<glyph name="Tta.kn" format="2">
  <advance width="1637"/>
  <unicode hex="0C9F"/>
  <outline>
    <contour>
      <point x="479" y="1229" type="curve" smooth="yes"/>
      <point x="208" y="1229"/>
      <point x="70" y="1122"/>
      <point x="70" y="907" type="curve" smooth="yes"/>
      <point x="70" y="897" type="line" smooth="yes"/>
      <point x="70" y="740"/>
      <point x="145" y="652"/>
      <point x="291" y="635" type="curve"/>
      <point x="291" y="626" type="line"/>
      <point x="143" y="608"/>
      <point x="66" y="511"/>
      <point x="66" y="344" type="curve" smooth="yes"/>
      <point x="66" y="332" type="line" smooth="yes"/>
      <point x="66" y="89"/>
      <point x="202" y="-32"/>
      <point x="470" y="-32" type="curve" smooth="yes"/>
      <point x="679" y="-32"/>
      <point x="794" y="60"/>
      <point x="813" y="222" type="curve"/>
      <point x="915" y="221" type="line"/>
      <point x="847" y="466" type="line"/>
      <point x="647" y="466" type="line"/>
      <point x="642" y="410" type="line" smooth="yes"/>
      <point x="635" y="321"/>
      <point x="604" y="276"/>
      <point x="520" y="276" type="curve" smooth="yes"/>
      <point x="442" y="276"/>
      <point x="406" y="310"/>
      <point x="406" y="382" type="curve" smooth="yes"/>
      <point x="406" y="391" type="line" smooth="yes"/>
      <point x="406" y="472"/>
      <point x="442" y="506"/>
      <point x="535" y="508" type="curve" smooth="yes"/>
      <point x="643" y="511" type="line"/>
      <point x="643" y="764" type="line"/>
      <point x="538" y="767" type="line" smooth="yes"/>
      <point x="449" y="769"/>
      <point x="411" y="791"/>
      <point x="411" y="853" type="curve" smooth="yes"/>
      <point x="411" y="857" type="line" smooth="yes"/>
      <point x="411" y="918"/>
      <point x="453" y="943"/>
      <point x="539" y="943" type="curve" smooth="yes"/>
      <point x="606" y="943"/>
      <point x="669" y="935"/>
      <point x="721" y="920" type="curve"/>
      <point x="689" y="1203" type="line"/>
      <point x="613" y="1222"/>
      <point x="546" y="1229"/>
    </contour>
    <contour>
      <point x="1156" y="1229" type="curve" smooth="yes"/>
      <point x="1090" y="1229"/>
      <point x="1022" y="1222"/>
      <point x="946" y="1203" type="curve"/>
      <point x="915" y="920" type="line"/>
      <point x="968" y="935"/>
      <point x="1029" y="943"/>
      <point x="1096" y="943" type="curve" smooth="yes"/>
      <point x="1182" y="943"/>
      <point x="1224" y="918"/>
      <point x="1224" y="857" type="curve" smooth="yes"/>
      <point x="1224" y="853" type="line" smooth="yes"/>
      <point x="1224" y="791"/>
      <point x="1187" y="768"/>
      <point x="1098" y="766" type="curve" smooth="yes"/>
      <point x="993" y="764" type="line"/>
      <point x="993" y="511" type="line"/>
      <point x="1101" y="508" type="line" smooth="yes"/>
      <point x="1194" y="506"/>
      <point x="1229" y="472"/>
      <point x="1229" y="391" type="curve" smooth="yes"/>
      <point x="1229" y="383" type="line" smooth="yes"/>
      <point x="1229" y="311"/>
      <point x="1193" y="276"/>
      <point x="1115" y="276" type="curve" smooth="yes"/>
      <point x="1031" y="276"/>
      <point x="1000" y="321"/>
      <point x="993" y="410" type="curve" smooth="yes"/>
      <point x="989" y="466" type="line"/>
      <point x="799" y="466" type="line"/>
      <point x="822" y="222" type="line"/>
      <point x="842" y="60"/>
      <point x="957" y="-32"/>
      <point x="1165" y="-32" type="curve" smooth="yes"/>
      <point x="1434" y="-32"/>
      <point x="1569" y="89"/>
      <point x="1569" y="332" type="curve" smooth="yes"/>
      <point x="1569" y="344" type="line" smooth="yes"/>
      <point x="1569" y="511"/>
      <point x="1492" y="608"/>
      <point x="1344" y="626" type="curve"/>
      <point x="1344" y="635" type="line"/>
      <point x="1490" y="652"/>
      <point x="1566" y="739"/>
      <point x="1566" y="896" type="curve" smooth="yes"/>
      <point x="1566" y="906" type="line" smooth="yes"/>
      <point x="1566" y="1121"/>
      <point x="1428" y="1229"/>
    </contour>
  </outline>
</glyph>
<glyph name="Ttha.kn" format="2">
  <advance width="1387"/>
  <unicode hex="0CA0"/>
  <outline>
    <contour>
      <point x="317" y="944" type="line"/>
      <point x="317" y="914" type="line"/>
      <point x="160" y="876"/>
      <point x="78" y="754"/>
      <point x="78" y="534" type="curve" smooth="yes"/>
      <point x="78" y="487" type="line" smooth="yes"/>
      <point x="78" y="138"/>
      <point x="288.685" y="-41"/>
      <point x="693" y="-41" type="curve" smooth="yes"/>
      <point x="1097.31" y="-41"/>
      <point x="1308" y="138"/>
      <point x="1308" y="487" type="curve" smooth="yes"/>
      <point x="1308" y="535" type="line" smooth="yes"/>
      <point x="1308" y="755"/>
      <point x="1226" y="876"/>
      <point x="1069" y="914" type="curve"/>
      <point x="1069" y="944" type="line"/>
    </contour>
    <contour>
      <point x="79" y="1191" type="line"/>
      <point x="79" y="922" type="line"/>
      <point x="948" y="922" type="line"/>
      <point x="948" y="1191" type="line"/>
    </contour>
    <contour>
      <point x="693" y="775" type="curve" smooth="yes"/>
      <point x="585" y="775"/>
      <point x="528" y="716"/>
      <point x="528" y="606" type="curve" smooth="yes"/>
      <point x="528" y="598" type="line" smooth="yes"/>
      <point x="528" y="488"/>
      <point x="585" y="429"/>
      <point x="693" y="429" type="curve" smooth="yes"/>
      <point x="802" y="429"/>
      <point x="858" y="487"/>
      <point x="858" y="598" type="curve" smooth="yes"/>
      <point x="858" y="606" type="line" smooth="yes"/>
      <point x="858" y="716"/>
      <point x="802" y="775"/>
    </contour>
    <contour>
      <point x="958" y="628" type="curve" smooth="yes"/>
      <point x="958" y="560" type="line" smooth="yes"/>
      <point x="958" y="366"/>
      <point x="876.384" y="266"/>
      <point x="693" y="266" type="curve" smooth="yes"/>
      <point x="510.624" y="266"/>
      <point x="428" y="366"/>
      <point x="428" y="560" type="curve" smooth="yes"/>
      <point x="428" y="628" type="line" smooth="yes"/>
      <point x="428" y="822"/>
      <point x="510.624" y="922"/>
      <point x="693" y="922" type="curve" smooth="yes"/>
      <point x="876.384" y="922"/>
      <point x="958" y="822"/>
    </contour>
    <contour>
      <point x="978" y="1530" type="line"/>
      <point x="999.111" y="1457"/>
      <point x="1016" y="1380"/>
      <point x="1016" y="1304" type="curve" smooth="yes"/>
      <point x="1016" y="1221"/>
      <point x="991" y="1191"/>
      <point x="917" y="1191" type="curve" smooth="yes"/>
      <point x="893" y="1191" type="line"/>
      <point x="921" y="922" type="line"/>
      <point x="1059" y="922" type="line" smooth="yes"/>
      <point x="1242" y="922"/>
      <point x="1332" y="1023"/>
      <point x="1332" y="1227" type="curve" smooth="yes"/>
      <point x="1332" y="1327"/>
      <point x="1307.39" y="1432"/>
      <point x="1251" y="1530" type="curve"/>
    </contour>
  </outline>
</glyph>
<glyph name="Ddha.kn" format="2">
  <advance width="1615"/>
  <unicode hex="0CA2"/>
  <outline>
    <contour>
      <point x="1220" y="377" type="line" smooth="yes"/>
      <point x="1220" y="304"/>
      <point x="1183" y="271"/>
      <point x="1111" y="271" type="curve" smooth="yes"/>
      <point x="1029" y="271"/>
      <point x="991" y="315"/>
      <point x="985" y="409" type="curve" smooth="yes"/>
      <point x="981" y="468" type="line"/>
      <point x="639" y="468" type="line"/>
      <point x="635" y="408" type="line" smooth="yes"/>
      <point x="629" y="324"/>
      <point x="600" y="281"/>
      <point x="531" y="281" type="curve" smooth="yes"/>
      <point x="457" y="281"/>
      <point x="428" y="332"/>
      <point x="428" y="438" type="curve" smooth="yes"/>
      <point x="428" y="533" type="line" smooth="yes"/>
      <point x="428" y="801"/>
      <point x="537" y="922"/>
      <point x="792" y="922" type="curve"/>
      <point x="792" y="949" type="line"/>
      <point x="352" y="949" type="line"/>
      <point x="352" y="914" type="line"/>
      <point x="168" y="878"/>
      <point x="78" y="743"/>
      <point x="78" y="493" type="curve" smooth="yes"/>
      <point x="78" y="410" type="line" smooth="yes"/>
      <point x="78" y="116"/>
      <point x="211" y="-32"/>
      <point x="471" y="-32" type="curve" smooth="yes"/>
      <point x="677" y="-32"/>
      <point x="788" y="58"/>
      <point x="806" y="225" type="curve"/>
      <point x="814" y="225" type="line"/>
      <point x="834" y="58"/>
      <point x="952" y="-32"/>
      <point x="1169" y="-32" type="curve" smooth="yes"/>
      <point x="1424" y="-32"/>
      <point x="1555" y="87"/>
      <point x="1555" y="329" type="curve" smooth="yes"/>
      <point x="1555" y="340" type="line" smooth="yes"/>
      <point x="1555" y="509"/>
      <point x="1478" y="604"/>
      <point x="1331" y="621" type="curve"/>
      <point x="1331" y="630" type="line"/>
      <point x="1426" y="637"/>
      <point x="1482" y="685"/>
      <point x="1482" y="768" type="curve" smooth="yes"/>
      <point x="1482" y="772" type="line" smooth="yes"/>
      <point x="1482" y="857"/>
      <point x="1420" y="905"/>
      <point x="1297" y="913" type="curve"/>
      <point x="1297" y="969" type="line"/>
      <point x="945" y="969" type="line"/>
      <point x="885" y="922" type="line"/>
      <point x="1077" y="922"/>
      <point x="1149" y="885"/>
      <point x="1149" y="819" type="curve" smooth="yes"/>
      <point x="1149" y="816" type="line" smooth="yes"/>
      <point x="1149" y="769"/>
      <point x="1122" y="746"/>
      <point x="1040" y="743" type="curve" smooth="yes"/>
      <point x="990" y="741" type="line"/>
      <point x="990" y="499" type="line"/>
      <point x="1087" y="496" type="line" smooth="yes"/>
      <point x="1183" y="493"/>
      <point x="1220" y="464"/>
      <point x="1220" y="386" type="curve" smooth="yes"/>
    </contour>
    <contour>
      <point x="1244" y="922" type="line"/>
      <point x="1234" y="1191" type="line"/>
      <point x="78" y="1191" type="line"/>
      <point x="78" y="922" type="line"/>
    </contour>
    <contour>
      <point x="810" y="-443" type="curve" smooth="yes"/>
      <point x="929.978" y="-443"/>
      <point x="992" y="-384"/>
      <point x="992" y="-267" type="curve" smooth="yes"/>
      <point x="992" y="-261" type="line" smooth="yes"/>
      <point x="992" y="-150.723"/>
      <point x="929.978" y="-48.3941"/>
      <point x="810" y="44" type="curve"/>
      <point x="691.028" y="-48.3941"/>
      <point x="629" y="-150.723"/>
      <point x="629" y="-261" type="curve" smooth="yes"/>
      <point x="629" y="-267" type="line" smooth="yes"/>
      <point x="629" y="-384"/>
      <point x="690.011" y="-443"/>
    </contour>
    <contour>
      <point x="1217" y="1530" type="line"/>
      <point x="1238.11" y="1457"/>
      <point x="1255" y="1380"/>
      <point x="1255" y="1304" type="curve" smooth="yes"/>
      <point x="1255" y="1221"/>
      <point x="1230" y="1191"/>
      <point x="1156" y="1191" type="curve" smooth="yes"/>
      <point x="1132" y="1191" type="line"/>
      <point x="1160" y="922" type="line"/>
      <point x="1298" y="922" type="line" smooth="yes"/>
      <point x="1481" y="922"/>
      <point x="1571" y="1023"/>
      <point x="1571" y="1227" type="curve" smooth="yes"/>
      <point x="1571" y="1327"/>
      <point x="1546.39" y="1432"/>
      <point x="1490" y="1530" type="curve"/>
    </contour>
  </outline>
</glyph>
<glyph name="Nna.kn" format="2">
  <advance width="1697"/>
  <unicode hex="0CA3"/>
  <outline>
    <contour>
      <point x="1619" y="534" type="line"/>
      <point x="1619" y="713" type="line" smooth="yes"/>
      <point x="1619" y="1055"/>
      <point x="1475" y="1229"/>
      <point x="1183" y="1229" type="curve" smooth="yes"/>
      <point x="968" y="1229"/>
      <point x="855" y="1139"/>
      <point x="836" y="978" type="curve"/>
      <point x="827" y="978" type="line"/>
      <point x="808" y="1139"/>
      <point x="692" y="1229"/>
      <point x="482" y="1229" type="curve" smooth="yes"/>
      <point x="210" y="1229"/>
      <point x="70" y="1104"/>
      <point x="70" y="852" type="curve" smooth="yes"/>
      <point x="70" y="843" type="line" smooth="yes"/>
      <point x="70" y="686"/>
      <point x="147" y="597"/>
      <point x="295" y="580" type="curve"/>
      <point x="295" y="571" type="line"/>
      <point x="146" y="554"/>
      <point x="68" y="463"/>
      <point x="68" y="301" type="curve" smooth="yes"/>
      <point x="68" y="290" type="line" smooth="yes"/>
      <point x="68" y="76"/>
      <point x="208" y="-32"/>
      <point x="483" y="-32" type="curve" smooth="yes"/>
      <point x="547" y="-32"/>
      <point x="611" y="-25"/>
      <point x="681" y="-8" type="curve"/>
      <point x="710" y="275" type="line"/>
      <point x="663" y="261"/>
      <point x="607" y="254"/>
      <point x="547" y="254" type="curve" smooth="yes"/>
      <point x="455" y="254"/>
      <point x="410" y="281"/>
      <point x="410" y="343" type="curve" smooth="yes"/>
      <point x="410" y="346" type="line" smooth="yes"/>
      <point x="410" y="411"/>
      <point x="448" y="436"/>
      <point x="542" y="439" type="curve" smooth="yes"/>
      <point x="637" y="442" type="line"/>
      <point x="637" y="695" type="line"/>
      <point x="539" y="698" type="line" smooth="yes"/>
      <point x="447" y="700"/>
      <point x="411" y="728"/>
      <point x="411" y="802" type="curve" smooth="yes"/>
      <point x="411" y="809" type="line" smooth="yes"/>
      <point x="411" y="885"/>
      <point x="451" y="921"/>
      <point x="532" y="921" type="curve" smooth="yes"/>
      <point x="611" y="921"/>
      <point x="652" y="881"/>
      <point x="658" y="797" type="curve" smooth="yes"/>
      <point x="663" y="731" type="line"/>
      <point x="1000" y="731" type="line"/>
      <point x="1005" y="789" type="line" smooth="yes"/>
      <point x="1012" y="876"/>
      <point x="1054" y="920"/>
      <point x="1136" y="920" type="curve" smooth="yes"/>
      <point x="1240" y="920"/>
      <point x="1279" y="850"/>
      <point x="1279" y="709" type="curve" smooth="yes"/>
      <point x="1279" y="492" type="line"/>
    </contour>
    <contour>
      <point x="1281" y="519" type="line"/>
      <point x="1281" y="378" type="line" smooth="yes"/>
      <point x="1281" y="286"/>
      <point x="1264" y="244"/>
      <point x="1195" y="244" type="curve" smooth="yes"/>
      <point x="1135" y="244"/>
      <point x="1109" y="277"/>
      <point x="1109" y="343" type="curve" smooth="yes"/>
      <point x="1109" y="351" type="line" smooth="yes"/>
      <point x="1109" y="419"/>
      <point x="1131" y="453"/>
      <point x="1195" y="453" type="curve" smooth="yes"/>
      <point x="1246" y="453"/>
      <point x="1285" y="424"/>
      <point x="1311" y="368" type="curve"/>
      <point x="1324" y="542" type="line"/>
      <point x="1270" y="542" type="line"/>
      <point x="1246" y="650"/>
      <point x="1174" y="707"/>
      <point x="1055" y="707" type="curve" smooth="yes"/>
      <point x="870" y="707"/>
      <point x="788" y="586"/>
      <point x="788" y="360" type="curve" smooth="yes"/>
      <point x="788" y="340" type="line" smooth="yes"/>
      <point x="788" y="95"/>
      <point x="916" y="-32"/>
      <point x="1193" y="-32" type="curve" smooth="yes"/>
      <point x="1484" y="-32"/>
      <point x="1619" y="126"/>
      <point x="1619" y="431" type="curve" smooth="yes"/>
      <point x="1619" y="539" type="line"/>
    </contour>
  </outline>
  <guideline angle="90" x="676" y="0"/>
</glyph>
<glyph name="Tha.kn" format="2">
  <advance width="1616"/>
  <unicode hex="0CA5"/>
  <outline>
    <contour>
      <point x="807" y="520" type="curve" smooth="yes"/>
      <point x="921" y="520"/>
      <point x="980" y="575"/>
      <point x="980" y="681" type="curve" smooth="yes"/>
      <point x="980" y="689" type="line" smooth="yes"/>
      <point x="980" y="794"/>
      <point x="920" y="849"/>
      <point x="806" y="849" type="curve" smooth="yes"/>
      <point x="694" y="849"/>
      <point x="635" y="794"/>
      <point x="635" y="689" type="curve" smooth="yes"/>
      <point x="635" y="681" type="line" smooth="yes"/>
      <point x="635" y="576"/>
      <point x="695" y="520"/>
    </contour>
    <contour>
      <point x="1197" y="922" type="line"/>
      <point x="1197" y="1191" type="line"/>
      <point x="78" y="1191" type="line"/>
      <point x="78" y="922" type="line"/>
    </contour>
    <contour>
      <point x="428" y="532" type="line" smooth="yes"/>
      <point x="428" y="801"/>
      <point x="536" y="922"/>
      <point x="792" y="922" type="curve"/>
      <point x="792" y="949" type="line"/>
      <point x="352" y="949" type="line"/>
      <point x="352" y="914" type="line"/>
      <point x="168" y="878"/>
      <point x="78" y="743"/>
      <point x="78" y="493" type="curve" smooth="yes"/>
      <point x="78" y="410" type="line" smooth="yes"/>
      <point x="78" y="117"/>
      <point x="210" y="-32"/>
      <point x="469" y="-32" type="curve" smooth="yes"/>
      <point x="674" y="-32"/>
      <point x="785" y="58"/>
      <point x="803" y="225" type="curve"/>
      <point x="812" y="225" type="line"/>
      <point x="831" y="58"/>
      <point x="941" y="-32"/>
      <point x="1145" y="-32" type="curve" smooth="yes"/>
      <point x="1405" y="-32"/>
      <point x="1537" y="117"/>
      <point x="1537" y="410" type="curve" smooth="yes"/>
      <point x="1537" y="493" type="line" smooth="yes"/>
      <point x="1537" y="743"/>
      <point x="1447" y="878"/>
      <point x="1262" y="914" type="curve"/>
      <point x="1262" y="949" type="line"/>
      <point x="822" y="949" type="line"/>
      <point x="822" y="922" type="line"/>
      <point x="1079" y="922"/>
      <point x="1187" y="801"/>
      <point x="1187" y="532" type="curve" smooth="yes"/>
      <point x="1187" y="438" type="line" smooth="yes"/>
      <point x="1187" y="332"/>
      <point x="1157" y="281"/>
      <point x="1083" y="281" type="curve" smooth="yes"/>
      <point x="1016" y="281"/>
      <point x="988" y="323"/>
      <point x="983" y="407" type="curve" smooth="yes"/>
      <point x="979" y="462" type="line"/>
      <point x="635" y="462" type="line"/>
      <point x="632" y="407" type="line" smooth="yes"/>
      <point x="627" y="323"/>
      <point x="599" y="281"/>
      <point x="531" y="281" type="curve" smooth="yes"/>
      <point x="457" y="281"/>
      <point x="428" y="332"/>
      <point x="428" y="438" type="curve" smooth="yes"/>
    </contour>
    <contour>
      <point x="807" y="-443" type="curve" smooth="yes"/>
      <point x="926.978" y="-443"/>
      <point x="989" y="-384"/>
      <point x="989" y="-267" type="curve" smooth="yes"/>
      <point x="989" y="-261" type="line" smooth="yes"/>
      <point x="989" y="-150.723"/>
      <point x="926.978" y="-48.3941"/>
      <point x="807" y="44" type="curve"/>
      <point x="688.028" y="-48.3941"/>
      <point x="626" y="-150.723"/>
      <point x="626" y="-261" type="curve" smooth="yes"/>
      <point x="626" y="-267" type="line" smooth="yes"/>
      <point x="626" y="-384"/>
      <point x="687.011" y="-443"/>
    </contour>
    <contour>
      <point x="1193" y="1530" type="line"/>
      <point x="1214.11" y="1457"/>
      <point x="1231" y="1380"/>
      <point x="1231" y="1304" type="curve" smooth="yes"/>
      <point x="1231" y="1221"/>
      <point x="1206" y="1191"/>
      <point x="1132" y="1191" type="curve" smooth="yes"/>
      <point x="1108" y="1191" type="line"/>
      <point x="1136" y="922" type="line"/>
      <point x="1274" y="922" type="line" smooth="yes"/>
      <point x="1457" y="922"/>
      <point x="1547" y="1023"/>
      <point x="1547" y="1227" type="curve" smooth="yes"/>
      <point x="1547" y="1327"/>
      <point x="1522.39" y="1432"/>
      <point x="1466" y="1530" type="curve"/>
    </contour>
  </outline>
  <guideline angle="90" x="729" y="0"/>
  <guideline angle="90" x="808" y="0"/>
  <guideline angle="0" x="0" y="-274"/>
  <guideline angle="90" x="111" y="0"/>
</glyph>
<glyph name="Da.kn" format="2">
  <advance width="1616"/>
  <unicode hex="0CA6"/>
  <outline>
    <contour>
      <point x="428" y="532" type="line" smooth="yes"/>
      <point x="428" y="801"/>
      <point x="536" y="922"/>
      <point x="792" y="922" type="curve"/>
      <point x="792" y="949" type="line"/>
      <point x="352" y="949" type="line"/>
      <point x="352" y="914" type="line"/>
      <point x="168" y="878"/>
      <point x="78" y="743"/>
      <point x="78" y="493" type="curve" smooth="yes"/>
      <point x="78" y="410" type="line" smooth="yes"/>
      <point x="78" y="117"/>
      <point x="210" y="-32"/>
      <point x="469" y="-32" type="curve" smooth="yes"/>
      <point x="674" y="-32"/>
      <point x="785" y="58"/>
      <point x="803" y="225" type="curve"/>
      <point x="812" y="225" type="line"/>
      <point x="831" y="58"/>
      <point x="941" y="-32"/>
      <point x="1145" y="-32" type="curve" smooth="yes"/>
      <point x="1405" y="-32"/>
      <point x="1537" y="117"/>
      <point x="1537" y="410" type="curve" smooth="yes"/>
      <point x="1537" y="493" type="line" smooth="yes"/>
      <point x="1537" y="743"/>
      <point x="1447" y="878"/>
      <point x="1262" y="914" type="curve"/>
      <point x="1262" y="949" type="line"/>
      <point x="822" y="949" type="line"/>
      <point x="822" y="922" type="line"/>
      <point x="1079" y="922"/>
      <point x="1187" y="801"/>
      <point x="1187" y="532" type="curve" smooth="yes"/>
      <point x="1187" y="438" type="line" smooth="yes"/>
      <point x="1187" y="332"/>
      <point x="1157" y="281"/>
      <point x="1083" y="281" type="curve" smooth="yes"/>
      <point x="1016" y="281"/>
      <point x="988" y="323"/>
      <point x="983" y="407" type="curve" smooth="yes"/>
      <point x="977" y="499" type="line"/>
      <point x="637" y="499" type="line"/>
      <point x="632" y="407" type="line" smooth="yes"/>
      <point x="627" y="323"/>
      <point x="599" y="281"/>
      <point x="531" y="281" type="curve" smooth="yes"/>
      <point x="457" y="281"/>
      <point x="428" y="332"/>
      <point x="428" y="438" type="curve" smooth="yes"/>
    </contour>
    <contour>
      <point x="1197" y="922" type="line"/>
      <point x="1197" y="1191" type="line"/>
      <point x="78" y="1191" type="line"/>
      <point x="78" y="922" type="line"/>
    </contour>
    <contour>
      <point x="1193" y="1530" type="line"/>
      <point x="1214.11" y="1457"/>
      <point x="1231" y="1380"/>
      <point x="1231" y="1304" type="curve" smooth="yes"/>
      <point x="1231" y="1221"/>
      <point x="1206" y="1191"/>
      <point x="1132" y="1191" type="curve" smooth="yes"/>
      <point x="1108" y="1191" type="line"/>
      <point x="1136" y="922" type="line"/>
      <point x="1274" y="922" type="line" smooth="yes"/>
      <point x="1457" y="922"/>
      <point x="1547" y="1023"/>
      <point x="1547" y="1227" type="curve" smooth="yes"/>
      <point x="1547" y="1327"/>
      <point x="1522.39" y="1432"/>
      <point x="1466" y="1530" type="curve"/>
    </contour>
  </outline>
</glyph>
<glyph name="Na.kn" format="2">
  <advance width="1529"/>
  <unicode hex="0CA8"/>
  <outline>
    <contour>
      <point x="1016" y="-32" type="curve" smooth="yes"/>
      <point x="1297" y="-32"/>
      <point x="1451" y="120"/>
      <point x="1451" y="398" type="curve" smooth="yes"/>
      <point x="1451" y="444" type="line" smooth="yes"/>
      <point x="1451" y="737"/>
      <point x="1345" y="884"/>
      <point x="1119" y="913" type="curve"/>
      <point x="1119" y="948" type="line"/>
      <point x="565" y="947" type="line"/>
      <point x="565" y="922" type="line"/>
      <point x="947" y="922"/>
      <point x="1101" y="780"/>
      <point x="1101" y="470" type="curve" smooth="yes"/>
      <point x="1101" y="424" type="line" smooth="yes"/>
      <point x="1101" y="327"/>
      <point x="1070" y="272"/>
      <point x="998" y="272" type="curve" smooth="yes"/>
      <point x="940" y="272"/>
      <point x="908" y="296"/>
      <point x="880" y="379" type="curve" smooth="yes"/>
      <point x="849" y="471" type="line" smooth="yes"/>
      <point x="788" y="651"/>
      <point x="682" y="743"/>
      <point x="464" y="743" type="curve" smooth="yes"/>
      <point x="209" y="743"/>
      <point x="67" y="609"/>
      <point x="67" y="341" type="curve" smooth="yes"/>
      <point x="67" y="313" type="line" smooth="yes"/>
      <point x="67" y="171"/>
      <point x="94" y="60"/>
      <point x="135" y="-19" type="curve"/>
      <point x="477" y="-19" type="line"/>
      <point x="437" y="67"/>
      <point x="406" y="195"/>
      <point x="406" y="306" type="curve" smooth="yes"/>
      <point x="406" y="329" type="line" smooth="yes"/>
      <point x="406" y="410"/>
      <point x="428" y="445"/>
      <point x="482" y="445" type="curve" smooth="yes"/>
      <point x="527" y="445"/>
      <point x="548" y="421"/>
      <point x="572" y="343" type="curve" smooth="yes"/>
      <point x="602" y="246" type="line" smooth="yes"/>
      <point x="663" y="53"/>
      <point x="797" y="-32"/>
    </contour>
    <contour>
      <point x="1079" y="922" type="line"/>
      <point x="1074" y="1191" type="line"/>
      <point x="101" y="1191" type="line"/>
      <point x="101" y="922" type="line"/>
    </contour>
    <contour>
      <point x="1106" y="1530" type="line"/>
      <point x="1127.11" y="1457"/>
      <point x="1144" y="1380"/>
      <point x="1144" y="1304" type="curve" smooth="yes"/>
      <point x="1144" y="1221"/>
      <point x="1119" y="1191"/>
      <point x="1045" y="1191" type="curve" smooth="yes"/>
      <point x="1021" y="1191" type="line"/>
      <point x="1049" y="922" type="line"/>
      <point x="1187" y="922" type="line" smooth="yes"/>
      <point x="1370" y="922"/>
      <point x="1460" y="1023"/>
      <point x="1460" y="1227" type="curve" smooth="yes"/>
      <point x="1460" y="1327"/>
      <point x="1435.39" y="1432"/>
      <point x="1379" y="1530" type="curve"/>
    </contour>
  </outline>
</glyph>
<glyph name="Pha.kn" format="2">
  <advance width="1651"/>
  <unicode hex="0CAB"/>
  <anchor x="832" y="0" name="nukta"/>
  <outline>
    <contour>
      <point x="414" y="763" type="curve" smooth="yes"/>
      <point x="187" y="763"/>
      <point x="65" y="629"/>
      <point x="65" y="385" type="curve" smooth="yes"/>
      <point x="65" y="361" type="line" smooth="yes"/>
      <point x="65" y="103"/>
      <point x="203" y="-32"/>
      <point x="468" y="-32" type="curve" smooth="yes"/>
      <point x="690" y="-32"/>
      <point x="808" y="61"/>
      <point x="827" y="233" type="curve"/>
      <point x="836" y="233" type="line"/>
      <point x="854" y="61"/>
      <point x="972" y="-32"/>
      <point x="1186" y="-32" type="curve" smooth="yes"/>
      <point x="1445" y="-32"/>
      <point x="1581" y="117"/>
      <point x="1581" y="404" type="curve" smooth="yes"/>
      <point x="1581" y="440" type="line" smooth="yes"/>
      <point x="1581" y="594"/>
      <point x="1544" y="710"/>
      <point x="1481" y="807" type="curve"/>
      <point x="1147" y="807" type="line"/>
      <point x="1201" y="718"/>
      <point x="1233" y="605"/>
      <point x="1233" y="470" type="curve" smooth="yes"/>
      <point x="1233" y="436" type="line" smooth="yes"/>
      <point x="1233" y="332"/>
      <point x="1198" y="281"/>
      <point x="1121" y="281" type="curve" smooth="yes"/>
      <point x="1049" y="281"/>
      <point x="1012" y="325"/>
      <point x="1007" y="413" type="curve" smooth="yes"/>
      <point x="1002" y="499" type="line"/>
      <point x="662" y="499" type="line"/>
      <point x="657" y="414" type="line" smooth="yes"/>
      <point x="652" y="321"/>
      <point x="604" y="274"/>
      <point x="515" y="274" type="curve" smooth="yes"/>
      <point x="440" y="274"/>
      <point x="406" y="307"/>
      <point x="406" y="372" type="curve" smooth="yes"/>
      <point x="406" y="375" type="line" smooth="yes"/>
      <point x="406" y="438"/>
      <point x="436" y="467"/>
      <point x="501" y="467" type="curve" smooth="yes"/>
      <point x="530" y="467"/>
      <point x="559" y="462"/>
      <point x="582" y="453" type="curve"/>
      <point x="565" y="739" type="line"/>
      <point x="522" y="755"/>
      <point x="477" y="763"/>
    </contour>
    <contour>
      <point x="1202" y="922" type="line"/>
      <point x="1202" y="1191" type="line"/>
      <point x="122" y="1191" type="line"/>
      <point x="122" y="922" type="line"/>
    </contour>
    <contour>
      <point x="832" y="610" type="curve" smooth="yes"/>
      <point x="950" y="610"/>
      <point x="1012" y="669"/>
      <point x="1012" y="783" type="curve" smooth="yes"/>
      <point x="1012" y="790" type="line" smooth="yes"/>
      <point x="1012" y="905"/>
      <point x="950" y="965"/>
      <point x="832" y="965" type="curve" smooth="yes"/>
      <point x="715" y="965"/>
      <point x="653" y="906"/>
      <point x="653" y="791" type="curve" smooth="yes"/>
      <point x="653" y="784" type="line" smooth="yes"/>
      <point x="653" y="670"/>
      <point x="715" y="610"/>
    </contour>
    <contour>
      <point x="1223" y="1530" type="line"/>
      <point x="1244.11" y="1457"/>
      <point x="1261" y="1380"/>
      <point x="1261" y="1304" type="curve" smooth="yes"/>
      <point x="1261" y="1221"/>
      <point x="1236" y="1191"/>
      <point x="1162" y="1191" type="curve" smooth="yes"/>
      <point x="1138" y="1191" type="line"/>
      <point x="1166" y="922" type="line"/>
      <point x="1304" y="922" type="line" smooth="yes"/>
      <point x="1487" y="922"/>
      <point x="1577" y="1023"/>
      <point x="1577" y="1227" type="curve" smooth="yes"/>
      <point x="1577" y="1327"/>
      <point x="1552.39" y="1432"/>
      <point x="1496" y="1530" type="curve"/>
    </contour>
    <contour>
      <point x="832" y="-443" type="curve" smooth="yes"/>
      <point x="951.978" y="-443"/>
      <point x="1014" y="-384"/>
      <point x="1014" y="-267" type="curve" smooth="yes"/>
      <point x="1014" y="-261" type="line" smooth="yes"/>
      <point x="1014" y="-150.723"/>
      <point x="951.978" y="-48.3941"/>
      <point x="832" y="44" type="curve"/>
      <point x="713.028" y="-48.3941"/>
      <point x="651" y="-150.723"/>
      <point x="651" y="-261" type="curve" smooth="yes"/>
      <point x="651" y="-267" type="line" smooth="yes"/>
      <point x="651" y="-384"/>
      <point x="712.011" y="-443"/>
    </contour>
  </outline>
</glyph>
<glyph name="Ba.kn" format="2">
  <advance width="1672"/>
  <unicode hex="0CAC"/>
  <outline>
    <contour>
      <point x="1164" y="1203" type="curve" smooth="yes"/>
      <point x="1122" y="1203"/>
      <point x="1084" y="1201"/>
      <point x="1047" y="1195" type="curve"/>
      <point x="1047" y="885" type="line"/>
      <point x="1059" y="888"/>
      <point x="1076" y="890"/>
      <point x="1095" y="890" type="curve" smooth="yes"/>
      <point x="1203" y="890"/>
      <point x="1242" y="827"/>
      <point x="1242" y="682" type="curve" smooth="yes"/>
      <point x="1242" y="471" type="line" smooth="yes"/>
      <point x="1242" y="345"/>
      <point x="1207" y="281"/>
      <point x="1121" y="281" type="curve" smooth="yes"/>
      <point x="1044" y="281"/>
      <point x="1010" y="325"/>
      <point x="1005" y="413" type="curve" smooth="yes"/>
      <point x="1002" y="470" type="line"/>
      <point x="820" y="470" type="line"/>
      <point x="835" y="233" type="line"/>
      <point x="854" y="61"/>
      <point x="971" y="-32"/>
      <point x="1187" y="-32" type="curve" smooth="yes"/>
      <point x="1457" y="-32"/>
      <point x="1592" y="138"/>
      <point x="1592" y="465" type="curve" smooth="yes"/>
      <point x="1592" y="683" type="line" smooth="yes"/>
      <point x="1592" y="1028"/>
      <point x="1458" y="1203"/>
    </contour>
    <contour>
      <point x="493" y="1228" type="curve" smooth="yes"/>
      <point x="223" y="1228"/>
      <point x="78" y="1112"/>
      <point x="78" y="879" type="curve" smooth="yes"/>
      <point x="78" y="868" type="line" smooth="yes"/>
      <point x="78" y="801"/>
      <point x="94" y="738"/>
      <point x="114" y="701" type="curve"/>
      <point x="412" y="701" type="line"/>
      <point x="392" y="737"/>
      <point x="382" y="778"/>
      <point x="382" y="833" type="curve" smooth="yes"/>
      <point x="382" y="838" type="line" smooth="yes"/>
      <point x="382" y="914"/>
      <point x="418" y="948"/>
      <point x="488" y="948" type="curve" smooth="yes"/>
      <point x="557" y="948"/>
      <point x="589" y="918"/>
      <point x="589" y="856" type="curve" smooth="yes"/>
      <point x="589" y="850" type="line" smooth="yes"/>
      <point x="589" y="790"/>
      <point x="559" y="761"/>
      <point x="452" y="721" type="curve" smooth="yes"/>
      <point x="366" y="689" type="line" smooth="yes"/>
      <point x="152" y="609"/>
      <point x="58" y="509"/>
      <point x="58" y="332" type="curve" smooth="yes"/>
      <point x="58" y="321" type="line" smooth="yes"/>
      <point x="58" y="90"/>
      <point x="201" y="-32"/>
      <point x="463" y="-32" type="curve" smooth="yes"/>
      <point x="686" y="-32"/>
      <point x="807" y="61"/>
      <point x="826" y="233" type="curve"/>
      <point x="845" y="233" type="line"/>
      <point x="840" y="470" type="line"/>
      <point x="658" y="470" type="line"/>
      <point x="655" y="414" type="line" smooth="yes"/>
      <point x="650" y="318"/>
      <point x="602" y="270"/>
      <point x="502" y="270" type="curve" smooth="yes"/>
      <point x="426" y="270"/>
      <point x="390" y="299"/>
      <point x="390" y="348" type="curve" smooth="yes"/>
      <point x="390" y="353" type="line" smooth="yes"/>
      <point x="390" y="407"/>
      <point x="427" y="430"/>
      <point x="534" y="475" type="curve" smooth="yes"/>
      <point x="625" y="513" type="line" smooth="yes"/>
      <point x="820" y="595"/>
      <point x="904" y="685"/>
      <point x="904" y="858" type="curve" smooth="yes"/>
      <point x="904" y="868" type="line" smooth="yes"/>
      <point x="904" y="1103"/>
      <point x="761" y="1228"/>
    </contour>
  </outline>
</glyph>
<glyph name="Ya.kn" format="2">
  <advance width="2656"/>
  <unicode hex="0CAF"/>
  <outline>
    <component base="matraU.kn" xOffset="1978"/>
    <contour>
      <point x="1318" y="941" type="line"/>
      <point x="1318" y="922" type="line"/>
      <point x="1472" y="922"/>
      <point x="1545" y="832"/>
      <point x="1545" y="649" type="curve" smooth="yes"/>
      <point x="1545" y="500" type="line" smooth="yes"/>
      <point x="1545" y="352"/>
      <point x="1498" y="276"/>
      <point x="1374" y="276" type="curve" smooth="yes"/>
      <point x="1259" y="276"/>
      <point x="1212" y="344.963"/>
      <point x="1212" y="465" type="curve" smooth="yes"/>
      <point x="1212" y="535" type="line"/>
      <point x="1091" y="535" type="line"/>
      <point x="1091" y="361" type="line" smooth="yes"/>
      <point x="1091" y="108"/>
      <point x="1215" y="-32"/>
      <point x="1465" y="-32" type="curve" smooth="yes"/>
      <point x="1758" y="-32"/>
      <point x="1895" y="145.999"/>
      <point x="1895" y="488" type="curve" smooth="yes"/>
      <point x="1895" y="558" type="line" smooth="yes"/>
      <point x="1895" y="771"/>
      <point x="1822" y="885"/>
      <point x="1661" y="915" type="curve"/>
      <point x="1661" y="941" type="line"/>
    </contour>
    <contour>
      <point x="1289" y="1191" type="line"/>
      <point x="1289" y="922" type="line"/>
      <point x="1558" y="922" type="line"/>
      <point x="1555" y="1191" type="line"/>
    </contour>
    <contour>
      <point x="1213" y="683" type="line" smooth="yes"/>
      <point x="1213" y="1051"/>
      <point x="1018" y="1239"/>
      <point x="646" y="1239" type="curve" smooth="yes"/>
      <point x="275" y="1239"/>
      <point x="78" y="1051"/>
      <point x="78" y="683" type="curve" smooth="yes"/>
      <point x="78" y="524" type="line" smooth="yes"/>
      <point x="78" y="155"/>
      <point x="276" y="-34"/>
      <point x="646" y="-34" type="curve" smooth="yes"/>
      <point x="1016" y="-34"/>
      <point x="1213" y="157"/>
      <point x="1213" y="530" type="curve" smooth="yes"/>
    </contour>
    <contour>
      <point x="646" y="272" type="curve" smooth="yes"/>
      <point x="502" y="272"/>
      <point x="427" y="358"/>
      <point x="427" y="525" type="curve" smooth="yes"/>
      <point x="427" y="680" type="line" smooth="yes"/>
      <point x="427" y="847"/>
      <point x="502" y="934"/>
      <point x="646" y="934" type="curve" smooth="yes"/>
      <point x="791" y="934"/>
      <point x="864" y="847"/>
      <point x="864" y="680" type="curve" smooth="yes"/>
      <point x="864" y="525" type="line" smooth="yes"/>
      <point x="864" y="358"/>
      <point x="791" y="272"/>
    </contour>
    <contour>
      <point x="1566" y="1530" type="line"/>
      <point x="1587.11" y="1457"/>
      <point x="1604" y="1380"/>
      <point x="1604" y="1304" type="curve" smooth="yes"/>
      <point x="1604" y="1221"/>
      <point x="1579" y="1191"/>
      <point x="1505" y="1191" type="curve" smooth="yes"/>
      <point x="1481" y="1191" type="line"/>
      <point x="1509" y="922" type="line"/>
      <point x="1647" y="922" type="line" smooth="yes"/>
      <point x="1830" y="922"/>
      <point x="1920" y="1023"/>
      <point x="1920" y="1227" type="curve" smooth="yes"/>
      <point x="1920" y="1327"/>
      <point x="1895.39" y="1432"/>
      <point x="1839" y="1530" type="curve"/>
    </contour>
  </outline>
</glyph>
<glyph name="Ra.kn" format="2">
  <advance width="1359"/>
  <unicode hex="0CB0"/>
  <outline>
    <contour>
      <point x="317" y="944" type="line"/>
      <point x="317" y="914" type="line"/>
      <point x="160" y="878"/>
      <point x="78" y="757"/>
      <point x="78" y="540" type="curve" smooth="yes"/>
      <point x="78" y="482" type="line" smooth="yes"/>
      <point x="78" y="137"/>
      <point x="284.343" y="-41"/>
      <point x="679" y="-41" type="curve" smooth="yes"/>
      <point x="1073.66" y="-41"/>
      <point x="1280" y="137"/>
      <point x="1280" y="482" type="curve" smooth="yes"/>
      <point x="1280" y="540" type="line" smooth="yes"/>
      <point x="1280" y="757"/>
      <point x="1198" y="878"/>
      <point x="1041" y="914" type="curve"/>
      <point x="1041" y="944" type="line"/>
    </contour>
    <contour>
      <point x="679" y="266" type="curve" smooth="yes"/>
      <point x="506.312" y="266"/>
      <point x="428" y="363"/>
      <point x="428" y="551" type="curve" smooth="yes"/>
      <point x="428" y="637" type="line" smooth="yes"/>
      <point x="428" y="825"/>
      <point x="506.312" y="922"/>
      <point x="679" y="922" type="curve" smooth="yes"/>
      <point x="852.692" y="922"/>
      <point x="930" y="825"/>
      <point x="930" y="637" type="curve" smooth="yes"/>
      <point x="930" y="551" type="line" smooth="yes"/>
      <point x="930" y="363"/>
      <point x="852.692" y="266"/>
    </contour>
    <contour>
      <point x="938" y="922" type="line"/>
      <point x="938" y="1191" type="line"/>
      <point x="78" y="1191" type="line"/>
      <point x="78" y="922" type="line"/>
    </contour>
    <contour>
      <point x="950" y="1530" type="line"/>
      <point x="971.111" y="1457"/>
      <point x="988" y="1380"/>
      <point x="988" y="1304" type="curve" smooth="yes"/>
      <point x="988" y="1221"/>
      <point x="963" y="1191"/>
      <point x="889" y="1191" type="curve" smooth="yes"/>
      <point x="865" y="1191" type="line"/>
      <point x="893" y="922" type="line"/>
      <point x="1031" y="922" type="line" smooth="yes"/>
      <point x="1214" y="922"/>
      <point x="1304" y="1023"/>
      <point x="1304" y="1227" type="curve" smooth="yes"/>
      <point x="1304" y="1327"/>
      <point x="1279.39" y="1432"/>
      <point x="1223" y="1530" type="curve"/>
    </contour>
  </outline>
</glyph>
<glyph name="La.kn" format="2">
  <advance width="1593"/>
  <unicode hex="0CB2"/>
  <outline>
    <contour>
      <point x="396" y="676" type="line"/>
      <point x="396" y="774" type="line" smooth="yes"/>
      <point x="396" y="885"/>
      <point x="415" y="942"/>
      <point x="499" y="942" type="curve" smooth="yes"/>
      <point x="566" y="942"/>
      <point x="592" y="904"/>
      <point x="592" y="826" type="curve" smooth="yes"/>
      <point x="592" y="808" type="line" smooth="yes"/>
      <point x="592" y="733"/>
      <point x="567" y="699"/>
      <point x="500" y="699" type="curve" smooth="yes"/>
      <point x="441" y="699"/>
      <point x="394" y="730"/>
      <point x="364" y="791" type="curve"/>
      <point x="354" y="616" type="line"/>
      <point x="413" y="616" type="line"/>
      <point x="439" y="515"/>
      <point x="517" y="461"/>
      <point x="640" y="461" type="curve" smooth="yes"/>
      <point x="819" y="461"/>
      <point x="911" y="580"/>
      <point x="911" y="805" type="curve" smooth="yes"/>
      <point x="911" y="826" type="line" smooth="yes"/>
      <point x="911" y="1089"/>
      <point x="775" y="1228"/>
      <point x="499" y="1228" type="curve" smooth="yes"/>
      <point x="206" y="1228"/>
      <point x="64" y="1065"/>
      <point x="64" y="749" type="curve" smooth="yes"/>
      <point x="64" y="643" type="line"/>
    </contour>
    <contour>
      <point x="64" y="676" type="line"/>
      <point x="64" y="624" type="line" smooth="yes"/>
      <point x="64" y="187"/>
      <point x="312" y="-34"/>
      <point x="798" y="-34" type="curve" smooth="yes"/>
      <point x="1279" y="-34"/>
      <point x="1520" y="178"/>
      <point x="1520" y="603" type="curve" smooth="yes"/>
      <point x="1520" y="711" type="line" smooth="yes"/>
      <point x="1520" y="1037"/>
      <point x="1382" y="1207"/>
      <point x="1098" y="1207" type="curve" smooth="yes"/>
      <point x="1061" y="1207"/>
      <point x="1026" y="1205"/>
      <point x="995" y="1199" type="curve"/>
      <point x="995" y="890" type="line"/>
      <point x="1006" y="892"/>
      <point x="1017" y="893"/>
      <point x="1031" y="893" type="curve" smooth="yes"/>
      <point x="1126" y="893"/>
      <point x="1170" y="836"/>
      <point x="1170" y="714" type="curve" smooth="yes"/>
      <point x="1170" y="613" type="line" smooth="yes"/>
      <point x="1170" y="389"/>
      <point x="1055" y="274"/>
      <point x="797" y="274" type="curve" smooth="yes"/>
      <point x="534" y="274"/>
      <point x="404" y="387"/>
      <point x="404" y="615" type="curve" smooth="yes"/>
      <point x="404" y="681" type="line"/>
    </contour>
  </outline>
</glyph>
<glyph name="Sa.kn" format="2">
  <advance width="1518"/>
  <unicode hex="0CB8"/>
  <outline>
    <contour>
      <point x="1122" y="922" type="line"/>
      <point x="1122" y="1191" type="line"/>
      <point x="88" y="1191" type="line"/>
      <point x="88" y="922" type="line"/>
    </contour>
    <contour>
      <point x="742" y="636" type="curve" smooth="yes"/>
      <point x="860" y="636"/>
      <point x="922" y="695"/>
      <point x="922" y="809" type="curve" smooth="yes"/>
      <point x="922" y="816" type="line" smooth="yes"/>
      <point x="922" y="931"/>
      <point x="860" y="991"/>
      <point x="742" y="991" type="curve" smooth="yes"/>
      <point x="625" y="991"/>
      <point x="563" y="932"/>
      <point x="563" y="817" type="curve" smooth="yes"/>
      <point x="563" y="810" type="line" smooth="yes"/>
      <point x="563" y="696"/>
      <point x="625" y="636"/>
    </contour>
    <contour>
      <point x="1446" y="405" type="curve" smooth="yes"/>
      <point x="1446" y="440" type="line" smooth="yes"/>
      <point x="1446" y="594.013"/>
      <point x="1409" y="710"/>
      <point x="1346" y="807" type="curve"/>
      <point x="1012" y="807" type="line"/>
      <point x="1066" y="718"/>
      <point x="1098" y="605"/>
      <point x="1098" y="470" type="curve" smooth="yes"/>
      <point x="1098" y="438" type="line" smooth="yes"/>
      <point x="1098" y="330"/>
      <point x="1064" y="272"/>
      <point x="988" y="272" type="curve" smooth="yes"/>
      <point x="928" y="272"/>
      <point x="891" y="299"/>
      <point x="856" y="367" type="curve" smooth="yes"/>
      <point x="838" y="402" type="line" smooth="yes"/>
      <point x="755" y="566"/>
      <point x="657" y="659"/>
      <point x="440" y="659" type="curve" smooth="yes"/>
      <point x="192" y="659"/>
      <point x="54" y="530"/>
      <point x="54" y="276" type="curve" smooth="yes"/>
      <point x="54" y="262" type="line" smooth="yes"/>
      <point x="54" y="141"/>
      <point x="81" y="43"/>
      <point x="120" y="-20" type="curve"/>
      <point x="462" y="-20" type="line"/>
      <point x="423" y="50"/>
      <point x="394" y="156"/>
      <point x="394" y="247" type="curve" smooth="yes"/>
      <point x="394" y="257" type="line" smooth="yes"/>
      <point x="394" y="329"/>
      <point x="417" y="360"/>
      <point x="468" y="360" type="curve" smooth="yes"/>
      <point x="513" y="360"/>
      <point x="535" y="334"/>
      <point x="566" y="269" type="curve" smooth="yes"/>
      <point x="583" y="233" type="line" smooth="yes"/>
      <point x="666" y="58"/>
      <point x="784" y="-32"/>
      <point x="1009" y="-32" type="curve" smooth="yes"/>
      <point x="1298" y="-32"/>
      <point x="1446" y="121.984"/>
    </contour>
    <contour>
      <point x="1092" y="1530" type="line"/>
      <point x="1113.11" y="1457"/>
      <point x="1130" y="1380"/>
      <point x="1130" y="1304" type="curve" smooth="yes"/>
      <point x="1130" y="1221"/>
      <point x="1105" y="1191"/>
      <point x="1031" y="1191" type="curve" smooth="yes"/>
      <point x="1007" y="1191" type="line"/>
      <point x="1035" y="922" type="line"/>
      <point x="1173" y="922" type="line" smooth="yes"/>
      <point x="1356" y="922"/>
      <point x="1446" y="1023"/>
      <point x="1446" y="1227" type="curve" smooth="yes"/>
      <point x="1446" y="1327"/>
      <point x="1421.39" y="1432"/>
      <point x="1365" y="1530" type="curve"/>
    </contour>
  </outline>
</glyph>
<glyph name="Nukta1.kn" format="2">
  <unicode hex="0CBC"/>
  <anchor x="-1" y="0" name="_nukta"/>
  <outline>
    <contour>
      <point x="-250" y="-107" type="curve" smooth="yes"/>
      <point x="-347" y="-107"/>
      <point x="-405" y="-161"/>
      <point x="-405" y="-260" type="curve" smooth="yes"/>
      <point x="-405" y="-360"/>
      <point x="-347" y="-412"/>
      <point x="-250" y="-412" type="curve" smooth="yes"/>
      <point x="-154" y="-412"/>
      <point x="-95" y="-360"/>
      <point x="-95" y="-260" type="curve" smooth="yes"/>
      <point x="-95" y="-161"/>
      <point x="-154" y="-107"/>
    </contour>
    <contour>
      <point x="250" y="-107" type="curve" smooth="yes"/>
      <point x="154" y="-107"/>
      <point x="95" y="-161"/>
      <point x="95" y="-260" type="curve" smooth="yes"/>
      <point x="95" y="-360"/>
      <point x="154" y="-412"/>
      <point x="250" y="-412" type="curve" smooth="yes"/>
      <point x="347" y="-412"/>
      <point x="405" y="-360"/>
      <point x="405" y="-260" type="curve" smooth="yes"/>
      <point x="405" y="-161"/>
      <point x="347" y="-107"/>
    </contour>
  </outline>
</glyph>
<glyph name="Avagraha" format="2">
  <advance width="965"/>
  <unicode hex="0CBD"/>
  <outline>
    <contour>
      <point x="842" y="1191" type="line"/>
      <point x="453" y="1191" type="line" smooth="yes"/>
      <point x="182" y="1191"/>
      <point x="43" y="1085"/>
      <point x="43" y="872" type="curve" smooth="yes"/>
      <point x="43" y="865" type="line" smooth="yes"/>
      <point x="43" y="489"/>
      <point x="561" y="521"/>
      <point x="561" y="357" type="curve" smooth="yes"/>
      <point x="561" y="354" type="line" smooth="yes"/>
      <point x="561" y="295"/>
      <point x="511" y="268"/>
      <point x="400" y="268" type="curve" smooth="yes"/>
      <point x="279" y="268"/>
      <point x="171" y="292"/>
      <point x="46" y="339" type="curve"/>
      <point x="91" y="30" type="line"/>
      <point x="201" y="-13"/>
      <point x="320" y="-35"/>
      <point x="463" y="-35" type="curve" smooth="yes"/>
      <point x="755" y="-35"/>
      <point x="905" y="91"/>
      <point x="905" y="330" type="curve" smooth="yes"/>
      <point x="905" y="338" type="line" smooth="yes"/>
      <point x="905" y="729"/>
      <point x="386" y="714"/>
      <point x="386" y="856" type="curve"/>
      <point x="386" y="857" type="line"/>
      <point x="386" y="899"/>
      <point x="413" y="921"/>
      <point x="476" y="921" type="curve" smooth="yes"/>
      <point x="842" y="921" type="line"/>
    </contour>
  </outline>
</glyph>
<glyph name="matraAa.kn" format="2">
  <advance width="1458"/>
  <unicode hex="0CBE"/>
  <outline>
    <contour>
      <point x="1381" y="513" type="line"/>
      <point x="1381" y="581" type="line" smooth="yes"/>
      <point x="1381" y="988"/>
      <point x="1175" y="1191"/>
      <point x="750" y="1191" type="curve" smooth="yes"/>
      <point x="49" y="1191" type="line"/>
      <point x="49" y="922" type="line"/>
      <point x="709" y="922" type="line" smooth="yes"/>
      <point x="935" y="922"/>
      <point x="1041" y="816"/>
      <point x="1041" y="594" type="curve" smooth="yes"/>
      <point x="1041" y="504" type="line"/>
    </contour>
    <contour>
      <point x="956" y="-32" type="curve" smooth="yes"/>
      <point x="1247" y="-32"/>
      <point x="1381" y="126"/>
      <point x="1381" y="431" type="curve" smooth="yes"/>
      <point x="1381" y="529" type="line"/>
      <point x="1044" y="509" type="line"/>
      <point x="1044" y="392" type="line" smooth="yes"/>
      <point x="1044" y="293"/>
      <point x="1026" y="245"/>
      <point x="957" y="245" type="curve" smooth="yes"/>
      <point x="897" y="245"/>
      <point x="871" y="280"/>
      <point x="871" y="353" type="curve" smooth="yes"/>
      <point x="871" y="375" type="line" smooth="yes"/>
      <point x="871" y="450"/>
      <point x="893" y="487"/>
      <point x="957" y="487" type="curve" smooth="yes"/>
      <point x="1008" y="487"/>
      <point x="1048" y="456"/>
      <point x="1074" y="393" type="curve"/>
      <point x="1087" y="566" type="line"/>
      <point x="1032" y="566" type="line"/>
      <point x="1008" y="682"/>
      <point x="936" y="742"/>
      <point x="817" y="742" type="curve" smooth="yes"/>
      <point x="629" y="742"/>
      <point x="547" y="615"/>
      <point x="547" y="382" type="curve" smooth="yes"/>
      <point x="547" y="352" type="line" smooth="yes"/>
      <point x="547" y="100"/>
      <point x="676" y="-32"/>
    </contour>
  </outline>
</glyph>
<glyph name="matraU.kn" format="2">
  <advance width="678"/>
  <unicode hex="0CC1"/>
  <outline>
    <contour>
      <point x="170" y="1203" type="curve" smooth="yes"/>
      <point x="128" y="1203"/>
      <point x="90" y="1201"/>
      <point x="53" y="1195" type="curve"/>
      <point x="53" y="886" type="line"/>
      <point x="69" y="889"/>
      <point x="85" y="890"/>
      <point x="101" y="890" type="curve" smooth="yes"/>
      <point x="204" y="890"/>
      <point x="248" y="828"/>
      <point x="248" y="683" type="curve" smooth="yes"/>
      <point x="248" y="500" type="line" smooth="yes"/>
      <point x="248" y="352"/>
      <point x="202" y="276"/>
      <point x="78" y="276" type="curve" smooth="yes"/>
      <point x="-37" y="276"/>
      <point x="-85" y="344.983"/>
      <point x="-85" y="465" type="curve" smooth="yes"/>
      <point x="-85" y="467" type="line"/>
      <point x="-192" y="467" type="line"/>
      <point x="-192" y="381" type="line" smooth="yes"/>
      <point x="-192" y="115"/>
      <point x="-69" y="-32"/>
      <point x="177" y="-32" type="curve" smooth="yes"/>
      <point x="463" y="-32"/>
      <point x="598" y="146"/>
      <point x="598" y="488" type="curve" smooth="yes"/>
      <point x="598" y="684" type="line" smooth="yes"/>
      <point x="598" y="1029"/>
      <point x="459" y="1203"/>
    </contour>
  </outline>
  <guideline angle="90" x="-38" y="0"/>
  <guideline angle="90" x="-110" y="0"/>
  <guideline angle="90" x="344" y="0"/>
</glyph>
<glyph name="matraUu.kn" format="2">
  <advance width="1454"/>
  <unicode hex="0CC2"/>
  <outline>
    <contour>
      <point x="10" y="275" type="curve" smooth="yes"/>
      <point x="-59" y="275"/>
      <point x="-89" y="322"/>
      <point x="-89" y="413" type="curve" smooth="yes"/>
      <point x="-89" y="429" type="line"/>
      <point x="-196" y="428" type="line"/>
      <point x="-196" y="313" type="line" smooth="yes"/>
      <point x="-196" y="91"/>
      <point x="-82" y="-31"/>
      <point x="118" y="-31" type="curve" smooth="yes"/>
      <point x="340" y="-31"/>
      <point x="443" y="116"/>
      <point x="443" y="399" type="curve" smooth="yes"/>
      <point x="443" y="552" type="line"/>
      <point x="105" y="552" type="line"/>
      <point x="105" y="421" type="line" smooth="yes"/>
      <point x="105" y="320"/>
      <point x="79" y="275"/>
    </contour>
    <contour>
      <point x="740" y="1228" type="curve" smooth="yes"/>
      <point x="316" y="1228"/>
      <point x="105" y="1015"/>
      <point x="105" y="604" type="curve" smooth="yes"/>
      <point x="105" y="533" type="line"/>
      <point x="443" y="533" type="line"/>
      <point x="443" y="599" type="line" smooth="yes"/>
      <point x="443" y="821"/>
      <point x="531" y="933"/>
      <point x="741" y="933" type="curve" smooth="yes"/>
      <point x="950" y="933"/>
      <point x="1037" y="817"/>
      <point x="1037" y="599" type="curve" smooth="yes"/>
      <point x="1037" y="502" type="line"/>
      <point x="1377" y="524" type="line"/>
      <point x="1377" y="595" type="line" smooth="yes"/>
      <point x="1377" y="1011"/>
      <point x="1164" y="1228"/>
    </contour>
    <contour>
      <point x="1377" y="529" type="line"/>
      <point x="1040" y="509" type="line"/>
      <point x="1040" y="393" type="line" smooth="yes"/>
      <point x="1040" y="294"/>
      <point x="1022" y="246"/>
      <point x="953" y="246" type="curve" smooth="yes"/>
      <point x="893" y="246"/>
      <point x="867" y="280"/>
      <point x="867" y="353" type="curve" smooth="yes"/>
      <point x="867" y="375" type="line" smooth="yes"/>
      <point x="867" y="450"/>
      <point x="889" y="487"/>
      <point x="953" y="487" type="curve" smooth="yes"/>
      <point x="1004" y="487"/>
      <point x="1044" y="456"/>
      <point x="1070" y="393" type="curve"/>
      <point x="1083" y="566" type="line"/>
      <point x="1028" y="566" type="line"/>
      <point x="1004" y="682"/>
      <point x="932" y="742"/>
      <point x="813" y="742" type="curve" smooth="yes"/>
      <point x="625" y="742"/>
      <point x="543" y="615"/>
      <point x="543" y="382" type="curve" smooth="yes"/>
      <point x="543" y="352" type="line" smooth="yes"/>
      <point x="543" y="100"/>
      <point x="673" y="-32"/>
      <point x="952" y="-32" type="curve" smooth="yes"/>
      <point x="1243" y="-32"/>
      <point x="1377" y="126"/>
      <point x="1377" y="431" type="curve" smooth="yes"/>
    </contour>
  </outline>
  <guideline angle="90" x="-50" y="0"/>
</glyph>
<glyph name="matraRu.kn" format="2">
  <advance width="263"/>
  <unicode hex="0CC3"/>
  <outline>
    <contour>
      <point x="-515" y="-409" type="line"/>
      <point x="-515" y="-422" type="line" smooth="yes"/>
      <point x="-515" y="-659"/>
      <point x="-360" y="-784"/>
      <point x="-95" y="-784" type="curve" smooth="yes"/>
      <point x="211" y="-784"/>
      <point x="347" y="-632"/>
      <point x="347" y="-346" type="curve" smooth="yes"/>
      <point x="347" y="-260" type="line" smooth="yes"/>
      <point x="347" y="-46"/>
      <point x="304" y="88"/>
      <point x="226" y="206" type="curve"/>
      <point x="-13" y="206" type="line"/>
      <point x="65" y="84"/>
      <point x="111" y="-56"/>
      <point x="111" y="-260" type="curve" smooth="yes"/>
      <point x="111" y="-344" type="line" smooth="yes"/>
      <point x="111" y="-507"/>
      <point x="49" y="-589"/>
      <point x="-96" y="-589" type="curve" smooth="yes"/>
      <point x="-231" y="-589"/>
      <point x="-298" y="-536"/>
      <point x="-298" y="-425" type="curve" smooth="yes"/>
      <point x="-298" y="-403" type="line"/>
    </contour>
    <contour>
      <point x="-238" y="-96" type="curve" smooth="yes"/>
      <point x="-417" y="-96"/>
      <point x="-515" y="-184"/>
      <point x="-515" y="-373" type="curve" smooth="yes"/>
      <point x="-515" y="-411" type="line"/>
      <point x="-302" y="-406" type="line"/>
      <point x="-302" y="-349" type="line" smooth="yes"/>
      <point x="-302" y="-295"/>
      <point x="-291" y="-267"/>
      <point x="-247" y="-267" type="curve" smooth="yes"/>
      <point x="-212" y="-267"/>
      <point x="-197" y="-285"/>
      <point x="-197" y="-324" type="curve" smooth="yes"/>
      <point x="-197" y="-331" type="line" smooth="yes"/>
      <point x="-197" y="-363"/>
      <point x="-212" y="-380"/>
      <point x="-242" y="-380" type="curve" smooth="yes"/>
      <point x="-276" y="-380"/>
      <point x="-305" y="-363"/>
      <point x="-330" y="-327" type="curve"/>
      <point x="-341" y="-434" type="line"/>
      <point x="-292" y="-434" type="line"/>
      <point x="-277" y="-490"/>
      <point x="-228" y="-519"/>
      <point x="-152" y="-519" type="curve" smooth="yes"/>
      <point x="-51" y="-519"/>
      <point x="6" y="-454"/>
      <point x="6" y="-332" type="curve" smooth="yes"/>
      <point x="6" y="-322" type="line" smooth="yes"/>
      <point x="6" y="-173"/>
      <point x="-79" y="-96"/>
    </contour>
  </outline>
</glyph>
<glyph name="matraE.kn" format="2">
  <advance width="930"/>
  <unicode hex="0CC6"/>
  <outline>
    <contour>
      <point x="528" y="922" type="line" smooth="yes"/>
      <point x="753" y="922"/>
      <point x="872" y="1049"/>
      <point x="872" y="1300" type="curve" smooth="yes"/>
      <point x="872" y="1336" type="line" smooth="yes"/>
      <point x="872" y="1564"/>
      <point x="748" y="1684"/>
      <point x="514" y="1684" type="curve" smooth="yes"/>
      <point x="295" y="1684"/>
      <point x="179" y="1585"/>
      <point x="179" y="1403" type="curve" smooth="yes"/>
      <point x="179" y="1397" type="line" smooth="yes"/>
      <point x="179" y="1343"/>
      <point x="191" y="1290"/>
      <point x="212" y="1257" type="curve"/>
      <point x="480" y="1257" type="line"/>
      <point x="470" y="1284"/>
      <point x="465" y="1316"/>
      <point x="465" y="1347" type="curve" smooth="yes"/>
      <point x="465" y="1354" type="line" smooth="yes"/>
      <point x="465" y="1404"/>
      <point x="479" y="1428"/>
      <point x="519" y="1428" type="curve" smooth="yes"/>
      <point x="558" y="1428"/>
      <point x="574" y="1401"/>
      <point x="574" y="1348" type="curve" smooth="yes"/>
      <point x="574" y="1324" type="line" smooth="yes"/>
      <point x="574" y="1229"/>
      <point x="536" y="1191"/>
      <point x="454" y="1191" type="curve" smooth="yes"/>
      <point x="336" y="1191" type="line"/>
      <point x="338" y="922" type="line"/>
    </contour>
  </outline>
</glyph>
<glyph name="Halant.kn" format="2">
  <advance width="783"/>
  <unicode hex="0CCD"/>
  <outline>
    <contour>
      <point x="308" y="1022" type="line"/>
      <point x="308" y="1090" type="line" smooth="yes"/>
      <point x="308" y="1236"/>
      <point x="378" y="1301"/>
      <point x="528" y="1301" type="curve" smooth="yes"/>
      <point x="596" y="1301"/>
      <point x="666" y="1289"/>
      <point x="729" y="1263" type="curve"/>
      <point x="689" y="1521" type="line"/>
      <point x="627" y="1545"/>
      <point x="553" y="1559"/>
      <point x="470" y="1559" type="curve" smooth="yes"/>
      <point x="177" y="1559"/>
      <point x="17" y="1395"/>
      <point x="17" y="1082" type="curve" smooth="yes"/>
      <point x="17" y="1018" type="line"/>
    </contour>
    <contour>
      <point x="392" y="470" type="curve" smooth="yes"/>
      <point x="631" y="470"/>
      <point x="761" y="594"/>
      <point x="761" y="827" type="curve" smooth="yes"/>
      <point x="761" y="848" type="line" smooth="yes"/>
      <point x="761" y="1077"/>
      <point x="651" y="1190"/>
      <point x="404" y="1190" type="curve" smooth="yes"/>
      <point x="-506" y="1190" type="line"/>
      <point x="-506" y="922" type="line"/>
      <point x="187" y="922" type="line"/>
      <point x="187" y="940" type="line"/>
      <point x="366" y="940" type="line" smooth="yes"/>
      <point x="443" y="940"/>
      <point x="467" y="912"/>
      <point x="467" y="844" type="curve" smooth="yes"/>
      <point x="467" y="825" type="line" smooth="yes"/>
      <point x="467" y="758"/>
      <point x="442" y="728"/>
      <point x="391" y="728" type="curve" smooth="yes"/>
      <point x="325" y="728"/>
      <point x="308" y="773"/>
      <point x="308" y="862" type="curve" smooth="yes"/>
      <point x="308" y="1029" type="line"/>
      <point x="17" y="1029" type="line"/>
      <point x="17" y="858" type="line" smooth="yes"/>
      <point x="17" y="596"/>
      <point x="145" y="470"/>
    </contour>
  </outline>
</glyph>
<glyph name="Lengthmark.kn" format="2">
  <advance width="949"/>
  <unicode hex="0CD5"/>
  <outline>
    <contour>
      <point x="386" y="676" type="line"/>
      <point x="386" y="775" type="line" smooth="yes"/>
      <point x="386" y="886"/>
      <point x="405" y="943"/>
      <point x="489" y="943" type="curve" smooth="yes"/>
      <point x="556" y="943"/>
      <point x="582" y="904"/>
      <point x="582" y="826" type="curve" smooth="yes"/>
      <point x="582" y="808" type="line" smooth="yes"/>
      <point x="582" y="733"/>
      <point x="557" y="699"/>
      <point x="490" y="699" type="curve" smooth="yes"/>
      <point x="431" y="699"/>
      <point x="384" y="730"/>
      <point x="354" y="791" type="curve"/>
      <point x="344" y="616" type="line"/>
      <point x="403" y="616" type="line"/>
      <point x="429" y="515"/>
      <point x="507" y="462"/>
      <point x="630" y="462" type="curve" smooth="yes"/>
      <point x="809" y="462"/>
      <point x="901" y="581"/>
      <point x="901" y="806" type="curve" smooth="yes"/>
      <point x="901" y="827" type="line" smooth="yes"/>
      <point x="901" y="1090"/>
      <point x="765" y="1228"/>
      <point x="489" y="1228" type="curve" smooth="yes"/>
      <point x="196" y="1228"/>
      <point x="54" y="1065"/>
      <point x="54" y="749" type="curve" smooth="yes"/>
      <point x="54" y="643" type="line"/>
    </contour>
    <contour>
      <point x="54" y="675" type="line"/>
      <point x="54" y="609" type="line" smooth="yes"/>
      <point x="54" y="187"/>
      <point x="270" y="-20"/>
      <point x="712" y="-20" type="curve" smooth="yes"/>
      <point x="805" y="-20" type="line"/>
      <point x="865" y="262" type="line"/>
      <point x="791" y="262" type="line" smooth="yes"/>
      <point x="514" y="262"/>
      <point x="394" y="367"/>
      <point x="394" y="611" type="curve" smooth="yes"/>
      <point x="394" y="684" type="line"/>
    </contour>
  </outline>
</glyph>
<glyph name="matraAiLengthmark.kn" format="2">
  <advance width="237"/>
  <unicode hex="0CD6"/>
  <outline>
    <contour>
      <point x="-370" y="-426" type="line"/>
      <point x="-588" y="-417" type="line"/>
      <point x="-588" y="-431" type="line" smooth="yes"/>
      <point x="-588" y="-671"/>
      <point x="-430" y="-784"/>
      <point x="-157" y="-784" type="curve" smooth="yes"/>
      <point x="131" y="-784"/>
      <point x="285" y="-662"/>
      <point x="285" y="-415" type="curve" smooth="yes"/>
      <point x="285" y="-379" type="line" smooth="yes"/>
      <point x="285" y="-233"/>
      <point x="230" y="-158"/>
      <point x="125" y="-139" type="curve"/>
      <point x="-88" y="-114" type="line"/>
      <point x="-88" y="-218" type="line"/>
      <point x="-54" y="-220" type="line" smooth="yes"/>
      <point x="17" y="-223"/>
      <point x="54" y="-265"/>
      <point x="54" y="-361" type="curve" smooth="yes"/>
      <point x="54" y="-397" type="line" smooth="yes"/>
      <point x="54" y="-526"/>
      <point x="-15" y="-590"/>
      <point x="-155" y="-590" type="curve" smooth="yes"/>
      <point x="-301" y="-590"/>
      <point x="-370" y="-541"/>
      <point x="-370" y="-439" type="curve" smooth="yes"/>
    </contour>
    <contour>
      <point x="125" y="-133" type="line"/>
      <point x="222" y="-124"/>
      <point x="273" y="-67"/>
      <point x="273" y="40" type="curve" smooth="yes"/>
      <point x="273" y="103"/>
      <point x="251" y="159"/>
      <point x="210" y="206" type="curve"/>
      <point x="-4" y="206" type="line"/>
      <point x="28" y="160"/>
      <point x="45" y="110"/>
      <point x="45" y="59" type="curve" smooth="yes"/>
      <point x="45" y="-4"/>
      <point x="16" y="-37"/>
      <point x="-51" y="-39" type="curve" smooth="yes"/>
      <point x="-88" y="-40" type="line"/>
      <point x="-88" y="-161" type="line"/>
      <point x="125" y="-170" type="line"/>
    </contour>
    <contour>
      <point x="-311" y="-135" type="curve" smooth="yes"/>
      <point x="-490" y="-135"/>
      <point x="-588" y="-222"/>
      <point x="-588" y="-408" type="curve" smooth="yes"/>
      <point x="-588" y="-425" type="line"/>
      <point x="-375" y="-425" type="line"/>
      <point x="-375" y="-378" type="line" smooth="yes"/>
      <point x="-375" y="-333"/>
      <point x="-364" y="-306"/>
      <point x="-320" y="-306" type="curve" smooth="yes"/>
      <point x="-285" y="-306"/>
      <point x="-270" y="-323"/>
      <point x="-270" y="-353" type="curve"/>
      <point x="-270" y="-355" type="line"/>
      <point x="-270" y="-384"/>
      <point x="-285" y="-399"/>
      <point x="-315" y="-399" type="curve" smooth="yes"/>
      <point x="-349" y="-399"/>
      <point x="-378" y="-382"/>
      <point x="-403" y="-346" type="curve"/>
      <point x="-414" y="-453" type="line"/>
      <point x="-365" y="-453" type="line"/>
      <point x="-350" y="-509"/>
      <point x="-301" y="-538"/>
      <point x="-225" y="-538" type="curve" smooth="yes"/>
      <point x="-124" y="-538"/>
      <point x="-67" y="-475"/>
      <point x="-67" y="-356" type="curve" smooth="yes"/>
      <point x="-67" y="-351" type="line" smooth="yes"/>
      <point x="-67" y="-211"/>
      <point x="-152" y="-135"/>
    </contour>
  </outline>
</glyph>
<glyph name="vowelRuu.kn" format="2">
  <advance width="3202"/>
  <unicode hex="0CE0"/>
  <outline>
    <component base="matraUu.kn" xOffset="1748" yOffset="-2"/>
    <contour>
      <point x="1250" y="-32" type="curve" smooth="yes"/>
      <point x="1529" y="-32"/>
      <point x="1659" y="136.994"/>
      <point x="1659" y="471" type="curve" smooth="yes"/>
      <point x="1659" y="569" type="line" smooth="yes"/>
      <point x="1659" y="770.002"/>
      <point x="1587" y="883"/>
      <point x="1435" y="915" type="curve"/>
      <point x="1435" y="941" type="line"/>
      <point x="1091" y="941" type="line"/>
      <point x="1091" y="922" type="line"/>
      <point x="1238" y="922"/>
      <point x="1308.5" y="843"/>
      <point x="1308.5" y="681" type="curve" smooth="yes"/>
      <point x="1308.5" y="483" type="line" smooth="yes"/>
      <point x="1308.5" y="345"/>
      <point x="1267" y="275"/>
      <point x="1164" y="275" type="curve" smooth="yes"/>
      <point x="1064" y="275"/>
      <point x="1018" y="335"/>
      <point x="1018" y="452" type="curve" smooth="yes"/>
      <point x="1018" y="537" type="line"/>
      <point x="890" y="512" type="line"/>
      <point x="890" y="343" type="line" smooth="yes"/>
      <point x="890" y="101"/>
      <point x="1014" y="-32"/>
    </contour>
    <contour>
      <point x="1324" y="922" type="line"/>
      <point x="1324" y="1191" type="line"/>
      <point x="1063" y="1191" type="line"/>
      <point x="1063" y="922" type="line"/>
    </contour>
    <contour>
      <point x="481" y="-32" type="curve" smooth="yes"/>
      <point x="775" y="-32"/>
      <point x="952" y="101"/>
      <point x="952" y="338" type="curve"/>
      <point x="847" y="293" type="line"/>
      <point x="993" y="293" type="line"/>
      <point x="1010" y="360"/>
      <point x="1018" y="461"/>
      <point x="1018" y="524" type="curve" smooth="yes"/>
      <point x="1018" y="723" type="line" smooth="yes"/>
      <point x="1018" y="1055"/>
      <point x="858" y="1228"/>
      <point x="529" y="1228" type="curve" smooth="yes"/>
      <point x="232" y="1228"/>
      <point x="80" y="1094"/>
      <point x="80" y="846" type="curve" smooth="yes"/>
      <point x="80" y="835" type="line" smooth="yes"/>
      <point x="80" y="785"/>
      <point x="88" y="734"/>
      <point x="106" y="699" type="curve"/>
      <point x="429" y="699" type="line"/>
      <point x="422" y="721"/>
      <point x="415" y="754"/>
      <point x="415" y="793" type="curve" smooth="yes"/>
      <point x="415" y="797" type="line" smooth="yes"/>
      <point x="415" y="885"/>
      <point x="455" y="928"/>
      <point x="539" y="928" type="curve" smooth="yes"/>
      <point x="639" y="928"/>
      <point x="675" y="862"/>
      <point x="675" y="729" type="curve" smooth="yes"/>
      <point x="675" y="540" type="line"/>
      <point x="676" y="487"/>
      <point x="672" y="467"/>
      <point x="664" y="404" type="curve"/>
      <point x="664" y="400"/>
      <point x="664" y="374"/>
      <point x="664" y="371" type="curve"/>
      <point x="641" y="272"/>
      <point x="592" y="231"/>
      <point x="509" y="231" type="curve" smooth="yes"/>
      <point x="427" y="231"/>
      <point x="392" y="258"/>
      <point x="392" y="318" type="curve" smooth="yes"/>
      <point x="392" y="323" type="line" smooth="yes"/>
      <point x="392" y="384"/>
      <point x="428" y="413"/>
      <point x="501" y="413" type="curve" smooth="yes"/>
      <point x="575" y="413"/>
      <point x="643" y="376"/>
      <point x="676" y="324" type="curve"/>
      <point x="713" y="523" type="line"/>
      <point x="660" y="610"/>
      <point x="573" y="661"/>
      <point x="414" y="661" type="curve" smooth="yes"/>
      <point x="173" y="661"/>
      <point x="58" y="548"/>
      <point x="58" y="332" type="curve" smooth="yes"/>
      <point x="58" y="321" type="line" smooth="yes"/>
      <point x="58" y="90"/>
      <point x="199" y="-32"/>
    </contour>
    <contour>
      <point x="1323" y="1530" type="line"/>
      <point x="1344.11" y="1457"/>
      <point x="1361" y="1380"/>
      <point x="1361" y="1304" type="curve" smooth="yes"/>
      <point x="1361" y="1221"/>
      <point x="1336" y="1191"/>
      <point x="1262" y="1191" type="curve" smooth="yes"/>
      <point x="1238" y="1191" type="line"/>
      <point x="1266" y="922" type="line"/>
      <point x="1404" y="922" type="line" smooth="yes"/>
      <point x="1587" y="922"/>
      <point x="1677" y="1023"/>
      <point x="1677" y="1227" type="curve" smooth="yes"/>
      <point x="1677" y="1327"/>
      <point x="1652.39" y="1432"/>
      <point x="1596" y="1530" type="curve"/>
    </contour>
  </outline>
</glyph>
<glyph name="matraLruu.kn" format="2">
  <unicode hex="0CE3"/>
  <outline>
    <contour>
      <point x="-438" y="-627" type="curve" smooth="yes"/>
      <point x="-545" y="-627"/>
      <point x="-602" y="-688"/>
      <point x="-602" y="-804" type="curve" smooth="yes"/>
      <point x="-602" y="-809" type="line" smooth="yes"/>
      <point x="-602" y="-923"/>
      <point x="-546" y="-981"/>
      <point x="-441" y="-981" type="curve" smooth="yes"/>
      <point x="-370" y="-981"/>
      <point x="-328" y="-958"/>
      <point x="-312" y="-906" type="curve"/>
      <point x="-276" y="-906" type="line"/>
      <point x="-293" y="-808" type="line"/>
      <point x="-302" y="-829"/>
      <point x="-328" y="-839"/>
      <point x="-359" y="-839" type="curve" smooth="yes"/>
      <point x="-389" y="-839"/>
      <point x="-404" y="-828"/>
      <point x="-404" y="-805" type="curve"/>
      <point x="-404" y="-804" type="line"/>
      <point x="-404" y="-781"/>
      <point x="-390" y="-767"/>
      <point x="-359" y="-767" type="curve" smooth="yes"/>
      <point x="-320" y="-767"/>
      <point x="-309" y="-786"/>
      <point x="-308" y="-806" type="curve"/>
      <point x="-232" y="-704" type="line"/>
      <point x="-315" y="-704" type="line"/>
      <point x="-330" y="-651"/>
      <point x="-375" y="-627"/>
    </contour>
    <contour>
      <point x="-310" y="-103" type="line"/>
      <point x="-310" y="-188" type="line" smooth="yes"/>
      <point x="-310" y="-245"/>
      <point x="-303" y="-289"/>
      <point x="-290" y="-334" type="curve"/>
      <point x="-296" y="-336" type="line"/>
      <point x="-316" y="-288"/>
      <point x="-356" y="-257"/>
      <point x="-436" y="-257" type="curve" smooth="yes"/>
      <point x="-575" y="-257"/>
      <point x="-651" y="-337"/>
      <point x="-651" y="-489" type="curve" smooth="yes"/>
      <point x="-651" y="-491" type="line" smooth="yes"/>
      <point x="-651" y="-529"/>
      <point x="-647" y="-568"/>
      <point x="-636" y="-602" type="curve"/>
      <point x="-418" y="-602" type="line"/>
      <point x="-424" y="-575"/>
      <point x="-427" y="-548"/>
      <point x="-427" y="-523" type="curve" smooth="yes"/>
      <point x="-427" y="-518" type="line" smooth="yes"/>
      <point x="-427" y="-472"/>
      <point x="-407" y="-450"/>
      <point x="-370" y="-450" type="curve" smooth="yes"/>
      <point x="-333" y="-450"/>
      <point x="-313" y="-473"/>
      <point x="-312" y="-519" type="curve" smooth="yes"/>
      <point x="-306" y="-1006" type="line"/>
      <point x="-99" y="-1006" type="line"/>
      <point x="-93" y="-519" type="line" smooth="yes"/>
      <point x="-92" y="-473"/>
      <point x="-73" y="-450"/>
      <point x="-35" y="-450" type="curve" smooth="yes"/>
      <point x="2" y="-450"/>
      <point x="23" y="-472"/>
      <point x="23" y="-518" type="curve" smooth="yes"/>
      <point x="23" y="-523" type="line" smooth="yes"/>
      <point x="23" y="-548"/>
      <point x="19" y="-575"/>
      <point x="13" y="-602" type="curve"/>
      <point x="232" y="-602" type="line"/>
      <point x="243" y="-568"/>
      <point x="247" y="-529"/>
      <point x="247" y="-491" type="curve" smooth="yes"/>
      <point x="247" y="-489" type="line" smooth="yes"/>
      <point x="247" y="-337"/>
      <point x="170" y="-257"/>
      <point x="31" y="-257" type="curve" smooth="yes"/>
      <point x="-49" y="-257"/>
      <point x="-89" y="-288"/>
      <point x="-109" y="-336" type="curve"/>
      <point x="-115" y="-334" type="line"/>
      <point x="-103" y="-289"/>
      <point x="-95" y="-245"/>
      <point x="-95" y="-188" type="curve" smooth="yes"/>
      <point x="-95" y="-103" type="line"/>
    </contour>
  </outline>
  <guideline angle="0" x="0" y="-452"/>
</glyph>
<glyph name="Ondu.kn" format="2">
  <advance width="1318"/>
  <unicode hex="0CE7"/>
  <outline>
    <contour>
      <point x="659" y="1239" type="curve" smooth="yes"/>
      <point x="277" y="1239"/>
      <point x="79" y="1040"/>
      <point x="79" y="651" type="curve" smooth="yes"/>
      <point x="79" y="462" type="line" smooth="yes"/>
      <point x="79" y="266"/>
      <point x="115" y="109"/>
      <point x="184" y="0" type="curve"/>
      <point x="538" y="0" type="line"/>
      <point x="468" y="132"/>
      <point x="428" y="300"/>
      <point x="428" y="464" type="curve" smooth="yes"/>
      <point x="428" y="645" type="line" smooth="yes"/>
      <point x="428" y="837"/>
      <point x="504" y="933"/>
      <point x="659" y="933" type="curve" smooth="yes"/>
      <point x="814" y="933"/>
      <point x="889" y="837"/>
      <point x="889" y="645" type="curve" smooth="yes"/>
      <point x="889" y="464" type="line" smooth="yes"/>
      <point x="889" y="300"/>
      <point x="850" y="132"/>
      <point x="779" y="0" type="curve"/>
      <point x="1134" y="0" type="line"/>
      <point x="1203" y="109"/>
      <point x="1238" y="265"/>
      <point x="1238" y="461" type="curve" smooth="yes"/>
      <point x="1238" y="651" type="line" smooth="yes"/>
      <point x="1238" y="1040"/>
      <point x="1042" y="1239"/>
    </contour>
  </outline>
</glyph>
<glyph name="Eradu.kn" format="2">
  <advance width="1503"/>
  <unicode hex="0CE8"/>
  <outline>
    <contour>
      <point x="234" y="726" type="line"/>
      <point x="234" y="715" type="line" smooth="yes"/>
      <point x="234" y="459"/>
      <point x="374" y="342"/>
      <point x="629" y="342" type="curve" smooth="yes"/>
      <point x="880" y="342"/>
      <point x="1001" y="448"/>
      <point x="1001" y="647" type="curve" smooth="yes"/>
      <point x="1001" y="662" type="line" smooth="yes"/>
      <point x="1001" y="830"/>
      <point x="916" y="924"/>
      <point x="760" y="924" type="curve" smooth="yes"/>
      <point x="647" y="924"/>
      <point x="577" y="877"/>
      <point x="553" y="804" type="curve"/>
      <point x="507" y="804" type="line"/>
      <point x="518" y="629" type="line"/>
      <point x="537" y="696"/>
      <point x="578" y="725"/>
      <point x="627" y="725" type="curve" smooth="yes"/>
      <point x="675" y="725"/>
      <point x="697" y="699"/>
      <point x="697" y="649" type="curve" smooth="yes"/>
      <point x="697" y="644" type="line" smooth="yes"/>
      <point x="697" y="591"/>
      <point x="671" y="566"/>
      <point x="625" y="566" type="curve" smooth="yes"/>
      <point x="567" y="566"/>
      <point x="543" y="603"/>
      <point x="543" y="676" type="curve" smooth="yes"/>
      <point x="543" y="760" type="line"/>
    </contour>
    <contour>
      <point x="543" y="755" type="line"/>
      <point x="543" y="791" type="line" smooth="yes"/>
      <point x="543" y="907.017"/>
      <point x="635" y="970"/>
      <point x="803" y="970" type="curve" smooth="yes"/>
      <point x="1002" y="970"/>
      <point x="1100" y="867"/>
      <point x="1100" y="659" type="curve" smooth="yes"/>
      <point x="1100" y="633" type="line" smooth="yes"/>
      <point x="1100" y="385"/>
      <point x="971" y="270"/>
      <point x="693" y="270" type="curve" smooth="yes"/>
      <point x="-5" y="270" type="line"/>
      <point x="30" y="0" type="line"/>
      <point x="766" y="0" type="line" smooth="yes"/>
      <point x="1208" y="0"/>
      <point x="1438" y="210"/>
      <point x="1438" y="621" type="curve" smooth="yes"/>
      <point x="1438" y="652" type="line" smooth="yes"/>
      <point x="1438" y="1033"/>
      <point x="1229" y="1226"/>
      <point x="817" y="1226" type="curve" smooth="yes"/>
      <point x="434" y="1226"/>
      <point x="234" y="1058"/>
      <point x="234" y="735" type="curve" smooth="yes"/>
      <point x="234" y="722" type="line"/>
    </contour>
  </outline>
</glyph>
<glyph name="Muru.kn" format="2">
  <advance width="1350"/>
  <unicode hex="0CE9"/>
  <outline>
    <contour>
      <point x="1266" y="-29" type="curve" smooth="yes"/>
      <point x="1296" y="-29" type="line"/>
      <point x="1347" y="252" type="line"/>
      <point x="1267" y="252" type="line" smooth="yes"/>
      <point x="1104.86" y="252"/>
      <point x="1031.69" y="305"/>
      <point x="1005" y="418" type="curve"/>
      <point x="992" y="463" type="line"/>
      <point x="863" y="478" type="line"/>
      <point x="868" y="279" type="line" smooth="yes"/>
      <point x="873" y="80"/>
      <point x="1009.93" y="-29"/>
    </contour>
    <contour>
      <point x="485" y="-32" type="curve" smooth="yes"/>
      <point x="780.624" y="-32"/>
      <point x="959" y="101"/>
      <point x="959" y="338" type="curve"/>
      <point x="854" y="293" type="line"/>
      <point x="1000" y="293" type="line"/>
      <point x="1017" y="360"/>
      <point x="1025" y="461"/>
      <point x="1025" y="524" type="curve" smooth="yes"/>
      <point x="1025" y="723" type="line" smooth="yes"/>
      <point x="1025" y="1055"/>
      <point x="864.674" y="1228"/>
      <point x="533" y="1228" type="curve" smooth="yes"/>
      <point x="233.678" y="1228"/>
      <point x="80" y="1094"/>
      <point x="80" y="846" type="curve" smooth="yes"/>
      <point x="80" y="835" type="line" smooth="yes"/>
      <point x="80" y="785"/>
      <point x="88" y="734"/>
      <point x="106" y="699" type="curve"/>
      <point x="429" y="699" type="line"/>
      <point x="422" y="721"/>
      <point x="415" y="754"/>
      <point x="415" y="793" type="curve" smooth="yes"/>
      <point x="415" y="797" type="line" smooth="yes"/>
      <point x="415" y="885"/>
      <point x="455.635" y="928"/>
      <point x="543" y="928" type="curve" smooth="yes"/>
      <point x="644.732" y="928"/>
      <point x="682" y="862"/>
      <point x="682" y="729" type="curve" smooth="yes"/>
      <point x="682" y="540" type="line"/>
      <point x="683" y="487"/>
      <point x="679" y="467"/>
      <point x="671" y="404" type="curve"/>
      <point x="671" y="400"/>
      <point x="671" y="374"/>
      <point x="671" y="371" type="curve"/>
      <point x="646.847" y="272"/>
      <point x="597.535" y="231"/>
      <point x="513" y="231" type="curve" smooth="yes"/>
      <point x="428.605" y="231"/>
      <point x="392" y="258"/>
      <point x="392" y="318" type="curve" smooth="yes"/>
      <point x="392" y="323" type="line" smooth="yes"/>
      <point x="392" y="384"/>
      <point x="428.649" y="413"/>
      <point x="505" y="413" type="curve" smooth="yes"/>
      <point x="580.424" y="413"/>
      <point x="648.808" y="376"/>
      <point x="683" y="324" type="curve"/>
      <point x="720" y="523" type="line"/>
      <point x="666.824" y="610"/>
      <point x="578.532" y="661"/>
      <point x="418" y="661" type="curve" smooth="yes"/>
      <point x="174.648" y="661"/>
      <point x="58" y="548"/>
      <point x="58" y="332" type="curve" smooth="yes"/>
      <point x="58" y="321" type="line" smooth="yes"/>
      <point x="58" y="90"/>
      <point x="200.668" y="-32"/>
    </contour>
  </outline>
</glyph>
<glyph name="Nalku.kn" format="2">
  <advance width="1447"/>
  <unicode hex="0CEA"/>
  <outline>
    <contour>
      <point x="745" y="367" type="curve" smooth="yes"/>
      <point x="820" y="367"/>
      <point x="851" y="338"/>
      <point x="851" y="285" type="curve"/>
      <point x="851" y="283" type="line"/>
      <point x="851" y="230"/>
      <point x="820" y="201"/>
      <point x="745" y="201" type="curve" smooth="yes"/>
      <point x="670" y="201"/>
      <point x="640" y="230"/>
      <point x="640" y="283" type="curve"/>
      <point x="640" y="285" type="line"/>
      <point x="640" y="338"/>
      <point x="670" y="367"/>
    </contour>
    <contour>
      <point x="745" y="528" type="line"/>
      <point x="505" y="447" type="line"/>
      <point x="383" y="413"/>
      <point x="326" y="350"/>
      <point x="326" y="236" type="curve" smooth="yes"/>
      <point x="326" y="232" type="line" smooth="yes"/>
      <point x="326" y="48"/>
      <point x="472" y="-48"/>
      <point x="745" y="-48" type="curve" smooth="yes"/>
      <point x="1019" y="-48"/>
      <point x="1165" y="48"/>
      <point x="1165" y="232" type="curve" smooth="yes"/>
      <point x="1165" y="236" type="line" smooth="yes"/>
      <point x="1165" y="350"/>
      <point x="1108" y="413"/>
      <point x="986" y="447" type="curve"/>
    </contour>
    <contour>
      <point x="578" y="361" type="curve"/>
      <point x="754" y="451" type="line"/>
      <point x="938" y="370" type="line"/>
      <point x="1255" y="378"/>
      <point x="1420" y="525"/>
      <point x="1420" y="805" type="curve" smooth="yes"/>
      <point x="1420" y="811" type="line" smooth="yes"/>
      <point x="1420" y="1071"/>
      <point x="1290" y="1207"/>
      <point x="1023" y="1207" type="curve" smooth="yes"/>
      <point x="980" y="1207"/>
      <point x="940" y="1204"/>
      <point x="904" y="1196" type="curve"/>
      <point x="904" y="905" type="line"/>
      <point x="918" y="907"/>
      <point x="931" y="908"/>
      <point x="950" y="908" type="curve" smooth="yes"/>
      <point x="1038" y="908"/>
      <point x="1078" y="868"/>
      <point x="1078" y="782" type="curve" smooth="yes"/>
      <point x="1078" y="778" type="line" smooth="yes"/>
      <point x="1078" y="649"/>
      <point x="962" y="591"/>
      <point x="728" y="591" type="curve" smooth="yes"/>
      <point x="463" y="591"/>
      <point x="337" y="648"/>
      <point x="337" y="764" type="curve" smooth="yes"/>
      <point x="337" y="795" type="line"/>
      <point x="22" y="828" type="line"/>
      <point x="22" y="812" type="line" smooth="yes"/>
      <point x="22" y="513"/>
      <point x="222" y="361"/>
    </contour>
    <contour>
      <point x="334" y="788" type="line"/>
      <point x="334" y="854" type="line" smooth="yes"/>
      <point x="334" y="940"/>
      <point x="359" y="981"/>
      <point x="426" y="981" type="curve" smooth="yes"/>
      <point x="479" y="981"/>
      <point x="503" y="955"/>
      <point x="503" y="906" type="curve" smooth="yes"/>
      <point x="503" y="903" type="line" smooth="yes"/>
      <point x="503" y="859"/>
      <point x="479" y="834"/>
      <point x="429" y="834" type="curve" smooth="yes"/>
      <point x="384" y="834"/>
      <point x="348" y="855"/>
      <point x="325" y="894" type="curve"/>
      <point x="274" y="747" type="line"/>
      <point x="346" y="747" type="line"/>
      <point x="377" y="683"/>
      <point x="452" y="648"/>
      <point x="566" y="648" type="curve" smooth="yes"/>
      <point x="729" y="648"/>
      <point x="817" y="737"/>
      <point x="817" y="905" type="curve" smooth="yes"/>
      <point x="817" y="908" type="line" smooth="yes"/>
      <point x="817" y="1118"/>
      <point x="686" y="1228"/>
      <point x="433" y="1228" type="curve" smooth="yes"/>
      <point x="160" y="1228"/>
      <point x="22" y="1094"/>
      <point x="22" y="834" type="curve" smooth="yes"/>
      <point x="22" y="823" type="line"/>
    </contour>
  </outline>
</glyph>
<glyph name="Aidu.kn" format="2">
  <advance width="1882"/>
  <unicode hex="0CEB"/>
  <outline>
    <contour>
      <point x="499" y="1228" type="curve" smooth="yes"/>
      <point x="221" y="1228"/>
      <point x="77" y="1101"/>
      <point x="77" y="866" type="curve" smooth="yes"/>
      <point x="77" y="855" type="line" smooth="yes"/>
      <point x="77" y="801"/>
      <point x="86" y="746"/>
      <point x="103" y="707" type="curve"/>
      <point x="422" y="707" type="line"/>
      <point x="415" y="729"/>
      <point x="409" y="763"/>
      <point x="409" y="803" type="curve" smooth="yes"/>
      <point x="409" y="812" type="line" smooth="yes"/>
      <point x="409" y="891"/>
      <point x="439" y="930"/>
      <point x="506" y="930" type="curve" smooth="yes"/>
      <point x="585" y="930"/>
      <point x="611" y="873"/>
      <point x="611" y="760" type="curve" smooth="yes"/>
      <point x="611" y="573" type="line"/>
      <point x="616" y="527" type="line"/>
      <point x="616" y="426" type="line" smooth="yes"/>
      <point x="616" y="295"/>
      <point x="586" y="231"/>
      <point x="493" y="231" type="curve" smooth="yes"/>
      <point x="422" y="231"/>
      <point x="390" y="264"/>
      <point x="390" y="325" type="curve" smooth="yes"/>
      <point x="390" y="330" type="line" smooth="yes"/>
      <point x="390" y="390"/>
      <point x="423" y="419"/>
      <point x="495" y="419" type="curve" smooth="yes"/>
      <point x="695" y="419" type="line"/>
      <point x="876" y="418" type="line"/>
      <point x="1338" y="418" type="line" smooth="yes"/>
      <point x="1417" y="418"/>
      <point x="1485" y="430"/>
      <point x="1541" y="444" type="curve"/>
      <point x="1551" y="483" type="line"/>
      <point x="1711" y="514"/>
      <point x="1819" y="621"/>
      <point x="1819" y="822" type="curve" smooth="yes"/>
      <point x="1819" y="848" type="line" smooth="yes"/>
      <point x="1819" y="1097"/>
      <point x="1681" y="1226"/>
      <point x="1413" y="1226" type="curve" smooth="yes"/>
      <point x="1163" y="1226"/>
      <point x="1031" y="1113"/>
      <point x="1031" y="898" type="curve" smooth="yes"/>
      <point x="1031" y="893" type="line" smooth="yes"/>
      <point x="1031" y="764"/>
      <point x="1086" y="675"/>
      <point x="1183" y="632" type="curve"/>
      <point x="1380" y="446" type="line"/>
      <point x="1440" y="414"/>
      <point x="1460" y="387"/>
      <point x="1460" y="346" type="curve" smooth="yes"/>
      <point x="1460" y="343" type="line" smooth="yes"/>
      <point x="1460" y="289"/>
      <point x="1420" y="262"/>
      <point x="1322" y="262" type="curve" smooth="yes"/>
      <point x="1234" y="262"/>
      <point x="1127" y="278"/>
      <point x="1055" y="309" type="curve"/>
      <point x="1091" y="20" type="line"/>
      <point x="1185" y="-14"/>
      <point x="1286" y="-30"/>
      <point x="1395" y="-30" type="curve" smooth="yes"/>
      <point x="1664" y="-30"/>
      <point x="1796" y="70"/>
      <point x="1796" y="278" type="curve" smooth="yes"/>
      <point x="1796" y="284" type="line" smooth="yes"/>
      <point x="1796" y="406"/>
      <point x="1749" y="481"/>
      <point x="1624" y="548" type="curve"/>
      <point x="1456" y="674" type="line"/>
      <point x="1377" y="707"/>
      <point x="1345" y="758"/>
      <point x="1345" y="834" type="curve" smooth="yes"/>
      <point x="1345" y="853" type="line" smooth="yes"/>
      <point x="1345" y="912"/>
      <point x="1371" y="940"/>
      <point x="1417" y="940" type="curve" smooth="yes"/>
      <point x="1465" y="940"/>
      <point x="1490" y="910"/>
      <point x="1490" y="852" type="curve" smooth="yes"/>
      <point x="1490" y="828" type="line" smooth="yes"/>
      <point x="1490" y="714"/>
      <point x="1431" y="663"/>
      <point x="1300" y="663" type="curve" smooth="yes"/>
      <point x="886" y="663" type="line"/>
      <point x="686" y="666" type="line"/>
      <point x="453" y="666" type="line" smooth="yes"/>
      <point x="191" y="666"/>
      <point x="58" y="551"/>
      <point x="58" y="331" type="curve" smooth="yes"/>
      <point x="58" y="321" type="line" smooth="yes"/>
      <point x="58" y="90"/>
      <point x="205" y="-32"/>
      <point x="488" y="-32" type="curve" smooth="yes"/>
      <point x="803" y="-32"/>
      <point x="949" y="116"/>
      <point x="949" y="433" type="curve" smooth="yes"/>
      <point x="950" y="754" type="line" smooth="yes"/>
      <point x="950" y="1066"/>
      <point x="803" y="1228"/>
    </contour>
  </outline>
  <guideline angle="90" x="1845" y="0"/>
  <guideline angle="90" x="1218" y="0"/>
</glyph>
<glyph name="Yelu.kn" format="2">
  <advance width="1261"/>
  <unicode hex="0CED"/>
  <outline>
    <contour>
      <point x="520" y="1228" type="curve" smooth="yes"/>
      <point x="243" y="1228"/>
      <point x="95" y="1110"/>
      <point x="95" y="874" type="curve" smooth="yes"/>
      <point x="95" y="868" type="line" smooth="yes"/>
      <point x="95" y="801"/>
      <point x="111" y="738"/>
      <point x="131" y="701" type="curve"/>
      <point x="429" y="701" type="line"/>
      <point x="411" y="735"/>
      <point x="399" y="773"/>
      <point x="399" y="824" type="curve" smooth="yes"/>
      <point x="399" y="829" type="line" smooth="yes"/>
      <point x="399" y="911"/>
      <point x="438" y="948"/>
      <point x="515" y="948" type="curve" smooth="yes"/>
      <point x="592" y="948"/>
      <point x="628" y="916"/>
      <point x="628" y="858" type="curve" smooth="yes"/>
      <point x="628" y="855" type="line" smooth="yes"/>
      <point x="628" y="793"/>
      <point x="592" y="766"/>
      <point x="472" y="721" type="curve" smooth="yes"/>
      <point x="386" y="689" type="line" smooth="yes"/>
      <point x="160" y="605"/>
      <point x="59" y="511"/>
      <point x="59" y="326" type="curve" smooth="yes"/>
      <point x="59" y="320" type="line" smooth="yes"/>
      <point x="59" y="111"/>
      <point x="199" y="0"/>
      <point x="457" y="0" type="curve" smooth="yes"/>
      <point x="1188" y="0" type="line"/>
      <point x="1239" y="272" type="line"/>
      <point x="486" y="272" type="line" smooth="yes"/>
      <point x="421" y="272"/>
      <point x="391" y="293"/>
      <point x="391" y="336" type="curve"/>
      <point x="391" y="338" type="line"/>
      <point x="391" y="392"/>
      <point x="434" y="415"/>
      <point x="557" y="466" type="curve" smooth="yes"/>
      <point x="648" y="504" type="line" smooth="yes"/>
      <point x="857" y="591"/>
      <point x="946" y="678"/>
      <point x="946" y="865" type="curve" smooth="yes"/>
      <point x="946" y="870" type="line" smooth="yes"/>
      <point x="946" y="1103"/>
      <point x="798" y="1228"/>
    </contour>
  </outline>
</glyph>
<glyph name="Ombattu.kn" format="2">
  <advance width="1200"/>
  <unicode hex="0CEF"/>
  <outline>
    <contour>
      <point x="408" y="824" type="line" smooth="yes"/>
      <point x="408" y="890"/>
      <point x="453" y="920"/>
      <point x="553" y="920" type="curve" smooth="yes"/>
      <point x="1165" y="920" type="line"/>
      <point x="1165" y="1191" type="line"/>
      <point x="497" y="1191" type="line" smooth="yes"/>
      <point x="211" y="1191"/>
      <point x="68" y="1081"/>
      <point x="68" y="864" type="curve" smooth="yes"/>
      <point x="68" y="854" type="line" smooth="yes"/>
      <point x="68" y="701"/>
      <point x="146" y="613"/>
      <point x="298" y="595" type="curve"/>
      <point x="298" y="586" type="line"/>
      <point x="148" y="568"/>
      <point x="70" y="477"/>
      <point x="70" y="320" type="curve" smooth="yes"/>
      <point x="70" y="310" type="line" smooth="yes"/>
      <point x="70" y="102"/>
      <point x="212" y="0"/>
      <point x="490" y="0" type="curve" smooth="yes"/>
      <point x="681" y="0" type="line"/>
      <point x="725" y="269" type="line"/>
      <point x="536" y="269" type="line" smooth="yes"/>
      <point x="452" y="269"/>
      <point x="412" y="296"/>
      <point x="412" y="357" type="curve" smooth="yes"/>
      <point x="412" y="361" type="line" smooth="yes"/>
      <point x="412" y="424"/>
      <point x="446" y="453"/>
      <point x="530" y="454" type="curve" smooth="yes"/>
      <point x="801" y="457" type="line"/>
      <point x="801" y="721" type="line"/>
      <point x="551" y="724" type="line" smooth="yes"/>
      <point x="448" y="725"/>
      <point x="407" y="754"/>
      <point x="407" y="819" type="curve" smooth="yes"/>
    </contour>
  </outline>
</glyph>
<glyph name="Jihvamuliya.kn" format="2">
  <advance width="1190"/>
  <unicode hex="0CF1"/>
  <outline>
    <contour>
      <point x="68" y="1191" type="line"/>
      <point x="68" y="937" type="line"/>
      <point x="370" y="598" type="line"/>
      <point x="67" y="254" type="line"/>
      <point x="67" y="0" type="line"/>
      <point x="1120" y="0" type="line"/>
      <point x="1120" y="254" type="line"/>
      <point x="817" y="598" type="line"/>
      <point x="1119" y="937" type="line"/>
      <point x="1119" y="1191" type="line"/>
    </contour>
    <contour>
      <point x="436" y="943" type="line"/>
      <point x="751" y="943" type="line"/>
      <point x="594" y="757" type="line"/>
    </contour>
    <contour>
      <point x="435" y="248" type="line"/>
      <point x="594" y="441" type="line"/>
      <point x="752" y="248" type="line"/>
    </contour>
  </outline>
  <guideline angle="90" x="36" y="0"/>
</glyph>
<glyph name="Upadhmaniya.kn" format="2">
  <advance width="1675"/>
  <unicode hex="0CF2"/>
  <outline>
    <contour>
      <point x="420" y="935" type="curve" smooth="yes"/>
      <point x="163" y="935"/>
      <point x="36" y="818"/>
      <point x="36" y="576" type="curve" smooth="yes"/>
      <point x="36" y="555" type="line" smooth="yes"/>
      <point x="36" y="313"/>
      <point x="163" y="198"/>
      <point x="420" y="198" type="curve" smooth="yes"/>
      <point x="677" y="198"/>
      <point x="805" y="313"/>
      <point x="805" y="555" type="curve" smooth="yes"/>
      <point x="805" y="576" type="line" smooth="yes"/>
      <point x="805" y="817"/>
      <point x="677" y="935"/>
    </contour>
    <contour>
      <point x="420" y="685" type="curve" smooth="yes"/>
      <point x="475" y="685"/>
      <point x="501" y="652"/>
      <point x="501" y="580" type="curve" smooth="yes"/>
      <point x="501" y="552" type="line" smooth="yes"/>
      <point x="501" y="480"/>
      <point x="475" y="448"/>
      <point x="420" y="448" type="curve" smooth="yes"/>
      <point x="366" y="448"/>
      <point x="339" y="480"/>
      <point x="339" y="552" type="curve" smooth="yes"/>
      <point x="339" y="580" type="line" smooth="yes"/>
      <point x="339" y="652"/>
      <point x="366" y="685"/>
    </contour>
    <contour>
      <point x="1255" y="935" type="curve" smooth="yes"/>
      <point x="998" y="935"/>
      <point x="871" y="818"/>
      <point x="871" y="576" type="curve" smooth="yes"/>
      <point x="871" y="555" type="line" smooth="yes"/>
      <point x="871" y="313"/>
      <point x="998" y="198"/>
      <point x="1255" y="198" type="curve" smooth="yes"/>
      <point x="1512" y="198"/>
      <point x="1640" y="313"/>
      <point x="1640" y="555" type="curve" smooth="yes"/>
      <point x="1640" y="576" type="line" smooth="yes"/>
      <point x="1640" y="817"/>
      <point x="1512" y="935"/>
    </contour>
    <contour>
      <point x="1255" y="685" type="curve" smooth="yes"/>
      <point x="1310" y="685"/>
      <point x="1336" y="652"/>
      <point x="1336" y="580" type="curve" smooth="yes"/>
      <point x="1336" y="552" type="line" smooth="yes"/>
      <point x="1336" y="480"/>
      <point x="1310" y="448"/>
      <point x="1255" y="448" type="curve" smooth="yes"/>
      <point x="1201" y="448"/>
      <point x="1174" y="480"/>
      <point x="1174" y="552" type="curve" smooth="yes"/>
      <point x="1174" y="580" type="line" smooth="yes"/>
      <point x="1174" y="652"/>
      <point x="1201" y="685"/>
    </contour>
  </outline>
</glyph>
<glyph name="quoteleft" format="2">
  <advance width="477"/>
  <unicode hex="2018"/>
  <outline>
    <contour>
      <point x="384" y="797" type="line"/>
      <point x="380" y="845"/>
      <point x="378" y="880"/>
      <point x="378" y="924" type="curve" smooth="yes"/>
      <point x="378" y="1065"/>
      <point x="406" y="1182"/>
      <point x="452" y="1287" type="curve"/>
      <point x="211" y="1339" type="line"/>
      <point x="101" y="1214"/>
      <point x="52" y="1072"/>
      <point x="52" y="906" type="curve" smooth="yes"/>
      <point x="52" y="863"/>
      <point x="56" y="825"/>
      <point x="61" y="797" type="curve"/>
    </contour>
  </outline>
</glyph>
<glyph name="guilsinglright" format="2">
  <advance width="602"/>
  <unicode hex="203A"/>
  <outline>
    <contour>
      <point x="5" y="905" type="line"/>
      <point x="330" y="905" type="line"/>
      <point x="574" y="521" type="line"/>
      <point x="574" y="470" type="line"/>
      <point x="330" y="74" type="line"/>
      <point x="5" y="74" type="line"/>
      <point x="260" y="489" type="line"/>
    </contour>
  </outline>
</glyph>
<glyph name="fraction" format="2">
  <advance width="401"/>
  <unicode hex="2044"/>
  <outline>
    <contour>
      <point x="-102" y="0" type="line"/>
      <point x="796" y="1278" type="line"/>
      <point x="526" y="1278" type="line"/>
      <point x="-375" y="0" type="line"/>
    </contour>
  </outline>
</glyph>
<glyph name="euro" format="2">
  <advance width="1095"/>
  <unicode hex="20AC"/>
  <outline>
    <contour>
      <point x="710" y="-32" type="curve" smooth="yes"/>
      <point x="840" y="-32"/>
      <point x="942" y="-6"/>
      <point x="1012" y="26" type="curve"/>
      <point x="1038" y="335" type="line"/>
      <point x="969" y="309"/>
      <point x="889" y="287"/>
      <point x="788" y="287" type="curve" smooth="yes"/>
      <point x="583" y="287"/>
      <point x="517" y="387"/>
      <point x="517" y="540" type="curve" smooth="yes"/>
      <point x="517" y="745" type="line" smooth="yes"/>
      <point x="517" y="898"/>
      <point x="583" y="998"/>
      <point x="772" y="998" type="curve" smooth="yes"/>
      <point x="878" y="998"/>
      <point x="958" y="975"/>
      <point x="1028" y="949" type="curve"/>
      <point x="1002" y="1252" type="line"/>
      <point x="931" y="1285"/>
      <point x="833" y="1310"/>
      <point x="704" y="1310" type="curve" smooth="yes"/>
      <point x="338" y="1310"/>
      <point x="149" y="1107"/>
      <point x="149" y="747" type="curve" smooth="yes"/>
      <point x="149" y="539" type="line" smooth="yes"/>
      <point x="149" y="172"/>
      <point x="336" y="-32"/>
    </contour>
    <contour>
      <point x="907" y="408" type="line"/>
      <point x="922" y="598" type="line"/>
      <point x="36" y="598" type="line"/>
      <point x="20" y="408" type="line"/>
    </contour>
    <contour>
      <point x="907" y="688" type="line"/>
      <point x="922" y="878" type="line"/>
      <point x="36" y="878" type="line"/>
      <point x="20" y="688" type="line"/>
    </contour>
  </outline>
</glyph>
<glyph name="BamatraI.kn.1" format="2">
  <advance width="1717"/>
  <outline>
    <contour>
      <point x="493" y="1228" type="curve" smooth="yes"/>
      <point x="223" y="1228"/>
      <point x="78" y="1112"/>
      <point x="78" y="879" type="curve" smooth="yes"/>
      <point x="78" y="868" type="line" smooth="yes"/>
      <point x="78" y="801"/>
      <point x="94" y="738"/>
      <point x="114" y="701" type="curve"/>
      <point x="412" y="701" type="line"/>
      <point x="392" y="737"/>
      <point x="382" y="778"/>
      <point x="382" y="833" type="curve" smooth="yes"/>
      <point x="382" y="838" type="line" smooth="yes"/>
      <point x="382" y="914"/>
      <point x="418" y="948"/>
      <point x="488" y="948" type="curve" smooth="yes"/>
      <point x="557" y="948"/>
      <point x="589" y="918"/>
      <point x="589" y="856" type="curve" smooth="yes"/>
      <point x="589" y="850" type="line" smooth="yes"/>
      <point x="589" y="790"/>
      <point x="559" y="761"/>
      <point x="452" y="721" type="curve" smooth="yes"/>
      <point x="366" y="689" type="line" smooth="yes"/>
      <point x="152" y="609"/>
      <point x="58" y="509"/>
      <point x="58" y="332" type="curve" smooth="yes"/>
      <point x="58" y="321" type="line" smooth="yes"/>
      <point x="58" y="90"/>
      <point x="205" y="-32"/>
      <point x="473" y="-32" type="curve" smooth="yes"/>
      <point x="702" y="-32"/>
      <point x="826" y="63"/>
      <point x="846" y="238" type="curve"/>
      <point x="865" y="238" type="line"/>
      <point x="860" y="470" type="line"/>
      <point x="678" y="470" type="line"/>
      <point x="675" y="424" type="line" smooth="yes"/>
      <point x="668" y="321"/>
      <point x="618" y="270"/>
      <point x="512" y="270" type="curve" smooth="yes"/>
      <point x="430" y="270"/>
      <point x="390" y="299"/>
      <point x="390" y="348" type="curve" smooth="yes"/>
      <point x="390" y="353" type="line" smooth="yes"/>
      <point x="390" y="407"/>
      <point x="427" y="430"/>
      <point x="534" y="475" type="curve" smooth="yes"/>
      <point x="625" y="513" type="line" smooth="yes"/>
      <point x="820" y="595"/>
      <point x="904" y="685"/>
      <point x="904" y="858" type="curve" smooth="yes"/>
      <point x="904" y="868" type="line" smooth="yes"/>
      <point x="904" y="1103"/>
      <point x="761" y="1228"/>
    </contour>
    <contour>
      <point x="1632" y="475" type="curve" smooth="yes"/>
      <point x="1631.9" y="788" type="line" smooth="yes"/>
      <point x="1631.8" y="1100.79"/>
      <point x="1628.74" y="1476"/>
      <point x="1181.9" y="1476" type="curve" smooth="yes"/>
      <point x="925.9" y="1476"/>
      <point x="794.9" y="1357"/>
      <point x="794.9" y="1131" type="curve" smooth="yes"/>
      <point x="794.9" y="1126" type="line" smooth="yes"/>
      <point x="794.9" y="930"/>
      <point x="900.769" y="823"/>
      <point x="1090.9" y="823" type="curve" smooth="yes"/>
      <point x="1207.11" y="823"/>
      <point x="1290.27" y="876.962"/>
      <point x="1310.9" y="991" type="curve"/>
      <point x="1282.9" y="1126" type="line"/>
      <point x="1260.9" y="1072"/>
      <point x="1224.9" y="1049"/>
      <point x="1177.9" y="1049" type="curve" smooth="yes"/>
      <point x="1121.9" y="1049"/>
      <point x="1094.9" y="1075"/>
      <point x="1094.9" y="1126" type="curve" smooth="yes"/>
      <point x="1094.9" y="1132" type="line" smooth="yes"/>
      <point x="1094.9" y="1189"/>
      <point x="1122.9" y="1216"/>
      <point x="1176.9" y="1216" type="curve" smooth="yes"/>
      <point x="1281.71" y="1216"/>
      <point x="1281.86" y="1123.92"/>
      <point x="1281.9" y="953" type="curve" smooth="yes"/>
      <point x="1282" y="481" type="line" smooth="yes"/>
      <point x="1282" y="348"/>
      <point x="1244" y="281"/>
      <point x="1151" y="281" type="curve" smooth="yes"/>
      <point x="1067" y="281"/>
      <point x="1031" y="328"/>
      <point x="1025" y="423" type="curve" smooth="yes"/>
      <point x="1022" y="470" type="line"/>
      <point x="840" y="470" type="line"/>
      <point x="855" y="238" type="line"/>
      <point x="875" y="63"/>
      <point x="995" y="-32"/>
      <point x="1217" y="-32" type="curve" smooth="yes"/>
      <point x="1494" y="-32"/>
      <point x="1632" y="141"/>
    </contour>
  </outline>
  <guideline angle="90" x="476" y="0"/>
  <guideline angle="0" x="0" y="888"/>
</glyph>
<glyph name="Basmall1.kn" format="2">
  <outline>
    <contour>
      <point x="45" y="-110" type="curve" smooth="yes"/>
      <point x="20" y="-110"/>
      <point x="-2" y="-112"/>
      <point x="-22" y="-115" type="curve"/>
      <point x="-22" y="-301" type="line"/>
      <point x="-13" y="-300"/>
      <point x="-5" y="-300"/>
      <point x="4" y="-300" type="curve" smooth="yes"/>
      <point x="63" y="-300"/>
      <point x="91" y="-328"/>
      <point x="91" y="-409" type="curve" smooth="yes"/>
      <point x="91" y="-490" type="line" smooth="yes"/>
      <point x="91" y="-557"/>
      <point x="76" y="-592"/>
      <point x="27" y="-592" type="curve" smooth="yes"/>
      <point x="-14" y="-592"/>
      <point x="-33.3309" y="-569.029"/>
      <point x="-37" y="-525" type="curve" smooth="yes"/>
      <point x="-39" y="-501" type="line"/>
      <point x="-154" y="-501" type="line"/>
      <point x="-144" y="-649" type="line"/>
      <point x="-126" y="-738"/>
      <point x="-58" y="-784"/>
      <point x="70" y="-784" type="curve" smooth="yes"/>
      <point x="232" y="-784"/>
      <point x="315" y="-688"/>
      <point x="315" y="-503" type="curve" smooth="yes"/>
      <point x="315" y="-407" type="line" smooth="yes"/>
      <point x="315" y="-206"/>
      <point x="226" y="-110"/>
    </contour>
    <contour>
      <point x="-347" y="-96" type="curve" smooth="yes"/>
      <point x="-510" y="-96"/>
      <point x="-599" y="-162"/>
      <point x="-599" y="-289" type="curve"/>
      <point x="-599" y="-289"/>
      <point x="-599" y="-290"/>
      <point x="-599" y="-290" type="curve"/>
      <point x="-599" y="-324"/>
      <point x="-590" y="-355"/>
      <point x="-578" y="-374" type="curve"/>
      <point x="-392" y="-374" type="line"/>
      <point x="-401" y="-358"/>
      <point x="-406" y="-337"/>
      <point x="-406" y="-316" type="curve"/>
      <point x="-406" y="-316"/>
      <point x="-406" y="-315"/>
      <point x="-406" y="-315" type="curve"/>
      <point x="-406" y="-279"/>
      <point x="-388" y="-262"/>
      <point x="-348" y="-262" type="curve" smooth="yes"/>
      <point x="-315" y="-262"/>
      <point x="-298" y="-276"/>
      <point x="-298" y="-305" type="curve"/>
      <point x="-298" y="-306" type="line"/>
      <point x="-298" y="-331"/>
      <point x="-314.87" y="-345.403"/>
      <point x="-364" y="-361" type="curve" smooth="yes"/>
      <point x="-427" y="-381" type="line" smooth="yes"/>
      <point x="-555.106" y="-421.668"/>
      <point x="-612" y="-478"/>
      <point x="-612" y="-584" type="curve" smooth="yes"/>
      <point x="-612" y="-587" type="line" smooth="yes"/>
      <point x="-612" y="-713"/>
      <point x="-523" y="-784"/>
      <point x="-365" y="-784" type="curve" smooth="yes"/>
      <point x="-236" y="-784"/>
      <point x="-165" y="-736"/>
      <point x="-149" y="-649" type="curve"/>
      <point x="-110" y="-649" type="line"/>
      <point x="-131" y="-501" type="line"/>
      <point x="-254" y="-501" type="line"/>
      <point x="-257" y="-530" type="line" smooth="yes"/>
      <point x="-262.068" y="-578.993"/>
      <point x="-286" y="-600"/>
      <point x="-341" y="-600" type="curve" smooth="yes"/>
      <point x="-380" y="-600"/>
      <point x="-399" y="-585"/>
      <point x="-399" y="-564" type="curve"/>
      <point x="-399" y="-563" type="line"/>
      <point x="-399" y="-540"/>
      <point x="-382" y="-528"/>
      <point x="-325" y="-507" type="curve" smooth="yes"/>
      <point x="-268" y="-486" type="line" smooth="yes"/>
      <point x="-151.914" y="-443.232"/>
      <point x="-98" y="-392"/>
      <point x="-98" y="-302" type="curve" smooth="yes"/>
      <point x="-98" y="-297" type="line" smooth="yes"/>
      <point x="-98" y="-167"/>
      <point x="-186" y="-96"/>
    </contour>
  </outline>
</glyph>
<glyph name="BhaHalant.kn" format="2">
  <advance width="2434"/>
  <outline>
    <component base="BaHalant.kn"/>
    <contour>
      <point x="830" y="-443" type="curve" smooth="yes"/>
      <point x="949.978" y="-443"/>
      <point x="1012" y="-384"/>
      <point x="1012" y="-267" type="curve" smooth="yes"/>
      <point x="1012" y="-261" type="line" smooth="yes"/>
      <point x="1012" y="-150.723"/>
      <point x="949.978" y="-48.3941"/>
      <point x="830" y="44" type="curve"/>
      <point x="711.028" y="-48.3941"/>
      <point x="649" y="-150.723"/>
      <point x="649" y="-261" type="curve" smooth="yes"/>
      <point x="649" y="-267" type="line" smooth="yes"/>
      <point x="649" y="-384"/>
      <point x="710.011" y="-443"/>
    </contour>
  </outline>
</glyph>
<glyph name="BhamatraAa.kn" format="2">
  <advance width="2626"/>
  <outline>
    <component base="BamatraAa.kn"/>
    <contour>
      <point x="830" y="-443" type="curve" smooth="yes"/>
      <point x="949.978" y="-443"/>
      <point x="1012" y="-384"/>
      <point x="1012" y="-267" type="curve" smooth="yes"/>
      <point x="1012" y="-261" type="line" smooth="yes"/>
      <point x="1012" y="-150.723"/>
      <point x="949.978" y="-48.3941"/>
      <point x="830" y="44" type="curve"/>
      <point x="711.028" y="-48.3941"/>
      <point x="649" y="-150.723"/>
      <point x="649" y="-261" type="curve" smooth="yes"/>
      <point x="649" y="-267" type="line" smooth="yes"/>
      <point x="649" y="-384"/>
      <point x="710.011" y="-443"/>
    </contour>
  </outline>
</glyph>
<glyph name="BhamatraI.kn.1" format="2">
  <advance width="1717"/>
  <outline>
    <component base="BamatraI.kn.1"/>
    <contour>
      <point x="850" y="-447" type="curve" smooth="yes"/>
      <point x="968" y="-447"/>
      <point x="1029" y="-388"/>
      <point x="1029" y="-271" type="curve" smooth="yes"/>
      <point x="1029" y="-265" type="line" smooth="yes"/>
      <point x="1029" y="-154"/>
      <point x="968" y="-51"/>
      <point x="850" y="42" type="curve"/>
      <point x="733" y="-51"/>
      <point x="672" y="-154"/>
      <point x="672" y="-265" type="curve" smooth="yes"/>
      <point x="672" y="-271" type="line" smooth="yes"/>
      <point x="672" y="-388"/>
      <point x="732" y="-447"/>
    </contour>
  </outline>
  <guideline angle="0" x="0" y="-274"/>
  <guideline angle="90" x="82" y="0"/>
</glyph>
<glyph name="BhamatraI.kn" format="2">
  <advance width="1717"/>
  <outline>
    <component base="BamatraI.kn"/>
    <contour>
      <point x="850" y="-443" type="curve" smooth="yes"/>
      <point x="969.978" y="-443"/>
      <point x="1032" y="-384"/>
      <point x="1032" y="-267" type="curve" smooth="yes"/>
      <point x="1032" y="-261" type="line" smooth="yes"/>
      <point x="1032" y="-150.723"/>
      <point x="969.978" y="-48.3941"/>
      <point x="850" y="44" type="curve"/>
      <point x="731.028" y="-48.3941"/>
      <point x="669" y="-150.723"/>
      <point x="669" y="-261" type="curve" smooth="yes"/>
      <point x="669" y="-267" type="line" smooth="yes"/>
      <point x="669" y="-384"/>
      <point x="730.011" y="-443"/>
    </contour>
  </outline>
  <guideline angle="0" x="0" y="-274"/>
  <guideline angle="90" x="82" y="0"/>
</glyph>
<glyph name="Bhasmall1.kn" format="2">
  <outline>
    <component base="Basmall1.kn"/>
    <contour>
      <point x="-147" y="-740" type="curve"/>
      <point x="-223" y="-797"/>
      <point x="-263" y="-853"/>
      <point x="-263" y="-921" type="curve" smooth="yes"/>
      <point x="-263" y="-924" type="line" smooth="yes"/>
      <point x="-263" y="-992"/>
      <point x="-225" y="-1026"/>
      <point x="-147" y="-1026" type="curve" smooth="yes"/>
      <point x="-72" y="-1026"/>
      <point x="-31" y="-992"/>
      <point x="-31" y="-924" type="curve" smooth="yes"/>
      <point x="-31" y="-921" type="line" smooth="yes"/>
      <point x="-31" y="-853"/>
      <point x="-72" y="-797"/>
    </contour>
  </outline>
  <guideline angle="90" x="227" y="0"/>
  <guideline angle="0" x="0" y="-381"/>
  <guideline angle="90" x="43" y="0"/>
</glyph>
<glyph name="CamatraI.kn" format="2">
  <advance width="1703"/>
  <outline>
    <contour>
      <point x="1343" y="495" type="line"/>
      <point x="1449" y="489" type="line"/>
      <point x="1449" y="505" type="line"/>
      <point x="1654" y="497" type="line"/>
      <point x="1654" y="753" type="line"/>
      <point x="1463" y="745" type="line"/>
      <point x="1291" y="755" type="line"/>
      <point x="1023" y="755" type="line"/>
      <point x="1023" y="495" type="line"/>
    </contour>
    <contour>
      <point x="1606" y="288" type="line" smooth="yes"/>
      <point x="1606" y="394"/>
      <point x="1556" y="478"/>
      <point x="1449" y="496" type="curve"/>
      <point x="1152" y="533" type="line"/>
      <point x="1148" y="495" type="line"/>
      <point x="1231" y="495"/>
      <point x="1266" y="461"/>
      <point x="1266" y="388" type="curve" smooth="yes"/>
      <point x="1266" y="383" type="line" smooth="yes"/>
      <point x="1266" y="313"/>
      <point x="1221" y="276"/>
      <point x="1147" y="276" type="curve" smooth="yes"/>
      <point x="1059" y="276"/>
      <point x="1021" y="322"/>
      <point x="1015" y="414" type="curve" smooth="yes"/>
      <point x="1012" y="470" type="line"/>
      <point x="820" y="470" type="line"/>
      <point x="844" y="247" type="line" smooth="yes"/>
      <point x="864" y="65"/>
      <point x="977" y="-32"/>
      <point x="1213" y="-32" type="curve" smooth="yes"/>
      <point x="1470" y="-32"/>
      <point x="1606" y="77"/>
      <point x="1606" y="281" type="curve" smooth="yes"/>
    </contour>
    <contour>
      <point x="493" y="1228" type="curve" smooth="yes"/>
      <point x="223" y="1228"/>
      <point x="78" y="1112"/>
      <point x="78" y="879" type="curve" smooth="yes"/>
      <point x="78" y="868" type="line" smooth="yes"/>
      <point x="78" y="801"/>
      <point x="94" y="738"/>
      <point x="114" y="701" type="curve"/>
      <point x="412" y="701" type="line"/>
      <point x="392" y="737"/>
      <point x="382" y="778"/>
      <point x="382" y="833" type="curve" smooth="yes"/>
      <point x="382" y="838" type="line" smooth="yes"/>
      <point x="382" y="914"/>
      <point x="418" y="948"/>
      <point x="488" y="948" type="curve" smooth="yes"/>
      <point x="557" y="948"/>
      <point x="589" y="918"/>
      <point x="589" y="856" type="curve" smooth="yes"/>
      <point x="589" y="850" type="line" smooth="yes"/>
      <point x="589" y="790"/>
      <point x="559" y="761"/>
      <point x="452" y="721" type="curve" smooth="yes"/>
      <point x="366" y="689" type="line" smooth="yes"/>
      <point x="152" y="609"/>
      <point x="58" y="509"/>
      <point x="58" y="332" type="curve" smooth="yes"/>
      <point x="58" y="321" type="line" smooth="yes"/>
      <point x="58" y="90"/>
      <point x="203" y="-32"/>
      <point x="468" y="-32" type="curve" smooth="yes"/>
      <point x="694" y="-32"/>
      <point x="817" y="61"/>
      <point x="836" y="233" type="curve"/>
      <point x="855" y="233" type="line"/>
      <point x="840" y="470" type="line"/>
      <point x="668" y="470" type="line"/>
      <point x="665" y="414" type="line" smooth="yes"/>
      <point x="660" y="318"/>
      <point x="610" y="270"/>
      <point x="507" y="270" type="curve" smooth="yes"/>
      <point x="428" y="270"/>
      <point x="390" y="299"/>
      <point x="390" y="348" type="curve" smooth="yes"/>
      <point x="390" y="353" type="line" smooth="yes"/>
      <point x="390" y="407"/>
      <point x="427" y="430"/>
      <point x="534" y="475" type="curve" smooth="yes"/>
      <point x="625" y="513" type="line" smooth="yes"/>
      <point x="820" y="595"/>
      <point x="904" y="685"/>
      <point x="904" y="858" type="curve" smooth="yes"/>
      <point x="904" y="868" type="line" smooth="yes"/>
      <point x="904" y="1103"/>
      <point x="761" y="1228"/>
    </contour>
    <contour>
      <point x="1227" y="1449" type="curve" smooth="yes"/>
      <point x="988" y="1449"/>
      <point x="864" y="1340"/>
      <point x="864" y="1131" type="curve" smooth="yes"/>
      <point x="864" y="1127" type="line" smooth="yes"/>
      <point x="864" y="955"/>
      <point x="958" y="861"/>
      <point x="1124" y="861" type="curve" smooth="yes"/>
      <point x="1232" y="861"/>
      <point x="1299" y="905"/>
      <point x="1322" y="984" type="curve"/>
      <point x="1358" y="984" type="line"/>
      <point x="1347" y="1135" type="line"/>
      <point x="1323" y="1084"/>
      <point x="1284" y="1059"/>
      <point x="1235" y="1059" type="curve" smooth="yes"/>
      <point x="1180" y="1059"/>
      <point x="1153" y="1083"/>
      <point x="1153" y="1131" type="curve" smooth="yes"/>
      <point x="1153" y="1134" type="line" smooth="yes"/>
      <point x="1153" y="1182"/>
      <point x="1182" y="1207"/>
      <point x="1237" y="1207" type="curve" smooth="yes"/>
      <point x="1303" y="1207"/>
      <point x="1331" y="1167"/>
      <point x="1331" y="1087" type="curve" smooth="yes"/>
      <point x="1331" y="988" type="line" smooth="yes"/>
      <point x="1331" y="834"/>
      <point x="1255" y="755"/>
      <point x="1106" y="755" type="curve"/>
      <point x="1463" y="668" type="line"/>
      <point x="1463" y="753" type="line"/>
      <point x="1572" y="786"/>
      <point x="1626" y="880"/>
      <point x="1626" y="1057" type="curve" smooth="yes"/>
      <point x="1626" y="1078" type="line" smooth="yes"/>
      <point x="1626" y="1322"/>
      <point x="1484" y="1449"/>
    </contour>
  </outline>
</glyph>
